# MagicaVoxel @ Ephtracy

# group
o 

# material
mtllib ozisan.ver2vox.mtl
usemtl palette

# normals
vn -1 0 0
vn 1 0 0
vn 0 0 1
vn 0 0 -1
vn 0 -1 0
vn 0 1 0

# texcoords
vt 0.908203 0.5
vt 0.919922 0.5
vt 0.927734 0.5
vt 0.931641 0.5
vt 0.935547 0.5
vt 0.939453 0.5
vt 0.943359 0.5
vt 0.951172 0.5
vt 0.958984 0.5
vt 0.962891 0.5
vt 0.970703 0.5
vt 0.974609 0.5
vt 0.978516 0.5
vt 0.990234 0.5

# verts
v 2.1 5.2 -3.6
v 2.1 5.2 -4.5
v 2.1 6.8 -3.6
v 2.1 6.8 -4.5
v 2.1 6.9 -3.6
v 2.1 6.9 -4.5
v 2.1 7.7 -3.6
v 2.1 7.7 -4.5
v 2.7 2 -3.6
v 2.7 2 -4.5
v 2.7 2.1 -3.6
v 2.7 2.1 -4.1
v 2.7 2.1 -4.2
v 2.7 2.1 -4.5
v 2.7 2.2 -3.6
v 2.7 2.2 -4.1
v 2.7 2.2 -4.2
v 2.7 2.3 -3.6
v 2.7 2.3 -4.1
v 2.7 2.6 -3.6
v 2.7 2.6 -4.5
v 2.7 5.2 -3.6
v 2.7 5.2 -4.5
v 2.9 7.7 -3.6
v 2.9 7.7 -4.5
v 2.9 7.8 -3.5
v 2.9 7.8 -3.6
v 2.9 7.8 -3.7
v 2.9 7.8 -4.1
v 2.9 7.8 -4.2
v 2.9 7.8 -4.5
v 2.9 7.8 -4.7
v 2.9 7.9 -3.5
v 2.9 7.9 -3.7
v 2.9 7.9 -3.8
v 2.9 7.9 -4
v 2.9 7.9 -4.1
v 2.9 7.9 -4.2
v 2.9 8 -3.9
v 2.9 8 -4
v 2.9 8 -4.1
v 2.9 8.1 -3.7
v 2.9 8.1 -3.8
v 2.9 8.1 -3.9
v 2.9 8.1 -4
v 2.9 8.2 -3.6
v 2.9 8.2 -3.7
v 2.9 8.2 -3.8
v 2.9 8.2 -3.9
v 2.9 8.2 -4
v 2.9 8.4 -3.6
v 2.9 8.4 -3.7
v 2.9 8.4 -3.9
v 2.9 8.4 -4
v 2.9 8.5 -3.5
v 2.9 8.5 -3.6
v 2.9 8.5 -3.7
v 2.9 8.5 -3.9
v 2.9 8.9 -3.5
v 2.9 8.9 -3.6
v 2.9 9 -3.5
v 2.9 9 -3.6
v 2.9 9 -4.7
v 4 7.7 -3.6
v 4 7.7 -4.5
v 4 7.8 -3.5
v 4 7.8 -3.6
v 4 7.8 -3.7
v 4 7.8 -4.1
v 4 7.8 -4.2
v 4 7.8 -4.5
v 4 7.8 -4.7
v 4 7.9 -3.5
v 4 7.9 -3.7
v 4 7.9 -3.8
v 4 7.9 -4.1
v 4 7.9 -4.2
v 4 8 -3.9
v 4 8 -4
v 4 8 -4.1
v 4 8.1 -3.7
v 4 8.1 -3.8
v 4 8.1 -3.9
v 4 8.1 -4
v 4 8.2 -3.6
v 4 8.2 -3.7
v 4 8.2 -3.8
v 4 8.2 -3.9
v 4 8.2 -4
v 4 8.4 -3.6
v 4 8.4 -3.7
v 4 8.4 -3.9
v 4 8.4 -4
v 4 8.5 -3.5
v 4 8.5 -3.6
v 4 8.5 -3.7
v 4 8.5 -3.9
v 4 8.9 -3.5
v 4 8.9 -3.6
v 4 9 -3.5
v 4 9 -3.6
v 4 9 -4.7
v 4.2 2 -3.6
v 4.2 2 -4.5
v 4.2 2.1 -3.6
v 4.2 2.1 -4.1
v 4.2 2.1 -4.2
v 4.2 2.1 -4.5
v 4.2 2.2 -3.6
v 4.2 2.2 -4.1
v 4.2 2.2 -4.2
v 4.2 2.3 -3.6
v 4.2 2.3 -4.1
v 4.2 2.6 -3.6
v 4.2 2.6 -4.5
v 4.2 5.2 -3.6
v 4.2 5.2 -4.5
v 4.8 5.2 -3.6
v 4.8 5.2 -4.5
v 4.8 6.8 -3.6
v 4.8 6.8 -4.5
v 4.8 6.9 -3.6
v 4.8 6.9 -4.5
v 4.8 7.7 -3.6
v 4.8 7.7 -4.5
v 2.9 7.8 -3.5
v 2.9 7.9 -3.5
v 2.9 8.5 -3.5
v 2.9 8.9 -3.5
v 2.9 9 -3.5
v 3 7.9 -3.5
v 3 8.1 -3.5
v 3 8.3 -3.5
v 3 8.4 -3.5
v 3 8.5 -3.5
v 3 8.9 -3.5
v 3.1 7.9 -3.5
v 3.1 8.1 -3.5
v 3.1 8.2 -3.5
v 3.1 8.3 -3.5
v 3.1 8.4 -3.5
v 3.1 8.5 -3.5
v 3.1 8.6 -3.5
v 3.1 8.7 -3.5
v 3.2 8.1 -3.5
v 3.2 8.2 -3.5
v 3.2 8.6 -3.5
v 3.2 8.7 -3.5
v 3.2 8.8 -3.5
v 3.3 8 -3.5
v 3.3 8.1 -3.5
v 3.3 8.6 -3.5
v 3.3 8.7 -3.5
v 3.3 8.8 -3.5
v 3.4 8.4 -3.5
v 3.4 8.5 -3.5
v 3.4 8.6 -3.5
v 3.4 8.7 -3.5
v 3.5 8.4 -3.5
v 3.5 8.5 -3.5
v 3.5 8.6 -3.5
v 3.5 8.7 -3.5
v 3.6 8 -3.5
v 3.6 8.1 -3.5
v 3.6 8.6 -3.5
v 3.6 8.7 -3.5
v 3.6 8.8 -3.5
v 3.7 8.1 -3.5
v 3.7 8.2 -3.5
v 3.7 8.6 -3.5
v 3.7 8.7 -3.5
v 3.7 8.8 -3.5
v 3.8 7.9 -3.5
v 3.8 8.1 -3.5
v 3.8 8.2 -3.5
v 3.8 8.3 -3.5
v 3.8 8.4 -3.5
v 3.8 8.5 -3.5
v 3.8 8.6 -3.5
v 3.8 8.7 -3.5
v 3.9 7.9 -3.5
v 3.9 8.1 -3.5
v 3.9 8.3 -3.5
v 3.9 8.4 -3.5
v 3.9 8.5 -3.5
v 3.9 8.9 -3.5
v 4 7.8 -3.5
v 4 7.9 -3.5
v 4 8.5 -3.5
v 4 8.9 -3.5
v 4 9 -3.5
v 2.1 5.2 -3.6
v 2.1 6.8 -3.6
v 2.1 6.9 -3.6
v 2.1 7.7 -3.6
v 2.6 5.6 -3.6
v 2.6 6.8 -3.6
v 2.6 6.9 -3.6
v 2.6 7.2 -3.6
v 2.7 2 -3.6
v 2.7 2.1 -3.6
v 2.7 2.2 -3.6
v 2.7 2.3 -3.6
v 2.7 2.6 -3.6
v 2.7 5.2 -3.6
v 2.7 5.3 -3.6
v 2.7 5.4 -3.6
v 2.7 5.6 -3.6
v 2.7 6.1 -3.6
v 2.7 6.2 -3.6
v 2.7 7.2 -3.6
v 2.9 7.7 -3.6
v 2.9 7.8 -3.6
v 3 5.4 -3.6
v 3 6.1 -3.6
v 3 7.6 -3.6
v 3 7.7 -3.6
v 3.1 2.1 -3.6
v 3.1 2.2 -3.6
v 3.1 2.3 -3.6
v 3.1 5.4 -3.6
v 3.1 6.1 -3.6
v 3.1 7.5 -3.6
v 3.1 7.6 -3.6
v 3.2 2.1 -3.6
v 3.2 2.2 -3.6
v 3.2 2.3 -3.6
v 3.3 7.4 -3.6
v 3.3 7.5 -3.6
v 3.4 2 -3.6
v 3.4 2.1 -3.6
v 3.4 2.2 -3.6
v 3.4 2.3 -3.6
v 3.4 2.6 -3.6
v 3.4 4.5 -3.6
v 3.4 5.4 -3.6
v 3.4 6.1 -3.6
v 3.5 2 -3.6
v 3.5 2.1 -3.6
v 3.5 2.2 -3.6
v 3.5 2.3 -3.6
v 3.5 2.6 -3.6
v 3.5 4.5 -3.6
v 3.5 5.4 -3.6
v 3.5 6.1 -3.6
v 3.6 7.4 -3.6
v 3.6 7.5 -3.6
v 3.7 2.1 -3.6
v 3.7 2.2 -3.6
v 3.7 2.3 -3.6
v 3.8 2.1 -3.6
v 3.8 2.2 -3.6
v 3.8 2.3 -3.6
v 3.8 5.4 -3.6
v 3.8 6.1 -3.6
v 3.8 7.5 -3.6
v 3.8 7.6 -3.6
v 3.9 5.4 -3.6
v 3.9 6.1 -3.6
v 3.9 7.6 -3.6
v 3.9 7.7 -3.6
v 4 7.7 -3.6
v 4 7.8 -3.6
v 4.2 2 -3.6
v 4.2 2.1 -3.6
v 4.2 2.2 -3.6
v 4.2 2.3 -3.6
v 4.2 2.6 -3.6
v 4.2 5.2 -3.6
v 4.2 5.3 -3.6
v 4.2 5.4 -3.6
v 4.2 5.6 -3.6
v 4.2 6.1 -3.6
v 4.2 6.2 -3.6
v 4.2 7.2 -3.6
v 4.3 5.6 -3.6
v 4.3 6.8 -3.6
v 4.3 6.9 -3.6
v 4.3 7.2 -3.6
v 4.8 5.2 -3.6
v 4.8 6.8 -3.6
v 4.8 6.9 -3.6
v 4.8 7.7 -3.6
v 2.1 5.2 -4.5
v 2.1 6.8 -4.5
v 2.1 6.9 -4.5
v 2.1 7.7 -4.5
v 2.6 5.6 -4.5
v 2.6 6.8 -4.5
v 2.6 6.9 -4.5
v 2.6 7.2 -4.5
v 2.7 2 -4.5
v 2.7 2.1 -4.5
v 2.7 2.6 -4.5
v 2.7 5.2 -4.5
v 2.7 5.3 -4.5
v 2.7 5.4 -4.5
v 2.7 5.6 -4.5
v 2.7 6.1 -4.5
v 2.7 6.2 -4.5
v 2.7 7.2 -4.5
v 2.9 7.7 -4.5
v 2.9 7.8 -4.5
v 3 5.4 -4.5
v 3 6.1 -4.5
v 3 7.8 -4.5
v 3.1 5.4 -4.5
v 3.1 6.1 -4.5
v 3.4 2 -4.5
v 3.4 2.1 -4.5
v 3.4 2.6 -4.5
v 3.4 4.5 -4.5
v 3.4 5.4 -4.5
v 3.4 6.1 -4.5
v 3.5 2 -4.5
v 3.5 2.1 -4.5
v 3.5 2.6 -4.5
v 3.5 4.5 -4.5
v 3.5 5.4 -4.5
v 3.5 6.1 -4.5
v 3.8 5.4 -4.5
v 3.8 6.1 -4.5
v 3.9 5.4 -4.5
v 3.9 6.1 -4.5
v 3.9 7.8 -4.5
v 4 7.7 -4.5
v 4 7.8 -4.5
v 4.2 2 -4.5
v 4.2 2.1 -4.5
v 4.2 2.6 -4.5
v 4.2 5.2 -4.5
v 4.2 5.3 -4.5
v 4.2 5.4 -4.5
v 4.2 5.6 -4.5
v 4.2 6.1 -4.5
v 4.2 6.2 -4.5
v 4.2 7.2 -4.5
v 4.3 5.6 -4.5
v 4.3 6.8 -4.5
v 4.3 6.9 -4.5
v 4.3 7.2 -4.5
v 4.8 5.2 -4.5
v 4.8 6.8 -4.5
v 4.8 6.9 -4.5
v 4.8 7.7 -4.5
v 2.9 7.8 -4.7
v 2.9 9 -4.7
v 3 8.9 -4.7
v 3 9 -4.7
v 3.9 8.9 -4.7
v 3.9 9 -4.7
v 4 7.8 -4.7
v 4 9 -4.7
v 2.7 2 -3.6
v 3.4 2 -3.6
v 3.5 2 -3.6
v 4.2 2 -3.6
v 3.4 2 -3.7
v 3.5 2 -3.7
v 3.4 2 -4.4
v 3.5 2 -4.4
v 2.7 2 -4.5
v 3.4 2 -4.5
v 3.5 2 -4.5
v 4.2 2 -4.5
v 2.1 5.2 -3.6
v 2.7 5.2 -3.6
v 4.2 5.2 -3.6
v 4.8 5.2 -3.6
v 2.1 5.2 -4.5
v 2.7 5.2 -4.5
v 4.2 5.2 -4.5
v 4.8 5.2 -4.5
v 2.9 7.8 -3.5
v 4 7.8 -3.5
v 2.9 7.8 -3.6
v 4 7.8 -3.6
v 2.9 7.8 -4.5
v 3 7.8 -4.5
v 3.9 7.8 -4.5
v 4 7.8 -4.5
v 3 7.8 -4.6
v 3.9 7.8 -4.6
v 2.9 7.8 -4.7
v 4 7.8 -4.7
v 2.1 7.7 -3.6
v 2.9 7.7 -3.6
v 4 7.7 -3.6
v 4.8 7.7 -3.6
v 2.1 7.7 -4.5
v 2.9 7.7 -4.5
v 4 7.7 -4.5
v 4.8 7.7 -4.5
v 2.9 9 -3.5
v 4 9 -3.5
v 2.9 9 -3.6
v 3 9 -3.6
v 3.9 9 -3.6
v 4 9 -3.6
v 2.9 9 -4.7
v 3 9 -4.7
v 3.9 9 -4.7
v 4 9 -4.7

# faces
f 3/11/1 2/11/1 1/11/1
f 4/11/1 2/11/1 3/11/1
f 5/12/1 4/12/1 3/12/1
f 6/12/1 4/12/1 5/12/1
f 7/6/1 6/6/1 5/6/1
f 8/6/1 6/6/1 7/6/1
f 11/10/1 10/10/1 9/10/1
f 12/10/1 10/10/1 11/10/1
f 13/10/1 10/10/1 12/10/1
f 14/10/1 10/10/1 13/10/1
f 15/11/1 12/11/1 11/11/1
f 16/5/1 13/5/1 12/5/1
f 16/11/1 12/11/1 15/11/1
f 17/11/1 14/11/1 13/11/1
f 17/5/1 13/5/1 16/5/1
f 18/5/1 16/5/1 15/5/1
f 19/11/1 17/11/1 16/11/1
f 19/5/1 16/5/1 18/5/1
f 20/11/1 19/11/1 18/11/1
f 21/11/1 14/11/1 17/11/1
f 21/11/1 19/11/1 20/11/1
f 21/11/1 17/11/1 19/11/1
f 22/1/1 21/1/1 20/1/1
f 23/1/1 21/1/1 22/1/1
f 27/11/1 25/11/1 24/11/1
f 28/11/1 25/11/1 27/11/1
f 29/11/1 25/11/1 28/11/1
f 30/11/1 25/11/1 29/11/1
f 31/11/1 25/11/1 30/11/1
f 33/10/1 27/10/1 26/10/1
f 33/10/1 28/10/1 27/10/1
f 34/11/1 29/11/1 28/11/1
f 34/10/1 28/10/1 33/10/1
f 35/11/1 29/11/1 34/11/1
f 36/11/1 29/11/1 35/11/1
f 37/10/1 30/10/1 29/10/1
f 37/11/1 29/11/1 36/11/1
f 38/7/1 32/7/1 31/7/1
f 38/10/1 30/10/1 37/10/1
f 38/7/1 31/7/1 30/7/1
f 39/11/1 36/11/1 35/11/1
f 40/10/1 37/10/1 36/10/1
f 40/11/1 36/11/1 39/11/1
f 41/7/1 38/7/1 37/7/1
f 41/10/1 37/10/1 40/10/1
f 42/10/1 35/10/1 34/10/1
f 42/11/1 34/11/1 33/11/1
f 43/11/1 39/11/1 35/11/1
f 43/10/1 35/10/1 42/10/1
f 44/10/1 40/10/1 39/10/1
f 44/11/1 39/11/1 43/11/1
f 45/7/1 41/7/1 40/7/1
f 45/10/1 40/10/1 44/10/1
f 46/11/1 42/11/1 33/11/1
f 46/11/1 43/11/1 42/11/1
f 47/11/1 43/11/1 46/11/1
f 48/10/1 44/10/1 43/10/1
f 48/11/1 43/11/1 47/11/1
f 49/7/1 45/7/1 44/7/1
f 49/10/1 44/10/1 48/10/1
f 50/7/1 41/7/1 45/7/1
f 50/7/1 45/7/1 49/7/1
f 51/10/1 47/10/1 46/10/1
f 51/11/1 46/11/1 33/11/1
f 52/11/1 49/11/1 48/11/1
f 52/10/1 47/10/1 51/10/1
f 52/11/1 48/11/1 47/11/1
f 53/10/1 50/10/1 49/10/1
f 53/11/1 49/11/1 52/11/1
f 54/7/1 41/7/1 50/7/1
f 54/10/1 50/10/1 53/10/1
f 55/11/1 51/11/1 33/11/1
f 56/7/1 52/7/1 51/7/1
f 56/11/1 51/11/1 55/11/1
f 57/10/1 53/10/1 52/10/1
f 57/7/1 52/7/1 56/7/1
f 58/7/1 54/7/1 53/7/1
f 58/10/1 53/10/1 57/10/1
f 59/7/1 56/7/1 55/7/1
f 59/7/1 57/7/1 56/7/1
f 59/7/1 58/7/1 57/7/1
f 60/7/1 58/7/1 59/7/1
f 61/11/1 60/11/1 59/11/1
f 62/7/1 58/7/1 60/7/1
f 62/11/1 60/11/1 61/11/1
f 63/7/1 41/7/1 54/7/1
f 63/7/1 58/7/1 62/7/1
f 63/7/1 38/7/1 41/7/1
f 63/7/1 32/7/1 38/7/1
f 63/7/1 54/7/1 58/7/1
f 64/11/2 65/11/2 67/11/2
f 67/11/2 65/11/2 68/11/2
f 68/11/2 65/11/2 69/11/2
f 69/11/2 65/11/2 70/11/2
f 70/11/2 65/11/2 71/11/2
f 66/10/2 67/10/2 73/10/2
f 67/10/2 68/10/2 73/10/2
f 68/11/2 69/11/2 74/11/2
f 73/10/2 68/10/2 74/10/2
f 74/11/2 69/11/2 75/11/2
f 69/10/2 70/10/2 76/10/2
f 75/11/2 69/11/2 76/11/2
f 71/7/2 72/7/2 77/7/2
f 76/10/2 70/10/2 77/10/2
f 70/7/2 71/7/2 77/7/2
f 75/11/2 76/11/2 78/11/2
f 78/11/2 76/11/2 79/11/2
f 76/7/2 77/7/2 80/7/2
f 79/11/2 76/11/2 80/11/2
f 73/11/2 74/11/2 81/11/2
f 74/10/2 75/10/2 81/10/2
f 75/11/2 78/11/2 82/11/2
f 81/10/2 75/10/2 82/10/2
f 78/10/2 79/10/2 83/10/2
f 82/11/2 78/11/2 83/11/2
f 79/7/2 80/7/2 84/7/2
f 83/10/2 79/10/2 84/10/2
f 81/11/2 82/11/2 85/11/2
f 73/11/2 81/11/2 85/11/2
f 85/11/2 82/11/2 86/11/2
f 82/10/2 83/10/2 87/10/2
f 86/11/2 82/11/2 87/11/2
f 83/7/2 84/7/2 88/7/2
f 87/10/2 83/10/2 88/10/2
f 84/7/2 80/7/2 89/7/2
f 88/7/2 84/7/2 89/7/2
f 85/10/2 86/10/2 90/10/2
f 73/11/2 85/11/2 90/11/2
f 87/11/2 88/11/2 91/11/2
f 90/10/2 86/10/2 91/10/2
f 86/11/2 87/11/2 91/11/2
f 88/10/2 89/10/2 92/10/2
f 91/11/2 88/11/2 92/11/2
f 89/7/2 80/7/2 93/7/2
f 92/10/2 89/10/2 93/10/2
f 73/11/2 90/11/2 94/11/2
f 90/7/2 91/7/2 95/7/2
f 94/11/2 90/11/2 95/11/2
f 91/10/2 92/10/2 96/10/2
f 95/7/2 91/7/2 96/7/2
f 92/7/2 93/7/2 97/7/2
f 96/10/2 92/10/2 97/10/2
f 94/7/2 95/7/2 98/7/2
f 95/7/2 96/7/2 98/7/2
f 96/7/2 97/7/2 98/7/2
f 98/7/2 97/7/2 99/7/2
f 98/11/2 99/11/2 100/11/2
f 99/7/2 97/7/2 101/7/2
f 100/11/2 99/11/2 101/11/2
f 77/7/2 72/7/2 102/7/2
f 101/7/2 97/7/2 102/7/2
f 80/7/2 77/7/2 102/7/2
f 97/7/2 93/7/2 102/7/2
f 93/7/2 80/7/2 102/7/2
f 103/10/2 104/10/2 105/10/2
f 105/10/2 104/10/2 106/10/2
f 106/10/2 104/10/2 107/10/2
f 107/10/2 104/10/2 108/10/2
f 105/11/2 106/11/2 109/11/2
f 106/5/2 107/5/2 110/5/2
f 109/11/2 106/11/2 110/11/2
f 107/11/2 108/11/2 111/11/2
f 110/5/2 107/5/2 111/5/2
f 109/5/2 110/5/2 112/5/2
f 110/11/2 111/11/2 113/11/2
f 112/5/2 110/5/2 113/5/2
f 112/11/2 113/11/2 114/11/2
f 111/11/2 108/11/2 115/11/2
f 114/11/2 113/11/2 115/11/2
f 113/11/2 111/11/2 115/11/2
f 114/1/2 115/1/2 116/1/2
f 116/1/2 115/1/2 117/1/2
f 118/11/2 119/11/2 120/11/2
f 120/11/2 119/11/2 121/11/2
f 120/12/2 121/12/2 122/12/2
f 122/12/2 121/12/2 123/12/2
f 122/6/2 123/6/2 124/6/2
f 124/6/2 123/6/2 125/6/2
f 131/10/3 127/10/3 126/10/3
f 131/11/3 128/11/3 127/11/3
f 132/11/3 128/11/3 131/11/3
f 133/11/3 128/11/3 132/11/3
f 134/11/3 128/11/3 133/11/3
f 135/7/3 129/7/3 128/7/3
f 135/11/3 128/11/3 134/11/3
f 136/11/3 130/11/3 129/11/3
f 136/7/3 129/7/3 135/7/3
f 137/10/3 131/10/3 126/10/3
f 137/4/3 132/4/3 131/4/3
f 138/11/3 133/11/3 132/11/3
f 138/4/3 132/4/3 137/4/3
f 139/11/3 133/11/3 138/11/3
f 140/4/3 134/4/3 133/4/3
f 140/11/3 133/11/3 139/11/3
f 141/11/3 135/11/3 134/11/3
f 141/4/3 134/4/3 140/4/3
f 141/11/3 136/11/3 135/11/3
f 142/11/3 136/11/3 141/11/3
f 143/11/3 136/11/3 142/11/3
f 144/11/3 136/11/3 143/11/3
f 145/4/3 139/4/3 138/4/3
f 145/11/3 138/11/3 137/11/3
f 146/11/3 140/11/3 139/11/3
f 146/4/3 139/4/3 145/4/3
f 146/11/3 141/11/3 140/11/3
f 147/7/3 144/7/3 143/7/3
f 147/11/3 143/11/3 142/11/3
f 148/11/3 136/11/3 144/11/3
f 148/7/3 144/7/3 147/7/3
f 149/11/3 136/11/3 148/11/3
f 150/11/3 145/11/3 137/11/3
f 150/11/3 146/11/3 145/11/3
f 151/11/3 146/11/3 150/11/3
f 152/11/3 147/11/3 142/11/3
f 152/11/3 148/11/3 147/11/3
f 153/7/3 149/7/3 148/7/3
f 153/11/3 148/11/3 152/11/3
f 154/11/3 136/11/3 149/11/3
f 154/7/3 149/7/3 153/7/3
f 155/11/3 146/11/3 151/11/3
f 155/11/3 141/11/3 146/11/3
f 155/7/3 142/7/3 141/7/3
f 156/11/3 152/11/3 142/11/3
f 156/7/3 142/7/3 155/7/3
f 157/7/3 153/7/3 152/7/3
f 157/11/3 152/11/3 156/11/3
f 158/11/3 154/11/3 153/11/3
f 158/7/3 153/7/3 157/7/3
f 159/11/3 156/11/3 155/11/3
f 159/11/3 157/11/3 156/11/3
f 159/11/3 158/11/3 157/11/3
f 159/11/3 155/11/3 151/11/3
f 160/11/3 158/11/3 159/11/3
f 161/11/3 158/11/3 160/11/3
f 162/11/3 154/11/3 158/11/3
f 162/11/3 158/11/3 161/11/3
f 163/8/3 151/8/3 150/8/3
f 163/11/3 150/11/3 137/11/3
f 164/11/3 159/11/3 151/11/3
f 164/8/3 151/8/3 163/8/3
f 165/11/3 161/11/3 160/11/3
f 165/7/3 162/7/3 161/7/3
f 166/11/3 154/11/3 162/11/3
f 166/7/3 162/7/3 165/7/3
f 167/11/3 136/11/3 154/11/3
f 167/11/3 154/11/3 166/11/3
f 168/11/3 159/11/3 164/11/3
f 168/11/3 164/11/3 163/11/3
f 169/11/3 159/11/3 168/11/3
f 170/11/3 166/11/3 165/11/3
f 170/11/3 165/11/3 160/11/3
f 171/7/3 167/7/3 166/7/3
f 171/11/3 166/11/3 170/11/3
f 172/11/3 136/11/3 167/11/3
f 172/7/3 167/7/3 171/7/3
f 173/10/3 137/10/3 126/10/3
f 173/11/3 163/11/3 137/11/3
f 173/11/3 168/11/3 163/11/3
f 174/4/3 169/4/3 168/4/3
f 174/11/3 168/11/3 173/11/3
f 175/11/3 159/11/3 169/11/3
f 175/4/3 169/4/3 174/4/3
f 176/11/3 159/11/3 175/11/3
f 177/7/3 160/7/3 159/7/3
f 177/11/3 159/11/3 176/11/3
f 178/11/3 170/11/3 160/11/3
f 178/7/3 160/7/3 177/7/3
f 179/7/3 171/7/3 170/7/3
f 179/11/3 170/11/3 178/11/3
f 180/11/3 172/11/3 171/11/3
f 180/7/3 171/7/3 179/7/3
f 181/4/3 174/4/3 173/4/3
f 181/10/3 173/10/3 126/10/3
f 182/11/3 176/11/3 175/11/3
f 182/4/3 174/4/3 181/4/3
f 182/11/3 175/11/3 174/11/3
f 183/4/3 177/4/3 176/4/3
f 183/11/3 176/11/3 182/11/3
f 184/11/3 178/11/3 177/11/3
f 184/4/3 177/4/3 183/4/3
f 184/11/3 180/11/3 179/11/3
f 184/11/3 179/11/3 178/11/3
f 185/11/3 180/11/3 184/11/3
f 186/11/3 172/11/3 180/11/3
f 186/11/3 180/11/3 185/11/3
f 186/11/3 130/11/3 136/11/3
f 186/11/3 136/11/3 172/11/3
f 187/10/3 181/10/3 126/10/3
f 188/11/3 183/11/3 182/11/3
f 188/10/3 181/10/3 187/10/3
f 188/11/3 185/11/3 184/11/3
f 188/11/3 184/11/3 183/11/3
f 188/11/3 182/11/3 181/11/3
f 189/7/3 186/7/3 185/7/3
f 189/11/3 185/11/3 188/11/3
f 190/11/3 130/11/3 186/11/3
f 190/7/3 186/7/3 189/7/3
f 191/11/3 130/11/3 190/11/3
f 196/11/3 193/11/3 192/11/3
f 197/12/3 194/12/3 193/12/3
f 197/11/3 193/11/3 196/11/3
f 198/6/3 195/6/3 194/6/3
f 198/12/3 194/12/3 197/12/3
f 199/6/3 195/6/3 198/6/3
f 205/11/3 196/11/3 192/11/3
f 206/11/3 196/11/3 205/11/3
f 207/11/3 196/11/3 206/11/3
f 208/12/3 197/12/3 196/12/3
f 208/11/3 196/11/3 207/11/3
f 208/12/3 198/12/3 197/12/3
f 208/12/3 199/12/3 198/12/3
f 209/12/3 199/12/3 208/12/3
f 210/12/3 199/12/3 209/12/3
f 211/6/3 195/6/3 199/6/3
f 211/12/3 199/12/3 210/12/3
f 212/6/3 211/6/3 210/6/3
f 212/6/3 195/6/3 211/6/3
f 214/2/3 207/2/3 206/2/3
f 214/3/3 208/3/3 207/3/3
f 214/3/3 209/3/3 208/3/3
f 215/2/3 210/2/3 209/2/3
f 215/3/3 209/3/3 214/3/3
f 216/6/3 212/6/3 210/6/3
f 217/11/3 213/11/3 212/11/3
f 217/6/3 212/6/3 216/6/3
f 218/10/3 201/10/3 200/10/3
f 218/11/3 202/11/3 201/11/3
f 219/5/3 203/5/3 202/5/3
f 219/11/3 202/11/3 218/11/3
f 220/11/3 204/11/3 203/11/3
f 220/5/3 203/5/3 219/5/3
f 221/2/3 214/2/3 206/2/3
f 221/2/3 215/2/3 214/2/3
f 222/2/3 210/2/3 215/2/3
f 222/2/3 215/2/3 221/2/3
f 223/6/3 216/6/3 210/6/3
f 224/11/3 217/11/3 216/11/3
f 224/6/3 216/6/3 223/6/3
f 225/5/3 219/5/3 218/5/3
f 225/10/3 218/10/3 200/10/3
f 226/11/3 220/11/3 219/11/3
f 226/5/3 219/5/3 225/5/3
f 227/11/3 204/11/3 220/11/3
f 227/11/3 220/11/3 226/11/3
f 228/6/3 223/6/3 210/6/3
f 229/11/3 224/11/3 223/11/3
f 229/6/3 223/6/3 228/6/3
f 230/10/3 225/10/3 200/10/3
f 231/11/3 226/11/3 225/11/3
f 231/10/3 225/10/3 230/10/3
f 232/5/3 227/5/3 226/5/3
f 232/11/3 226/11/3 231/11/3
f 233/11/3 204/11/3 227/11/3
f 233/5/3 227/5/3 232/5/3
f 234/1/3 206/1/3 205/1/3
f 234/11/3 204/11/3 233/11/3
f 234/1/3 205/1/3 204/1/3
f 235/1/3 206/1/3 234/1/3
f 236/2/3 221/2/3 206/2/3
f 236/3/3 222/3/3 221/3/3
f 237/2/3 210/2/3 222/2/3
f 237/3/3 222/3/3 236/3/3
f 238/12/3 233/12/3 232/12/3
f 238/12/3 232/12/3 231/12/3
f 238/12/3 235/12/3 234/12/3
f 238/12/3 234/12/3 233/12/3
f 238/12/3 231/12/3 230/12/3
f 239/12/3 235/12/3 238/12/3
f 240/12/3 235/12/3 239/12/3
f 241/12/3 235/12/3 240/12/3
f 242/12/3 235/12/3 241/12/3
f 243/1/3 206/1/3 235/1/3
f 243/12/3 235/12/3 242/12/3
f 244/2/3 236/2/3 206/2/3
f 244/2/3 237/2/3 236/2/3
f 245/2/3 210/2/3 237/2/3
f 245/2/3 237/2/3 244/2/3
f 246/11/3 229/11/3 228/11/3
f 246/6/3 228/6/3 210/6/3
f 247/11/3 224/11/3 229/11/3
f 247/11/3 229/11/3 246/11/3
f 248/10/3 239/10/3 238/10/3
f 248/11/3 240/11/3 239/11/3
f 249/5/3 241/5/3 240/5/3
f 249/11/3 240/11/3 248/11/3
f 250/11/3 242/11/3 241/11/3
f 250/5/3 241/5/3 249/5/3
f 251/5/3 249/5/3 248/5/3
f 251/10/3 248/10/3 238/10/3
f 252/11/3 250/11/3 249/11/3
f 252/5/3 249/5/3 251/5/3
f 253/11/3 242/11/3 250/11/3
f 253/11/3 250/11/3 252/11/3
f 254/2/3 244/2/3 206/2/3
f 254/3/3 245/3/3 244/3/3
f 255/2/3 210/2/3 245/2/3
f 255/3/3 245/3/3 254/3/3
f 256/11/3 224/11/3 247/11/3
f 256/6/3 247/6/3 246/6/3
f 257/11/3 217/11/3 224/11/3
f 257/11/3 224/11/3 256/11/3
f 258/2/3 254/2/3 206/2/3
f 258/2/3 255/2/3 254/2/3
f 259/2/3 210/2/3 255/2/3
f 259/2/3 255/2/3 258/2/3
f 260/11/3 217/11/3 257/11/3
f 260/6/3 257/6/3 256/6/3
f 261/11/3 213/11/3 217/11/3
f 261/11/3 217/11/3 260/11/3
f 262/6/3 261/6/3 260/6/3
f 262/11/3 213/11/3 261/11/3
f 263/11/3 213/11/3 262/11/3
f 264/10/3 251/10/3 238/10/3
f 265/11/3 252/11/3 251/11/3
f 265/10/3 251/10/3 264/10/3
f 266/5/3 253/5/3 252/5/3
f 266/11/3 252/11/3 265/11/3
f 267/11/3 242/11/3 253/11/3
f 267/5/3 253/5/3 266/5/3
f 268/1/3 243/1/3 242/1/3
f 268/11/3 242/11/3 267/11/3
f 269/1/3 206/1/3 243/1/3
f 269/1/3 243/1/3 268/1/3
f 270/2/3 258/2/3 206/2/3
f 270/1/3 206/1/3 269/1/3
f 271/3/3 259/3/3 258/3/3
f 271/2/3 258/2/3 270/2/3
f 272/3/3 259/3/3 271/3/3
f 273/2/3 210/2/3 259/2/3
f 273/3/3 259/3/3 272/3/3
f 274/6/3 256/6/3 246/6/3
f 274/2/3 210/2/3 273/2/3
f 274/6/3 260/6/3 256/6/3
f 274/6/3 246/6/3 210/6/3
f 274/6/3 262/6/3 260/6/3
f 275/6/3 262/6/3 274/6/3
f 276/12/3 273/12/3 272/12/3
f 276/12/3 275/12/3 274/12/3
f 276/12/3 274/12/3 273/12/3
f 276/11/3 270/11/3 269/11/3
f 276/11/3 272/11/3 271/11/3
f 276/11/3 271/11/3 270/11/3
f 277/12/3 275/12/3 276/12/3
f 278/12/3 275/12/3 277/12/3
f 279/6/3 262/6/3 275/6/3
f 279/12/3 275/12/3 278/12/3
f 280/11/3 276/11/3 269/11/3
f 280/11/3 277/11/3 276/11/3
f 281/12/3 278/12/3 277/12/3
f 281/11/3 277/11/3 280/11/3
f 282/6/3 279/6/3 278/6/3
f 282/12/3 278/12/3 281/12/3
f 283/6/3 262/6/3 279/6/3
f 283/6/3 279/6/3 282/6/3
f 284/11/4 285/11/4 288/11/4
f 285/12/4 286/12/4 289/12/4
f 288/11/4 285/11/4 289/11/4
f 286/6/4 287/6/4 290/6/4
f 289/12/4 286/12/4 290/12/4
f 290/6/4 287/6/4 291/6/4
f 284/11/4 288/11/4 295/11/4
f 295/11/4 288/11/4 296/11/4
f 296/11/4 288/11/4 297/11/4
f 288/12/4 289/12/4 298/12/4
f 297/11/4 288/11/4 298/11/4
f 289/12/4 290/12/4 298/12/4
f 290/12/4 291/12/4 298/12/4
f 298/12/4 291/12/4 299/12/4
f 299/12/4 291/12/4 300/12/4
f 291/6/4 287/6/4 301/6/4
f 300/12/4 291/12/4 301/12/4
f 300/6/4 301/6/4 302/6/4
f 301/6/4 287/6/4 302/6/4
f 296/2/4 297/2/4 304/2/4
f 297/3/4 298/3/4 304/3/4
f 298/3/4 299/3/4 304/3/4
f 299/2/4 300/2/4 305/2/4
f 304/3/4 299/3/4 305/3/4
f 302/11/4 303/11/4 306/11/4
f 296/2/4 304/2/4 307/2/4
f 304/2/4 305/2/4 307/2/4
f 305/2/4 300/2/4 308/2/4
f 307/2/4 305/2/4 308/2/4
f 292/10/4 293/10/4 309/10/4
f 293/11/4 294/11/4 310/11/4
f 309/10/4 293/10/4 310/10/4
f 295/1/4 296/1/4 311/1/4
f 310/11/4 294/11/4 311/11/4
f 294/1/4 295/1/4 311/1/4
f 311/1/4 296/1/4 312/1/4
f 296/2/4 307/2/4 313/2/4
f 307/3/4 308/3/4 313/3/4
f 308/2/4 300/2/4 314/2/4
f 313/3/4 308/3/4 314/3/4
f 309/12/4 310/12/4 315/12/4
f 311/12/4 312/12/4 315/12/4
f 310/12/4 311/12/4 315/12/4
f 315/12/4 312/12/4 316/12/4
f 316/12/4 312/12/4 317/12/4
f 312/1/4 296/1/4 318/1/4
f 317/12/4 312/12/4 318/12/4
f 313/2/4 314/2/4 319/2/4
f 296/2/4 313/2/4 319/2/4
f 314/2/4 300/2/4 320/2/4
f 319/2/4 314/2/4 320/2/4
f 296/2/4 319/2/4 321/2/4
f 319/3/4 320/3/4 321/3/4
f 320/2/4 300/2/4 322/2/4
f 321/3/4 320/3/4 322/3/4
f 296/2/4 321/2/4 323/2/4
f 321/2/4 322/2/4 323/2/4
f 322/2/4 300/2/4 324/2/4
f 323/2/4 322/2/4 324/2/4
f 302/11/4 306/11/4 325/11/4
f 300/6/4 302/6/4 326/6/4
f 302/11/4 325/11/4 326/11/4
f 326/11/4 325/11/4 327/11/4
f 315/10/4 316/10/4 328/10/4
f 316/11/4 317/11/4 329/11/4
f 328/10/4 316/10/4 329/10/4
f 317/1/4 318/1/4 330/1/4
f 329/11/4 317/11/4 330/11/4
f 318/1/4 296/1/4 331/1/4
f 330/1/4 318/1/4 331/1/4
f 296/2/4 323/2/4 332/2/4
f 331/1/4 296/1/4 332/1/4
f 323/3/4 324/3/4 333/3/4
f 332/2/4 323/2/4 333/2/4
f 333/3/4 324/3/4 334/3/4
f 324/2/4 300/2/4 335/2/4
f 334/3/4 324/3/4 335/3/4
f 300/6/4 326/6/4 336/6/4
f 335/2/4 300/2/4 336/2/4
f 336/6/4 326/6/4 337/6/4
f 336/12/4 337/12/4 338/12/4
f 335/12/4 336/12/4 338/12/4
f 332/11/4 333/11/4 338/11/4
f 334/12/4 335/12/4 338/12/4
f 331/11/4 332/11/4 338/11/4
f 333/11/4 334/11/4 338/11/4
f 338/12/4 337/12/4 339/12/4
f 339/12/4 337/12/4 340/12/4
f 337/6/4 326/6/4 341/6/4
f 340/12/4 337/12/4 341/12/4
f 331/11/4 338/11/4 342/11/4
f 338/11/4 339/11/4 342/11/4
f 339/12/4 340/12/4 343/12/4
f 342/11/4 339/11/4 343/11/4
f 340/6/4 341/6/4 344/6/4
f 343/12/4 340/12/4 344/12/4
f 341/6/4 326/6/4 345/6/4
f 344/6/4 341/6/4 345/6/4
f 346/7/4 347/7/4 348/7/4
f 348/7/4 347/7/4 349/7/4
f 346/7/4 348/7/4 350/7/4
f 348/11/4 349/11/4 350/11/4
f 350/11/4 349/11/4 351/11/4
f 346/7/4 350/7/4 352/7/4
f 350/7/4 351/7/4 352/7/4
f 352/7/4 351/7/4 353/7/4
f 358/10/5 355/10/5 354/10/5
f 358/12/5 356/12/5 355/12/5
f 359/10/5 357/10/5 356/10/5
f 359/12/5 356/12/5 358/12/5
f 360/10/5 358/10/5 354/10/5
f 360/7/5 359/7/5 358/7/5
f 361/10/5 357/10/5 359/10/5
f 361/7/5 359/7/5 360/7/5
f 362/10/5 360/10/5 354/10/5
f 363/12/5 361/12/5 360/12/5
f 363/10/5 360/10/5 362/10/5
f 364/10/5 357/10/5 361/10/5
f 364/12/5 361/12/5 363/12/5
f 365/10/5 357/10/5 364/10/5
f 370/11/5 367/11/5 366/11/5
f 371/11/5 367/11/5 370/11/5
f 372/11/5 369/11/5 368/11/5
f 373/11/5 369/11/5 372/11/5
f 376/10/5 375/10/5 374/10/5
f 377/10/5 375/10/5 376/10/5
f 382/7/5 379/7/5 378/7/5
f 382/9/5 380/9/5 379/9/5
f 383/7/5 381/7/5 380/7/5
f 383/9/5 380/9/5 382/9/5
f 384/7/5 382/7/5 378/7/5
f 384/7/5 383/7/5 382/7/5
f 385/7/5 381/7/5 383/7/5
f 385/7/5 383/7/5 384/7/5
f 386/6/6 387/6/6 390/6/6
f 390/6/6 387/6/6 391/6/6
f 388/6/6 389/6/6 392/6/6
f 392/6/6 389/6/6 393/6/6
f 394/11/6 395/11/6 396/11/6
f 396/11/6 395/11/6 397/11/6
f 397/11/6 395/11/6 398/11/6
f 398/11/6 395/11/6 399/11/6
f 396/7/6 397/7/6 400/7/6
f 397/11/6 398/11/6 401/11/6
f 400/7/6 397/7/6 401/7/6
f 398/7/6 399/7/6 402/7/6
f 401/11/6 398/11/6 402/11/6
f 402/7/6 399/7/6 403/7/6
