# MagicaVoxel @ Ephtracy

# group
o 

# material
mtllib ozisan.mtl
usemtl palette

# normals
vn -1 0 0
vn 1 0 0
vn 0 0 1
vn 0 0 -1
vn 0 -1 0
vn 0 1 0

# texcoords
vt 0.876953 0.5
vt 0.908203 0.5
vt 0.919922 0.5
vt 0.927734 0.5
vt 0.931641 0.5
vt 0.935547 0.5
vt 0.939453 0.5
vt 0.943359 0.5
vt 0.951172 0.5
vt 0.958984 0.5
vt 0.962891 0.5
vt 0.970703 0.5
vt 0.974609 0.5
vt 0.978516 0.5
vt 0.990234 0.5

# verts
v 2.1 5.2 -3.6
v 2.1 5.2 -4.5
v 2.1 6.8 -3.6
v 2.1 6.8 -4.5
v 2.1 6.9 -3.6
v 2.1 6.9 -4.5
v 2.1 7.7 -3.6
v 2.1 7.7 -4.5
v 2.7 2 -3.6
v 2.7 2 -4.5
v 2.7 2.1 -3.6
v 2.7 2.1 -4.1
v 2.7 2.1 -4.2
v 2.7 2.1 -4.5
v 2.7 2.2 -3.6
v 2.7 2.2 -4.1
v 2.7 2.2 -4.2
v 2.7 2.3 -3.6
v 2.7 2.3 -4.1
v 2.7 2.6 -3.6
v 2.7 2.6 -4.5
v 2.7 5.2 -3.6
v 2.7 5.2 -4.5
v 2.9 7.7 -3.6
v 2.9 7.7 -4.5
v 2.9 7.8 -3.5
v 2.9 7.8 -3.6
v 2.9 7.8 -3.7
v 2.9 7.8 -4.1
v 2.9 7.8 -4.2
v 2.9 7.8 -4.5
v 2.9 7.8 -4.7
v 2.9 7.9 -3.5
v 2.9 7.9 -3.7
v 2.9 7.9 -3.8
v 2.9 7.9 -4
v 2.9 7.9 -4.1
v 2.9 7.9 -4.2
v 2.9 8 -3.9
v 2.9 8 -4
v 2.9 8 -4.1
v 2.9 8.1 -3.7
v 2.9 8.1 -3.8
v 2.9 8.1 -3.9
v 2.9 8.1 -4
v 2.9 8.2 -3.6
v 2.9 8.2 -3.7
v 2.9 8.2 -3.8
v 2.9 8.2 -3.9
v 2.9 8.2 -4
v 2.9 8.4 -3.6
v 2.9 8.4 -3.7
v 2.9 8.4 -3.9
v 2.9 8.4 -4
v 2.9 8.5 -3.5
v 2.9 8.5 -3.6
v 2.9 8.5 -3.7
v 2.9 8.5 -3.9
v 2.9 8.9 -3.5
v 2.9 8.9 -3.6
v 2.9 9 -3.5
v 2.9 9 -3.6
v 2.9 9 -4.7
v 4 7.7 -3.6
v 4 7.7 -4.5
v 4 7.8 -3.5
v 4 7.8 -3.6
v 4 7.8 -3.7
v 4 7.8 -4.1
v 4 7.8 -4.2
v 4 7.8 -4.5
v 4 7.8 -4.7
v 4 7.9 -3.5
v 4 7.9 -3.7
v 4 7.9 -3.8
v 4 7.9 -4.1
v 4 7.9 -4.2
v 4 8 -3.9
v 4 8 -4
v 4 8 -4.1
v 4 8.1 -3.7
v 4 8.1 -3.8
v 4 8.1 -3.9
v 4 8.1 -4
v 4 8.2 -3.6
v 4 8.2 -3.7
v 4 8.2 -3.8
v 4 8.2 -3.9
v 4 8.2 -4
v 4 8.4 -3.6
v 4 8.4 -3.7
v 4 8.4 -3.9
v 4 8.4 -4
v 4 8.5 -3.5
v 4 8.5 -3.6
v 4 8.5 -3.7
v 4 8.5 -3.9
v 4 8.9 -3.5
v 4 8.9 -3.6
v 4 9 -3.5
v 4 9 -3.6
v 4 9 -4.7
v 4.2 2 -3.6
v 4.2 2 -4.5
v 4.2 2.1 -3.6
v 4.2 2.1 -4.1
v 4.2 2.1 -4.2
v 4.2 2.1 -4.5
v 4.2 2.2 -3.6
v 4.2 2.2 -4.1
v 4.2 2.2 -4.2
v 4.2 2.3 -3.6
v 4.2 2.3 -4.1
v 4.2 2.6 -3.6
v 4.2 2.6 -4.5
v 4.2 5.2 -3.6
v 4.2 5.2 -4.5
v 4.8 5.2 -3.6
v 4.8 5.2 -4.5
v 4.8 6.8 -3.6
v 4.8 6.8 -4.5
v 4.8 6.9 -3.6
v 4.8 6.9 -4.5
v 4.8 7.7 -3.6
v 4.8 7.7 -4.5
v 2.9 7.8 -3.5
v 2.9 7.9 -3.5
v 2.9 8.5 -3.5
v 2.9 8.9 -3.5
v 2.9 9 -3.5
v 3 7.9 -3.5
v 3 8.1 -3.5
v 3 8.3 -3.5
v 3 8.4 -3.5
v 3 8.5 -3.5
v 3 8.9 -3.5
v 3.1 7.9 -3.5
v 3.1 8.1 -3.5
v 3.1 8.2 -3.5
v 3.1 8.3 -3.5
v 3.1 8.4 -3.5
v 3.1 8.5 -3.5
v 3.1 8.6 -3.5
v 3.1 8.7 -3.5
v 3.2 8.1 -3.5
v 3.2 8.2 -3.5
v 3.2 8.6 -3.5
v 3.2 8.7 -3.5
v 3.2 8.8 -3.5
v 3.3 8 -3.5
v 3.3 8.1 -3.5
v 3.3 8.6 -3.5
v 3.3 8.7 -3.5
v 3.3 8.8 -3.5
v 3.4 8.4 -3.5
v 3.4 8.5 -3.5
v 3.4 8.6 -3.5
v 3.4 8.7 -3.5
v 3.5 8.4 -3.5
v 3.5 8.5 -3.5
v 3.5 8.6 -3.5
v 3.5 8.7 -3.5
v 3.6 8 -3.5
v 3.6 8.1 -3.5
v 3.6 8.6 -3.5
v 3.6 8.7 -3.5
v 3.6 8.8 -3.5
v 3.7 8.1 -3.5
v 3.7 8.2 -3.5
v 3.7 8.6 -3.5
v 3.7 8.7 -3.5
v 3.7 8.8 -3.5
v 3.8 7.9 -3.5
v 3.8 8.1 -3.5
v 3.8 8.2 -3.5
v 3.8 8.3 -3.5
v 3.8 8.4 -3.5
v 3.8 8.5 -3.5
v 3.8 8.6 -3.5
v 3.8 8.7 -3.5
v 3.9 7.9 -3.5
v 3.9 8.1 -3.5
v 3.9 8.3 -3.5
v 3.9 8.4 -3.5
v 3.9 8.5 -3.5
v 3.9 8.9 -3.5
v 4 7.8 -3.5
v 4 7.9 -3.5
v 4 8.5 -3.5
v 4 8.9 -3.5
v 4 9 -3.5
v 2.1 5.2 -3.6
v 2.1 6.8 -3.6
v 2.1 6.9 -3.6
v 2.1 7.7 -3.6
v 2.6 5.6 -3.6
v 2.6 6.8 -3.6
v 2.6 6.9 -3.6
v 2.6 7.2 -3.6
v 2.7 2 -3.6
v 2.7 2.1 -3.6
v 2.7 2.2 -3.6
v 2.7 2.3 -3.6
v 2.7 2.6 -3.6
v 2.7 5.2 -3.6
v 2.7 5.3 -3.6
v 2.7 5.4 -3.6
v 2.7 5.6 -3.6
v 2.7 6.1 -3.6
v 2.7 6.2 -3.6
v 2.7 7.2 -3.6
v 2.9 7.7 -3.6
v 2.9 7.8 -3.6
v 3 5.4 -3.6
v 3 6.1 -3.6
v 3 7.6 -3.6
v 3 7.7 -3.6
v 3.1 2.1 -3.6
v 3.1 2.2 -3.6
v 3.1 2.3 -3.6
v 3.1 5.4 -3.6
v 3.1 6.1 -3.6
v 3.1 7.5 -3.6
v 3.1 7.6 -3.6
v 3.2 2.1 -3.6
v 3.2 2.2 -3.6
v 3.2 2.3 -3.6
v 3.3 7.4 -3.6
v 3.3 7.5 -3.6
v 3.4 2 -3.6
v 3.4 2.1 -3.6
v 3.4 2.2 -3.6
v 3.4 2.3 -3.6
v 3.4 2.6 -3.6
v 3.4 4.5 -3.6
v 3.4 5.4 -3.6
v 3.4 6.1 -3.6
v 3.5 2 -3.6
v 3.5 2.1 -3.6
v 3.5 2.2 -3.6
v 3.5 2.3 -3.6
v 3.5 2.6 -3.6
v 3.5 4.5 -3.6
v 3.5 5.4 -3.6
v 3.5 6.1 -3.6
v 3.6 7.4 -3.6
v 3.6 7.5 -3.6
v 3.7 2.1 -3.6
v 3.7 2.2 -3.6
v 3.7 2.3 -3.6
v 3.8 2.1 -3.6
v 3.8 2.2 -3.6
v 3.8 2.3 -3.6
v 3.8 5.4 -3.6
v 3.8 6.1 -3.6
v 3.8 7.5 -3.6
v 3.8 7.6 -3.6
v 3.9 5.4 -3.6
v 3.9 6.1 -3.6
v 3.9 7.6 -3.6
v 3.9 7.7 -3.6
v 4 7.7 -3.6
v 4 7.8 -3.6
v 4.2 2 -3.6
v 4.2 2.1 -3.6
v 4.2 2.2 -3.6
v 4.2 2.3 -3.6
v 4.2 2.6 -3.6
v 4.2 5.2 -3.6
v 4.2 5.3 -3.6
v 4.2 5.4 -3.6
v 4.2 5.6 -3.6
v 4.2 6.1 -3.6
v 4.2 6.2 -3.6
v 4.2 7.2 -3.6
v 4.3 5.6 -3.6
v 4.3 6.8 -3.6
v 4.3 6.9 -3.6
v 4.3 7.2 -3.6
v 4.8 5.2 -3.6
v 4.8 6.8 -3.6
v 4.8 6.9 -3.6
v 4.8 7.7 -3.6
v 2.1 5.2 -4.5
v 2.1 6.8 -4.5
v 2.1 6.9 -4.5
v 2.1 7.7 -4.5
v 2.6 5.6 -4.5
v 2.6 6.8 -4.5
v 2.6 6.9 -4.5
v 2.6 7.2 -4.5
v 2.7 2 -4.5
v 2.7 2.1 -4.5
v 2.7 2.6 -4.5
v 2.7 5.2 -4.5
v 2.7 5.3 -4.5
v 2.7 5.4 -4.5
v 2.7 5.6 -4.5
v 2.7 6.1 -4.5
v 2.7 6.2 -4.5
v 2.7 7.2 -4.5
v 2.9 7.7 -4.5
v 2.9 7.8 -4.5
v 3 5.4 -4.5
v 3 6.1 -4.5
v 3 7.8 -4.5
v 3.1 5.4 -4.5
v 3.1 6.1 -4.5
v 3.4 2 -4.5
v 3.4 2.1 -4.5
v 3.4 2.6 -4.5
v 3.4 4.5 -4.5
v 3.4 5.4 -4.5
v 3.4 6.1 -4.5
v 3.5 2 -4.5
v 3.5 2.1 -4.5
v 3.5 2.6 -4.5
v 3.5 4.5 -4.5
v 3.5 5.4 -4.5
v 3.5 6.1 -4.5
v 3.8 5.4 -4.5
v 3.8 6.1 -4.5
v 3.9 5.4 -4.5
v 3.9 6.1 -4.5
v 3.9 7.8 -4.5
v 4 7.7 -4.5
v 4 7.8 -4.5
v 4.2 2 -4.5
v 4.2 2.1 -4.5
v 4.2 2.6 -4.5
v 4.2 5.2 -4.5
v 4.2 5.3 -4.5
v 4.2 5.4 -4.5
v 4.2 5.6 -4.5
v 4.2 6.1 -4.5
v 4.2 6.2 -4.5
v 4.2 7.2 -4.5
v 4.3 5.6 -4.5
v 4.3 6.8 -4.5
v 4.3 6.9 -4.5
v 4.3 7.2 -4.5
v 4.8 5.2 -4.5
v 4.8 6.8 -4.5
v 4.8 6.9 -4.5
v 4.8 7.7 -4.5
v 2.9 7.8 -4.7
v 2.9 9 -4.7
v 3 8.9 -4.7
v 3 9 -4.7
v 3.2 7.9 -4.7
v 3.2 8.1 -4.7
v 3.3 8 -4.7
v 3.3 8.1 -4.7
v 3.6 8 -4.7
v 3.6 8.1 -4.7
v 3.7 7.9 -4.7
v 3.7 8.1 -4.7
v 3.9 8.9 -4.7
v 3.9 9 -4.7
v 4 7.8 -4.7
v 4 9 -4.7
v 2.7 2 -3.6
v 3.4 2 -3.6
v 3.5 2 -3.6
v 4.2 2 -3.6
v 3.4 2 -3.7
v 3.5 2 -3.7
v 3.4 2 -4.4
v 3.5 2 -4.4
v 2.7 2 -4.5
v 3.4 2 -4.5
v 3.5 2 -4.5
v 4.2 2 -4.5
v 2.1 5.2 -3.6
v 2.7 5.2 -3.6
v 4.2 5.2 -3.6
v 4.8 5.2 -3.6
v 2.1 5.2 -4.5
v 2.7 5.2 -4.5
v 4.2 5.2 -4.5
v 4.8 5.2 -4.5
v 2.9 7.8 -3.5
v 4 7.8 -3.5
v 2.9 7.8 -3.6
v 4 7.8 -3.6
v 2.9 7.8 -4.5
v 3 7.8 -4.5
v 3.9 7.8 -4.5
v 4 7.8 -4.5
v 3 7.8 -4.6
v 3.9 7.8 -4.6
v 2.9 7.8 -4.7
v 4 7.8 -4.7
v 2.1 7.7 -3.6
v 2.9 7.7 -3.6
v 4 7.7 -3.6
v 4.8 7.7 -3.6
v 2.1 7.7 -4.5
v 2.9 7.7 -4.5
v 4 7.7 -4.5
v 4.8 7.7 -4.5
v 2.9 9 -3.5
v 4 9 -3.5
v 2.9 9 -3.6
v 3 9 -3.6
v 3.9 9 -3.6
v 4 9 -3.6
v 2.9 9 -4.7
v 3 9 -4.7
v 3.9 9 -4.7
v 4 9 -4.7

# faces
f 3/12/1 2/12/1 1/12/1
f 4/12/1 2/12/1 3/12/1
f 5/13/1 4/13/1 3/13/1
f 6/13/1 4/13/1 5/13/1
f 7/7/1 6/7/1 5/7/1
f 8/7/1 6/7/1 7/7/1
f 11/11/1 10/11/1 9/11/1
f 12/11/1 10/11/1 11/11/1
f 13/11/1 10/11/1 12/11/1
f 14/11/1 10/11/1 13/11/1
f 15/12/1 12/12/1 11/12/1
f 16/6/1 13/6/1 12/6/1
f 16/12/1 12/12/1 15/12/1
f 17/12/1 14/12/1 13/12/1
f 17/6/1 13/6/1 16/6/1
f 18/6/1 16/6/1 15/6/1
f 19/12/1 17/12/1 16/12/1
f 19/6/1 16/6/1 18/6/1
f 20/12/1 19/12/1 18/12/1
f 21/12/1 14/12/1 17/12/1
f 21/12/1 19/12/1 20/12/1
f 21/12/1 17/12/1 19/12/1
f 22/2/1 21/2/1 20/2/1
f 23/2/1 21/2/1 22/2/1
f 27/12/1 25/12/1 24/12/1
f 28/12/1 25/12/1 27/12/1
f 29/12/1 25/12/1 28/12/1
f 30/12/1 25/12/1 29/12/1
f 31/12/1 25/12/1 30/12/1
f 33/11/1 27/11/1 26/11/1
f 33/11/1 28/11/1 27/11/1
f 34/12/1 29/12/1 28/12/1
f 34/11/1 28/11/1 33/11/1
f 35/12/1 29/12/1 34/12/1
f 36/12/1 29/12/1 35/12/1
f 37/11/1 30/11/1 29/11/1
f 37/12/1 29/12/1 36/12/1
f 38/1/1 32/1/1 31/1/1
f 38/11/1 30/11/1 37/11/1
f 38/1/1 31/1/1 30/1/1
f 39/12/1 36/12/1 35/12/1
f 40/11/1 37/11/1 36/11/1
f 40/12/1 36/12/1 39/12/1
f 41/1/1 38/1/1 37/1/1
f 41/11/1 37/11/1 40/11/1
f 42/11/1 35/11/1 34/11/1
f 42/12/1 34/12/1 33/12/1
f 43/12/1 39/12/1 35/12/1
f 43/11/1 35/11/1 42/11/1
f 44/11/1 40/11/1 39/11/1
f 44/12/1 39/12/1 43/12/1
f 45/1/1 41/1/1 40/1/1
f 45/11/1 40/11/1 44/11/1
f 46/12/1 42/12/1 33/12/1
f 46/12/1 43/12/1 42/12/1
f 47/12/1 43/12/1 46/12/1
f 48/11/1 44/11/1 43/11/1
f 48/12/1 43/12/1 47/12/1
f 49/1/1 45/1/1 44/1/1
f 49/11/1 44/11/1 48/11/1
f 50/1/1 41/1/1 45/1/1
f 50/1/1 45/1/1 49/1/1
f 51/11/1 47/11/1 46/11/1
f 51/12/1 46/12/1 33/12/1
f 52/12/1 49/12/1 48/12/1
f 52/11/1 47/11/1 51/11/1
f 52/12/1 48/12/1 47/12/1
f 53/11/1 50/11/1 49/11/1
f 53/12/1 49/12/1 52/12/1
f 54/1/1 41/1/1 50/1/1
f 54/11/1 50/11/1 53/11/1
f 55/12/1 51/12/1 33/12/1
f 56/1/1 52/1/1 51/1/1
f 56/12/1 51/12/1 55/12/1
f 57/11/1 53/11/1 52/11/1
f 57/1/1 52/1/1 56/1/1
f 58/1/1 54/1/1 53/1/1
f 58/11/1 53/11/1 57/11/1
f 59/1/1 56/1/1 55/1/1
f 59/1/1 57/1/1 56/1/1
f 59/1/1 58/1/1 57/1/1
f 60/1/1 58/1/1 59/1/1
f 61/12/1 60/12/1 59/12/1
f 62/1/1 58/1/1 60/1/1
f 62/12/1 60/12/1 61/12/1
f 63/1/1 41/1/1 54/1/1
f 63/1/1 58/1/1 62/1/1
f 63/1/1 38/1/1 41/1/1
f 63/1/1 32/1/1 38/1/1
f 63/1/1 54/1/1 58/1/1
f 64/12/2 65/12/2 67/12/2
f 67/12/2 65/12/2 68/12/2
f 68/12/2 65/12/2 69/12/2
f 69/12/2 65/12/2 70/12/2
f 70/12/2 65/12/2 71/12/2
f 66/11/2 67/11/2 73/11/2
f 67/11/2 68/11/2 73/11/2
f 68/12/2 69/12/2 74/12/2
f 73/11/2 68/11/2 74/11/2
f 74/12/2 69/12/2 75/12/2
f 69/11/2 70/11/2 76/11/2
f 75/12/2 69/12/2 76/12/2
f 71/1/2 72/1/2 77/1/2
f 76/11/2 70/11/2 77/11/2
f 70/1/2 71/1/2 77/1/2
f 75/12/2 76/12/2 78/12/2
f 78/12/2 76/12/2 79/12/2
f 76/1/2 77/1/2 80/1/2
f 79/12/2 76/12/2 80/12/2
f 73/12/2 74/12/2 81/12/2
f 74/11/2 75/11/2 81/11/2
f 75/12/2 78/12/2 82/12/2
f 81/11/2 75/11/2 82/11/2
f 78/11/2 79/11/2 83/11/2
f 82/12/2 78/12/2 83/12/2
f 79/1/2 80/1/2 84/1/2
f 83/11/2 79/11/2 84/11/2
f 81/12/2 82/12/2 85/12/2
f 73/12/2 81/12/2 85/12/2
f 85/12/2 82/12/2 86/12/2
f 82/11/2 83/11/2 87/11/2
f 86/12/2 82/12/2 87/12/2
f 83/1/2 84/1/2 88/1/2
f 87/11/2 83/11/2 88/11/2
f 84/1/2 80/1/2 89/1/2
f 88/1/2 84/1/2 89/1/2
f 85/11/2 86/11/2 90/11/2
f 73/12/2 85/12/2 90/12/2
f 87/12/2 88/12/2 91/12/2
f 90/11/2 86/11/2 91/11/2
f 86/12/2 87/12/2 91/12/2
f 88/11/2 89/11/2 92/11/2
f 91/12/2 88/12/2 92/12/2
f 89/1/2 80/1/2 93/1/2
f 92/11/2 89/11/2 93/11/2
f 73/12/2 90/12/2 94/12/2
f 90/1/2 91/1/2 95/1/2
f 94/12/2 90/12/2 95/12/2
f 91/11/2 92/11/2 96/11/2
f 95/1/2 91/1/2 96/1/2
f 92/1/2 93/1/2 97/1/2
f 96/11/2 92/11/2 97/11/2
f 94/1/2 95/1/2 98/1/2
f 95/1/2 96/1/2 98/1/2
f 96/1/2 97/1/2 98/1/2
f 98/1/2 97/1/2 99/1/2
f 98/12/2 99/12/2 100/12/2
f 99/1/2 97/1/2 101/1/2
f 100/12/2 99/12/2 101/12/2
f 77/1/2 72/1/2 102/1/2
f 101/1/2 97/1/2 102/1/2
f 80/1/2 77/1/2 102/1/2
f 97/1/2 93/1/2 102/1/2
f 93/1/2 80/1/2 102/1/2
f 103/11/2 104/11/2 105/11/2
f 105/11/2 104/11/2 106/11/2
f 106/11/2 104/11/2 107/11/2
f 107/11/2 104/11/2 108/11/2
f 105/12/2 106/12/2 109/12/2
f 106/6/2 107/6/2 110/6/2
f 109/12/2 106/12/2 110/12/2
f 107/12/2 108/12/2 111/12/2
f 110/6/2 107/6/2 111/6/2
f 109/6/2 110/6/2 112/6/2
f 110/12/2 111/12/2 113/12/2
f 112/6/2 110/6/2 113/6/2
f 112/12/2 113/12/2 114/12/2
f 111/12/2 108/12/2 115/12/2
f 114/12/2 113/12/2 115/12/2
f 113/12/2 111/12/2 115/12/2
f 114/2/2 115/2/2 116/2/2
f 116/2/2 115/2/2 117/2/2
f 118/12/2 119/12/2 120/12/2
f 120/12/2 119/12/2 121/12/2
f 120/13/2 121/13/2 122/13/2
f 122/13/2 121/13/2 123/13/2
f 122/7/2 123/7/2 124/7/2
f 124/7/2 123/7/2 125/7/2
f 131/11/3 127/11/3 126/11/3
f 131/12/3 128/12/3 127/12/3
f 132/12/3 128/12/3 131/12/3
f 133/12/3 128/12/3 132/12/3
f 134/12/3 128/12/3 133/12/3
f 135/1/3 129/1/3 128/1/3
f 135/12/3 128/12/3 134/12/3
f 136/12/3 130/12/3 129/12/3
f 136/1/3 129/1/3 135/1/3
f 137/11/3 131/11/3 126/11/3
f 137/5/3 132/5/3 131/5/3
f 138/12/3 133/12/3 132/12/3
f 138/5/3 132/5/3 137/5/3
f 139/12/3 133/12/3 138/12/3
f 140/5/3 134/5/3 133/5/3
f 140/12/3 133/12/3 139/12/3
f 141/12/3 135/12/3 134/12/3
f 141/5/3 134/5/3 140/5/3
f 141/12/3 136/12/3 135/12/3
f 142/12/3 136/12/3 141/12/3
f 143/12/3 136/12/3 142/12/3
f 144/12/3 136/12/3 143/12/3
f 145/5/3 139/5/3 138/5/3
f 145/12/3 138/12/3 137/12/3
f 146/12/3 140/12/3 139/12/3
f 146/5/3 139/5/3 145/5/3
f 146/12/3 141/12/3 140/12/3
f 147/1/3 144/1/3 143/1/3
f 147/12/3 143/12/3 142/12/3
f 148/12/3 136/12/3 144/12/3
f 148/1/3 144/1/3 147/1/3
f 149/12/3 136/12/3 148/12/3
f 150/12/3 145/12/3 137/12/3
f 150/12/3 146/12/3 145/12/3
f 151/12/3 146/12/3 150/12/3
f 152/12/3 147/12/3 142/12/3
f 152/12/3 148/12/3 147/12/3
f 153/1/3 149/1/3 148/1/3
f 153/12/3 148/12/3 152/12/3
f 154/12/3 136/12/3 149/12/3
f 154/1/3 149/1/3 153/1/3
f 155/12/3 146/12/3 151/12/3
f 155/12/3 141/12/3 146/12/3
f 155/8/3 142/8/3 141/8/3
f 156/12/3 152/12/3 142/12/3
f 156/8/3 142/8/3 155/8/3
f 157/1/3 153/1/3 152/1/3
f 157/12/3 152/12/3 156/12/3
f 158/12/3 154/12/3 153/12/3
f 158/1/3 153/1/3 157/1/3
f 159/12/3 156/12/3 155/12/3
f 159/12/3 157/12/3 156/12/3
f 159/12/3 158/12/3 157/12/3
f 159/12/3 155/12/3 151/12/3
f 160/12/3 158/12/3 159/12/3
f 161/12/3 158/12/3 160/12/3
f 162/12/3 154/12/3 158/12/3
f 162/12/3 158/12/3 161/12/3
f 163/9/3 151/9/3 150/9/3
f 163/12/3 150/12/3 137/12/3
f 164/12/3 159/12/3 151/12/3
f 164/9/3 151/9/3 163/9/3
f 165/12/3 161/12/3 160/12/3
f 165/1/3 162/1/3 161/1/3
f 166/12/3 154/12/3 162/12/3
f 166/1/3 162/1/3 165/1/3
f 167/12/3 136/12/3 154/12/3
f 167/12/3 154/12/3 166/12/3
f 168/12/3 159/12/3 164/12/3
f 168/12/3 164/12/3 163/12/3
f 169/12/3 159/12/3 168/12/3
f 170/12/3 166/12/3 165/12/3
f 170/12/3 165/12/3 160/12/3
f 171/1/3 167/1/3 166/1/3
f 171/12/3 166/12/3 170/12/3
f 172/12/3 136/12/3 167/12/3
f 172/1/3 167/1/3 171/1/3
f 173/11/3 137/11/3 126/11/3
f 173/12/3 163/12/3 137/12/3
f 173/12/3 168/12/3 163/12/3
f 174/5/3 169/5/3 168/5/3
f 174/12/3 168/12/3 173/12/3
f 175/12/3 159/12/3 169/12/3
f 175/5/3 169/5/3 174/5/3
f 176/12/3 159/12/3 175/12/3
f 177/8/3 160/8/3 159/8/3
f 177/12/3 159/12/3 176/12/3
f 178/12/3 170/12/3 160/12/3
f 178/8/3 160/8/3 177/8/3
f 179/1/3 171/1/3 170/1/3
f 179/12/3 170/12/3 178/12/3
f 180/12/3 172/12/3 171/12/3
f 180/1/3 171/1/3 179/1/3
f 181/5/3 174/5/3 173/5/3
f 181/11/3 173/11/3 126/11/3
f 182/12/3 176/12/3 175/12/3
f 182/5/3 174/5/3 181/5/3
f 182/12/3 175/12/3 174/12/3
f 183/5/3 177/5/3 176/5/3
f 183/12/3 176/12/3 182/12/3
f 184/12/3 178/12/3 177/12/3
f 184/5/3 177/5/3 183/5/3
f 184/12/3 180/12/3 179/12/3
f 184/12/3 179/12/3 178/12/3
f 185/12/3 180/12/3 184/12/3
f 186/12/3 172/12/3 180/12/3
f 186/12/3 180/12/3 185/12/3
f 186/12/3 130/12/3 136/12/3
f 186/12/3 136/12/3 172/12/3
f 187/11/3 181/11/3 126/11/3
f 188/12/3 183/12/3 182/12/3
f 188/11/3 181/11/3 187/11/3
f 188/12/3 185/12/3 184/12/3
f 188/12/3 184/12/3 183/12/3
f 188/12/3 182/12/3 181/12/3
f 189/1/3 186/1/3 185/1/3
f 189/12/3 185/12/3 188/12/3
f 190/12/3 130/12/3 186/12/3
f 190/1/3 186/1/3 189/1/3
f 191/12/3 130/12/3 190/12/3
f 196/12/3 193/12/3 192/12/3
f 197/13/3 194/13/3 193/13/3
f 197/12/3 193/12/3 196/12/3
f 198/7/3 195/7/3 194/7/3
f 198/13/3 194/13/3 197/13/3
f 199/7/3 195/7/3 198/7/3
f 205/12/3 196/12/3 192/12/3
f 206/12/3 196/12/3 205/12/3
f 207/12/3 196/12/3 206/12/3
f 208/13/3 197/13/3 196/13/3
f 208/12/3 196/12/3 207/12/3
f 208/13/3 198/13/3 197/13/3
f 208/13/3 199/13/3 198/13/3
f 209/13/3 199/13/3 208/13/3
f 210/13/3 199/13/3 209/13/3
f 211/7/3 195/7/3 199/7/3
f 211/13/3 199/13/3 210/13/3
f 212/7/3 211/7/3 210/7/3
f 212/7/3 195/7/3 211/7/3
f 214/3/3 207/3/3 206/3/3
f 214/4/3 208/4/3 207/4/3
f 214/4/3 209/4/3 208/4/3
f 215/3/3 210/3/3 209/3/3
f 215/4/3 209/4/3 214/4/3
f 216/7/3 212/7/3 210/7/3
f 217/12/3 213/12/3 212/12/3
f 217/7/3 212/7/3 216/7/3
f 218/11/3 201/11/3 200/11/3
f 218/12/3 202/12/3 201/12/3
f 219/6/3 203/6/3 202/6/3
f 219/12/3 202/12/3 218/12/3
f 220/12/3 204/12/3 203/12/3
f 220/6/3 203/6/3 219/6/3
f 221/3/3 214/3/3 206/3/3
f 221/3/3 215/3/3 214/3/3
f 222/3/3 210/3/3 215/3/3
f 222/3/3 215/3/3 221/3/3
f 223/7/3 216/7/3 210/7/3
f 224/12/3 217/12/3 216/12/3
f 224/7/3 216/7/3 223/7/3
f 225/6/3 219/6/3 218/6/3
f 225/11/3 218/11/3 200/11/3
f 226/12/3 220/12/3 219/12/3
f 226/6/3 219/6/3 225/6/3
f 227/12/3 204/12/3 220/12/3
f 227/12/3 220/12/3 226/12/3
f 228/7/3 223/7/3 210/7/3
f 229/12/3 224/12/3 223/12/3
f 229/7/3 223/7/3 228/7/3
f 230/11/3 225/11/3 200/11/3
f 231/12/3 226/12/3 225/12/3
f 231/11/3 225/11/3 230/11/3
f 232/6/3 227/6/3 226/6/3
f 232/12/3 226/12/3 231/12/3
f 233/12/3 204/12/3 227/12/3
f 233/6/3 227/6/3 232/6/3
f 234/2/3 206/2/3 205/2/3
f 234/12/3 204/12/3 233/12/3
f 234/2/3 205/2/3 204/2/3
f 235/2/3 206/2/3 234/2/3
f 236/3/3 221/3/3 206/3/3
f 236/4/3 222/4/3 221/4/3
f 237/3/3 210/3/3 222/3/3
f 237/4/3 222/4/3 236/4/3
f 238/13/3 233/13/3 232/13/3
f 238/13/3 232/13/3 231/13/3
f 238/13/3 235/13/3 234/13/3
f 238/13/3 234/13/3 233/13/3
f 238/13/3 231/13/3 230/13/3
f 239/13/3 235/13/3 238/13/3
f 240/13/3 235/13/3 239/13/3
f 241/13/3 235/13/3 240/13/3
f 242/13/3 235/13/3 241/13/3
f 243/2/3 206/2/3 235/2/3
f 243/13/3 235/13/3 242/13/3
f 244/3/3 236/3/3 206/3/3
f 244/3/3 237/3/3 236/3/3
f 245/3/3 210/3/3 237/3/3
f 245/3/3 237/3/3 244/3/3
f 246/12/3 229/12/3 228/12/3
f 246/7/3 228/7/3 210/7/3
f 247/12/3 224/12/3 229/12/3
f 247/12/3 229/12/3 246/12/3
f 248/11/3 239/11/3 238/11/3
f 248/12/3 240/12/3 239/12/3
f 249/6/3 241/6/3 240/6/3
f 249/12/3 240/12/3 248/12/3
f 250/12/3 242/12/3 241/12/3
f 250/6/3 241/6/3 249/6/3
f 251/6/3 249/6/3 248/6/3
f 251/11/3 248/11/3 238/11/3
f 252/12/3 250/12/3 249/12/3
f 252/6/3 249/6/3 251/6/3
f 253/12/3 242/12/3 250/12/3
f 253/12/3 250/12/3 252/12/3
f 254/3/3 244/3/3 206/3/3
f 254/4/3 245/4/3 244/4/3
f 255/3/3 210/3/3 245/3/3
f 255/4/3 245/4/3 254/4/3
f 256/12/3 224/12/3 247/12/3
f 256/7/3 247/7/3 246/7/3
f 257/12/3 217/12/3 224/12/3
f 257/12/3 224/12/3 256/12/3
f 258/3/3 254/3/3 206/3/3
f 258/3/3 255/3/3 254/3/3
f 259/3/3 210/3/3 255/3/3
f 259/3/3 255/3/3 258/3/3
f 260/12/3 217/12/3 257/12/3
f 260/7/3 257/7/3 256/7/3
f 261/12/3 213/12/3 217/12/3
f 261/12/3 217/12/3 260/12/3
f 262/7/3 261/7/3 260/7/3
f 262/12/3 213/12/3 261/12/3
f 263/12/3 213/12/3 262/12/3
f 264/11/3 251/11/3 238/11/3
f 265/12/3 252/12/3 251/12/3
f 265/11/3 251/11/3 264/11/3
f 266/6/3 253/6/3 252/6/3
f 266/12/3 252/12/3 265/12/3
f 267/12/3 242/12/3 253/12/3
f 267/6/3 253/6/3 266/6/3
f 268/2/3 243/2/3 242/2/3
f 268/12/3 242/12/3 267/12/3
f 269/2/3 206/2/3 243/2/3
f 269/2/3 243/2/3 268/2/3
f 270/3/3 258/3/3 206/3/3
f 270/2/3 206/2/3 269/2/3
f 271/4/3 259/4/3 258/4/3
f 271/3/3 258/3/3 270/3/3
f 272/4/3 259/4/3 271/4/3
f 273/3/3 210/3/3 259/3/3
f 273/4/3 259/4/3 272/4/3
f 274/7/3 256/7/3 246/7/3
f 274/3/3 210/3/3 273/3/3
f 274/7/3 260/7/3 256/7/3
f 274/7/3 246/7/3 210/7/3
f 274/7/3 262/7/3 260/7/3
f 275/7/3 262/7/3 274/7/3
f 276/13/3 273/13/3 272/13/3
f 276/13/3 275/13/3 274/13/3
f 276/13/3 274/13/3 273/13/3
f 276/12/3 270/12/3 269/12/3
f 276/12/3 272/12/3 271/12/3
f 276/12/3 271/12/3 270/12/3
f 277/13/3 275/13/3 276/13/3
f 278/13/3 275/13/3 277/13/3
f 279/7/3 262/7/3 275/7/3
f 279/13/3 275/13/3 278/13/3
f 280/12/3 276/12/3 269/12/3
f 280/12/3 277/12/3 276/12/3
f 281/13/3 278/13/3 277/13/3
f 281/12/3 277/12/3 280/12/3
f 282/7/3 279/7/3 278/7/3
f 282/13/3 278/13/3 281/13/3
f 283/7/3 262/7/3 279/7/3
f 283/7/3 279/7/3 282/7/3
f 284/12/4 285/12/4 288/12/4
f 285/13/4 286/13/4 289/13/4
f 288/12/4 285/12/4 289/12/4
f 286/7/4 287/7/4 290/7/4
f 289/13/4 286/13/4 290/13/4
f 290/7/4 287/7/4 291/7/4
f 284/12/4 288/12/4 295/12/4
f 295/12/4 288/12/4 296/12/4
f 296/12/4 288/12/4 297/12/4
f 288/13/4 289/13/4 298/13/4
f 297/12/4 288/12/4 298/12/4
f 289/13/4 290/13/4 298/13/4
f 290/13/4 291/13/4 298/13/4
f 298/13/4 291/13/4 299/13/4
f 299/13/4 291/13/4 300/13/4
f 291/7/4 287/7/4 301/7/4
f 300/13/4 291/13/4 301/13/4
f 300/7/4 301/7/4 302/7/4
f 301/7/4 287/7/4 302/7/4
f 296/3/4 297/3/4 304/3/4
f 297/4/4 298/4/4 304/4/4
f 298/4/4 299/4/4 304/4/4
f 299/3/4 300/3/4 305/3/4
f 304/4/4 299/4/4 305/4/4
f 302/12/4 303/12/4 306/12/4
f 296/3/4 304/3/4 307/3/4
f 304/3/4 305/3/4 307/3/4
f 305/3/4 300/3/4 308/3/4
f 307/3/4 305/3/4 308/3/4
f 292/11/4 293/11/4 309/11/4
f 293/12/4 294/12/4 310/12/4
f 309/11/4 293/11/4 310/11/4
f 295/2/4 296/2/4 311/2/4
f 310/12/4 294/12/4 311/12/4
f 294/2/4 295/2/4 311/2/4
f 311/2/4 296/2/4 312/2/4
f 296/3/4 307/3/4 313/3/4
f 307/4/4 308/4/4 313/4/4
f 308/3/4 300/3/4 314/3/4
f 313/4/4 308/4/4 314/4/4
f 309/13/4 310/13/4 315/13/4
f 311/13/4 312/13/4 315/13/4
f 310/13/4 311/13/4 315/13/4
f 315/13/4 312/13/4 316/13/4
f 316/13/4 312/13/4 317/13/4
f 312/2/4 296/2/4 318/2/4
f 317/13/4 312/13/4 318/13/4
f 313/3/4 314/3/4 319/3/4
f 296/3/4 313/3/4 319/3/4
f 314/3/4 300/3/4 320/3/4
f 319/3/4 314/3/4 320/3/4
f 296/3/4 319/3/4 321/3/4
f 319/4/4 320/4/4 321/4/4
f 320/3/4 300/3/4 322/3/4
f 321/4/4 320/4/4 322/4/4
f 296/3/4 321/3/4 323/3/4
f 321/3/4 322/3/4 323/3/4
f 322/3/4 300/3/4 324/3/4
f 323/3/4 322/3/4 324/3/4
f 302/12/4 306/12/4 325/12/4
f 300/7/4 302/7/4 326/7/4
f 302/12/4 325/12/4 326/12/4
f 326/12/4 325/12/4 327/12/4
f 315/11/4 316/11/4 328/11/4
f 316/12/4 317/12/4 329/12/4
f 328/11/4 316/11/4 329/11/4
f 317/2/4 318/2/4 330/2/4
f 329/12/4 317/12/4 330/12/4
f 318/2/4 296/2/4 331/2/4
f 330/2/4 318/2/4 331/2/4
f 296/3/4 323/3/4 332/3/4
f 331/2/4 296/2/4 332/2/4
f 323/4/4 324/4/4 333/4/4
f 332/3/4 323/3/4 333/3/4
f 333/4/4 324/4/4 334/4/4
f 324/3/4 300/3/4 335/3/4
f 334/4/4 324/4/4 335/4/4
f 300/7/4 326/7/4 336/7/4
f 335/3/4 300/3/4 336/3/4
f 336/7/4 326/7/4 337/7/4
f 336/13/4 337/13/4 338/13/4
f 335/13/4 336/13/4 338/13/4
f 332/12/4 333/12/4 338/12/4
f 334/13/4 335/13/4 338/13/4
f 331/12/4 332/12/4 338/12/4
f 333/12/4 334/12/4 338/12/4
f 338/13/4 337/13/4 339/13/4
f 339/13/4 337/13/4 340/13/4
f 337/7/4 326/7/4 341/7/4
f 340/13/4 337/13/4 341/13/4
f 331/12/4 338/12/4 342/12/4
f 338/12/4 339/12/4 342/12/4
f 339/13/4 340/13/4 343/13/4
f 342/12/4 339/12/4 343/12/4
f 340/7/4 341/7/4 344/7/4
f 343/13/4 340/13/4 344/13/4
f 341/7/4 326/7/4 345/7/4
f 344/7/4 341/7/4 345/7/4
f 346/1/4 347/1/4 348/1/4
f 348/1/4 347/1/4 349/1/4
f 346/1/4 348/1/4 350/1/4
f 350/1/4 348/1/4 351/1/4
f 350/12/4 351/12/4 352/12/4
f 351/1/4 348/1/4 353/1/4
f 352/12/4 351/12/4 353/12/4
f 350/12/4 352/12/4 354/12/4
f 352/1/4 353/1/4 354/1/4
f 353/1/4 348/1/4 355/1/4
f 354/1/4 353/1/4 355/1/4
f 346/1/4 350/1/4 356/1/4
f 350/12/4 354/12/4 356/12/4
f 354/12/4 355/12/4 356/12/4
f 355/1/4 348/1/4 357/1/4
f 356/12/4 355/12/4 357/12/4
f 348/12/4 349/12/4 358/12/4
f 357/1/4 348/1/4 358/1/4
f 356/1/4 357/1/4 358/1/4
f 358/12/4 349/12/4 359/12/4
f 346/1/4 356/1/4 360/1/4
f 356/1/4 358/1/4 360/1/4
f 358/1/4 359/1/4 360/1/4
f 360/1/4 359/1/4 361/1/4
f 366/11/5 363/11/5 362/11/5
f 366/13/5 364/13/5 363/13/5
f 367/11/5 365/11/5 364/11/5
f 367/13/5 364/13/5 366/13/5
f 368/11/5 366/11/5 362/11/5
f 368/8/5 367/8/5 366/8/5
f 369/11/5 365/11/5 367/11/5
f 369/8/5 367/8/5 368/8/5
f 370/11/5 368/11/5 362/11/5
f 371/13/5 369/13/5 368/13/5
f 371/11/5 368/11/5 370/11/5
f 372/11/5 365/11/5 369/11/5
f 372/13/5 369/13/5 371/13/5
f 373/11/5 365/11/5 372/11/5
f 378/12/5 375/12/5 374/12/5
f 379/12/5 375/12/5 378/12/5
f 380/12/5 377/12/5 376/12/5
f 381/12/5 377/12/5 380/12/5
f 384/11/5 383/11/5 382/11/5
f 385/11/5 383/11/5 384/11/5
f 390/1/5 387/1/5 386/1/5
f 390/10/5 388/10/5 387/10/5
f 391/1/5 389/1/5 388/1/5
f 391/10/5 388/10/5 390/10/5
f 392/1/5 390/1/5 386/1/5
f 392/1/5 391/1/5 390/1/5
f 393/1/5 389/1/5 391/1/5
f 393/1/5 391/1/5 392/1/5
f 394/7/6 395/7/6 398/7/6
f 398/7/6 395/7/6 399/7/6
f 396/7/6 397/7/6 400/7/6
f 400/7/6 397/7/6 401/7/6
f 402/12/6 403/12/6 404/12/6
f 404/12/6 403/12/6 405/12/6
f 405/12/6 403/12/6 406/12/6
f 406/12/6 403/12/6 407/12/6
f 404/1/6 405/1/6 408/1/6
f 405/12/6 406/12/6 409/12/6
f 408/1/6 405/1/6 409/1/6
f 406/1/6 407/1/6 410/1/6
f 409/12/6 406/12/6 410/12/6
f 410/1/6 407/1/6 411/1/6
