# MagicaVoxel @ Ephtracy

# group
o 

# material
mtllib ozisan.oko.mtl
usemtl palette

# normals
vn -1 0 0
vn 1 0 0
vn 0 0 1
vn 0 0 -1
vn 0 -1 0
vn 0 1 0

# texcoords
vt 0.876953 0.5
vt 0.908203 0.5
vt 0.919922 0.5
vt 0.927734 0.5
vt 0.931641 0.5
vt 0.935547 0.5
vt 0.939453 0.5
vt 0.943359 0.5
vt 0.947266 0.5
vt 0.951172 0.5
vt 0.958984 0.5
vt 0.962891 0.5
vt 0.970703 0.5
vt 0.974609 0.5
vt 0.978516 0.5
vt 0.990234 0.5

# verts
v 2.1 5.2 -3.6
v 2.1 5.2 -4.5
v 2.1 6.8 -3.6
v 2.1 6.8 -4.5
v 2.1 6.9 -3.6
v 2.1 6.9 -4.5
v 2.1 7.7 -3.6
v 2.1 7.7 -4.5
v 2.7 2 -3.6
v 2.7 2 -4.5
v 2.7 2.1 -3.6
v 2.7 2.1 -4.1
v 2.7 2.1 -4.2
v 2.7 2.1 -4.5
v 2.7 2.2 -3.6
v 2.7 2.2 -4.1
v 2.7 2.2 -4.2
v 2.7 2.3 -3.6
v 2.7 2.3 -4.1
v 2.7 2.6 -3.6
v 2.7 2.6 -4.5
v 2.7 5.2 -3.6
v 2.7 5.2 -4.5
v 2.9 7.7 -3.6
v 2.9 7.7 -4.5
v 2.9 7.8 -3.5
v 2.9 7.8 -3.6
v 2.9 7.8 -3.7
v 2.9 7.8 -4.1
v 2.9 7.8 -4.2
v 2.9 7.8 -4.5
v 2.9 7.8 -4.7
v 2.9 7.9 -3.5
v 2.9 7.9 -3.7
v 2.9 7.9 -3.8
v 2.9 7.9 -4
v 2.9 7.9 -4.1
v 2.9 7.9 -4.2
v 2.9 8 -3.9
v 2.9 8 -4
v 2.9 8 -4.1
v 2.9 8.1 -3.7
v 2.9 8.1 -3.8
v 2.9 8.1 -3.9
v 2.9 8.1 -4
v 2.9 8.2 -3.6
v 2.9 8.2 -3.7
v 2.9 8.2 -3.8
v 2.9 8.2 -3.9
v 2.9 8.2 -4
v 2.9 8.4 -3.6
v 2.9 8.4 -3.7
v 2.9 8.4 -3.9
v 2.9 8.4 -4
v 2.9 8.5 -3.5
v 2.9 8.5 -3.6
v 2.9 8.5 -3.7
v 2.9 8.5 -3.9
v 2.9 8.9 -3.5
v 2.9 8.9 -3.6
v 2.9 9 -3.5
v 2.9 9 -3.6
v 2.9 9 -4.7
v 4 7.7 -3.6
v 4 7.7 -4.5
v 4 7.8 -3.5
v 4 7.8 -3.6
v 4 7.8 -3.7
v 4 7.8 -4.1
v 4 7.8 -4.2
v 4 7.8 -4.5
v 4 7.8 -4.7
v 4 7.9 -3.5
v 4 7.9 -3.7
v 4 7.9 -3.8
v 4 7.9 -4.1
v 4 7.9 -4.2
v 4 8 -3.9
v 4 8 -4
v 4 8 -4.1
v 4 8.1 -3.7
v 4 8.1 -3.8
v 4 8.1 -3.9
v 4 8.1 -4
v 4 8.2 -3.6
v 4 8.2 -3.7
v 4 8.2 -3.8
v 4 8.2 -3.9
v 4 8.2 -4
v 4 8.4 -3.6
v 4 8.4 -3.7
v 4 8.4 -3.9
v 4 8.4 -4
v 4 8.5 -3.5
v 4 8.5 -3.6
v 4 8.5 -3.7
v 4 8.5 -3.9
v 4 8.9 -3.5
v 4 8.9 -3.6
v 4 9 -3.5
v 4 9 -3.6
v 4 9 -4.7
v 4.2 2 -3.6
v 4.2 2 -4.5
v 4.2 2.1 -3.6
v 4.2 2.1 -4.1
v 4.2 2.1 -4.2
v 4.2 2.1 -4.5
v 4.2 2.2 -3.6
v 4.2 2.2 -4.1
v 4.2 2.2 -4.2
v 4.2 2.3 -3.6
v 4.2 2.3 -4.1
v 4.2 2.6 -3.6
v 4.2 2.6 -4.5
v 4.2 5.2 -3.6
v 4.2 5.2 -4.5
v 4.8 5.2 -3.6
v 4.8 5.2 -4.5
v 4.8 6.8 -3.6
v 4.8 6.8 -4.5
v 4.8 6.9 -3.6
v 4.8 6.9 -4.5
v 4.8 7.7 -3.6
v 4.8 7.7 -4.5
v 2.9 7.8 -3.5
v 2.9 7.9 -3.5
v 2.9 8.5 -3.5
v 2.9 8.9 -3.5
v 2.9 9 -3.5
v 3 7.9 -3.5
v 3 8.1 -3.5
v 3 8.3 -3.5
v 3 8.4 -3.5
v 3 8.5 -3.5
v 3 8.9 -3.5
v 3.1 7.9 -3.5
v 3.1 8.1 -3.5
v 3.1 8.2 -3.5
v 3.1 8.3 -3.5
v 3.1 8.4 -3.5
v 3.1 8.5 -3.5
v 3.1 8.8 -3.5
v 3.1 8.9 -3.5
v 3.2 8.1 -3.5
v 3.2 8.2 -3.5
v 3.2 8.7 -3.5
v 3.2 8.8 -3.5
v 3.2 8.9 -3.5
v 3.3 8 -3.5
v 3.3 8.1 -3.5
v 3.3 8.6 -3.5
v 3.3 8.7 -3.5
v 3.3 8.8 -3.5
v 3.4 8.4 -3.5
v 3.4 8.5 -3.5
v 3.4 8.6 -3.5
v 3.4 8.7 -3.5
v 3.5 8.4 -3.5
v 3.5 8.5 -3.5
v 3.5 8.6 -3.5
v 3.5 8.7 -3.5
v 3.6 8 -3.5
v 3.6 8.1 -3.5
v 3.6 8.6 -3.5
v 3.6 8.7 -3.5
v 3.6 8.8 -3.5
v 3.7 8.1 -3.5
v 3.7 8.2 -3.5
v 3.7 8.7 -3.5
v 3.7 8.8 -3.5
v 3.7 8.9 -3.5
v 3.8 7.9 -3.5
v 3.8 8.1 -3.5
v 3.8 8.2 -3.5
v 3.8 8.3 -3.5
v 3.8 8.4 -3.5
v 3.8 8.5 -3.5
v 3.8 8.8 -3.5
v 3.8 8.9 -3.5
v 3.9 7.9 -3.5
v 3.9 8.1 -3.5
v 3.9 8.3 -3.5
v 3.9 8.4 -3.5
v 3.9 8.5 -3.5
v 3.9 8.9 -3.5
v 4 7.8 -3.5
v 4 7.9 -3.5
v 4 8.5 -3.5
v 4 8.9 -3.5
v 4 9 -3.5
v 2.1 5.2 -3.6
v 2.1 6.8 -3.6
v 2.1 6.9 -3.6
v 2.1 7.7 -3.6
v 2.6 5.6 -3.6
v 2.6 6.8 -3.6
v 2.6 6.9 -3.6
v 2.6 7.2 -3.6
v 2.7 2 -3.6
v 2.7 2.1 -3.6
v 2.7 2.2 -3.6
v 2.7 2.3 -3.6
v 2.7 2.6 -3.6
v 2.7 5.2 -3.6
v 2.7 5.3 -3.6
v 2.7 5.4 -3.6
v 2.7 5.6 -3.6
v 2.7 6.1 -3.6
v 2.7 6.2 -3.6
v 2.7 7.2 -3.6
v 2.9 7.7 -3.6
v 2.9 7.8 -3.6
v 3 5.4 -3.6
v 3 6.1 -3.6
v 3 7.6 -3.6
v 3 7.7 -3.6
v 3.1 2.1 -3.6
v 3.1 2.2 -3.6
v 3.1 2.3 -3.6
v 3.1 5.4 -3.6
v 3.1 6.1 -3.6
v 3.1 7.5 -3.6
v 3.1 7.6 -3.6
v 3.2 2.1 -3.6
v 3.2 2.2 -3.6
v 3.2 2.3 -3.6
v 3.3 7.4 -3.6
v 3.3 7.5 -3.6
v 3.4 2 -3.6
v 3.4 2.1 -3.6
v 3.4 2.2 -3.6
v 3.4 2.3 -3.6
v 3.4 2.6 -3.6
v 3.4 4.5 -3.6
v 3.4 5.4 -3.6
v 3.4 6.1 -3.6
v 3.5 2 -3.6
v 3.5 2.1 -3.6
v 3.5 2.2 -3.6
v 3.5 2.3 -3.6
v 3.5 2.6 -3.6
v 3.5 4.5 -3.6
v 3.5 5.4 -3.6
v 3.5 6.1 -3.6
v 3.6 7.4 -3.6
v 3.6 7.5 -3.6
v 3.7 2.1 -3.6
v 3.7 2.2 -3.6
v 3.7 2.3 -3.6
v 3.8 2.1 -3.6
v 3.8 2.2 -3.6
v 3.8 2.3 -3.6
v 3.8 5.4 -3.6
v 3.8 6.1 -3.6
v 3.8 7.5 -3.6
v 3.8 7.6 -3.6
v 3.9 5.4 -3.6
v 3.9 6.1 -3.6
v 3.9 7.6 -3.6
v 3.9 7.7 -3.6
v 4 7.7 -3.6
v 4 7.8 -3.6
v 4.2 2 -3.6
v 4.2 2.1 -3.6
v 4.2 2.2 -3.6
v 4.2 2.3 -3.6
v 4.2 2.6 -3.6
v 4.2 5.2 -3.6
v 4.2 5.3 -3.6
v 4.2 5.4 -3.6
v 4.2 5.6 -3.6
v 4.2 6.1 -3.6
v 4.2 6.2 -3.6
v 4.2 7.2 -3.6
v 4.3 5.6 -3.6
v 4.3 6.8 -3.6
v 4.3 6.9 -3.6
v 4.3 7.2 -3.6
v 4.8 5.2 -3.6
v 4.8 6.8 -3.6
v 4.8 6.9 -3.6
v 4.8 7.7 -3.6
v 2.1 5.2 -4.5
v 2.1 6.8 -4.5
v 2.1 6.9 -4.5
v 2.1 7.7 -4.5
v 2.6 5.6 -4.5
v 2.6 6.8 -4.5
v 2.6 6.9 -4.5
v 2.6 7.2 -4.5
v 2.7 2 -4.5
v 2.7 2.1 -4.5
v 2.7 2.6 -4.5
v 2.7 5.2 -4.5
v 2.7 5.3 -4.5
v 2.7 5.4 -4.5
v 2.7 5.6 -4.5
v 2.7 6.1 -4.5
v 2.7 6.2 -4.5
v 2.7 7.2 -4.5
v 2.9 7.7 -4.5
v 2.9 7.8 -4.5
v 3 5.4 -4.5
v 3 6.1 -4.5
v 3 7.8 -4.5
v 3.1 5.4 -4.5
v 3.1 6.1 -4.5
v 3.4 2 -4.5
v 3.4 2.1 -4.5
v 3.4 2.6 -4.5
v 3.4 4.5 -4.5
v 3.4 5.4 -4.5
v 3.4 6.1 -4.5
v 3.5 2 -4.5
v 3.5 2.1 -4.5
v 3.5 2.6 -4.5
v 3.5 4.5 -4.5
v 3.5 5.4 -4.5
v 3.5 6.1 -4.5
v 3.8 5.4 -4.5
v 3.8 6.1 -4.5
v 3.9 5.4 -4.5
v 3.9 6.1 -4.5
v 3.9 7.8 -4.5
v 4 7.7 -4.5
v 4 7.8 -4.5
v 4.2 2 -4.5
v 4.2 2.1 -4.5
v 4.2 2.6 -4.5
v 4.2 5.2 -4.5
v 4.2 5.3 -4.5
v 4.2 5.4 -4.5
v 4.2 5.6 -4.5
v 4.2 6.1 -4.5
v 4.2 6.2 -4.5
v 4.2 7.2 -4.5
v 4.3 5.6 -4.5
v 4.3 6.8 -4.5
v 4.3 6.9 -4.5
v 4.3 7.2 -4.5
v 4.8 5.2 -4.5
v 4.8 6.8 -4.5
v 4.8 6.9 -4.5
v 4.8 7.7 -4.5
v 2.9 7.8 -4.7
v 2.9 9 -4.7
v 3 8.9 -4.7
v 3 9 -4.7
v 3.9 8.9 -4.7
v 3.9 9 -4.7
v 4 7.8 -4.7
v 4 9 -4.7
v 2.7 2 -3.6
v 3.4 2 -3.6
v 3.5 2 -3.6
v 4.2 2 -3.6
v 3.4 2 -3.7
v 3.5 2 -3.7
v 3.4 2 -4.4
v 3.5 2 -4.4
v 2.7 2 -4.5
v 3.4 2 -4.5
v 3.5 2 -4.5
v 4.2 2 -4.5
v 2.1 5.2 -3.6
v 2.7 5.2 -3.6
v 4.2 5.2 -3.6
v 4.8 5.2 -3.6
v 2.1 5.2 -4.5
v 2.7 5.2 -4.5
v 4.2 5.2 -4.5
v 4.8 5.2 -4.5
v 2.9 7.8 -3.5
v 4 7.8 -3.5
v 2.9 7.8 -3.6
v 4 7.8 -3.6
v 2.9 7.8 -4.5
v 3 7.8 -4.5
v 3.9 7.8 -4.5
v 4 7.8 -4.5
v 3 7.8 -4.6
v 3.9 7.8 -4.6
v 2.9 7.8 -4.7
v 4 7.8 -4.7
v 2.1 7.7 -3.6
v 2.9 7.7 -3.6
v 4 7.7 -3.6
v 4.8 7.7 -3.6
v 2.1 7.7 -4.5
v 2.9 7.7 -4.5
v 4 7.7 -4.5
v 4.8 7.7 -4.5
v 2.9 9 -3.5
v 4 9 -3.5
v 2.9 9 -3.6
v 3 9 -3.6
v 3.9 9 -3.6
v 4 9 -3.6
v 2.9 9 -4.7
v 3 9 -4.7
v 3.9 9 -4.7
v 4 9 -4.7

# faces
f 3/13/1 2/13/1 1/13/1
f 4/13/1 2/13/1 3/13/1
f 5/14/1 4/14/1 3/14/1
f 6/14/1 4/14/1 5/14/1
f 7/7/1 6/7/1 5/7/1
f 8/7/1 6/7/1 7/7/1
f 11/12/1 10/12/1 9/12/1
f 12/12/1 10/12/1 11/12/1
f 13/12/1 10/12/1 12/12/1
f 14/12/1 10/12/1 13/12/1
f 15/13/1 12/13/1 11/13/1
f 16/6/1 13/6/1 12/6/1
f 16/13/1 12/13/1 15/13/1
f 17/13/1 14/13/1 13/13/1
f 17/6/1 13/6/1 16/6/1
f 18/6/1 16/6/1 15/6/1
f 19/13/1 17/13/1 16/13/1
f 19/6/1 16/6/1 18/6/1
f 20/13/1 19/13/1 18/13/1
f 21/13/1 14/13/1 17/13/1
f 21/13/1 19/13/1 20/13/1
f 21/13/1 17/13/1 19/13/1
f 22/2/1 21/2/1 20/2/1
f 23/2/1 21/2/1 22/2/1
f 27/13/1 25/13/1 24/13/1
f 28/13/1 25/13/1 27/13/1
f 29/13/1 25/13/1 28/13/1
f 30/13/1 25/13/1 29/13/1
f 31/13/1 25/13/1 30/13/1
f 33/12/1 27/12/1 26/12/1
f 33/12/1 28/12/1 27/12/1
f 34/13/1 29/13/1 28/13/1
f 34/12/1 28/12/1 33/12/1
f 35/13/1 29/13/1 34/13/1
f 36/13/1 29/13/1 35/13/1
f 37/12/1 30/12/1 29/12/1
f 37/13/1 29/13/1 36/13/1
f 38/1/1 32/1/1 31/1/1
f 38/12/1 30/12/1 37/12/1
f 38/1/1 31/1/1 30/1/1
f 39/13/1 36/13/1 35/13/1
f 40/12/1 37/12/1 36/12/1
f 40/13/1 36/13/1 39/13/1
f 41/1/1 38/1/1 37/1/1
f 41/12/1 37/12/1 40/12/1
f 42/12/1 35/12/1 34/12/1
f 42/13/1 34/13/1 33/13/1
f 43/13/1 39/13/1 35/13/1
f 43/12/1 35/12/1 42/12/1
f 44/12/1 40/12/1 39/12/1
f 44/13/1 39/13/1 43/13/1
f 45/1/1 41/1/1 40/1/1
f 45/12/1 40/12/1 44/12/1
f 46/13/1 42/13/1 33/13/1
f 46/13/1 43/13/1 42/13/1
f 47/13/1 43/13/1 46/13/1
f 48/12/1 44/12/1 43/12/1
f 48/13/1 43/13/1 47/13/1
f 49/1/1 45/1/1 44/1/1
f 49/12/1 44/12/1 48/12/1
f 50/1/1 41/1/1 45/1/1
f 50/1/1 45/1/1 49/1/1
f 51/12/1 47/12/1 46/12/1
f 51/13/1 46/13/1 33/13/1
f 52/13/1 49/13/1 48/13/1
f 52/12/1 47/12/1 51/12/1
f 52/13/1 48/13/1 47/13/1
f 53/12/1 50/12/1 49/12/1
f 53/13/1 49/13/1 52/13/1
f 54/1/1 41/1/1 50/1/1
f 54/12/1 50/12/1 53/12/1
f 55/13/1 51/13/1 33/13/1
f 56/1/1 52/1/1 51/1/1
f 56/13/1 51/13/1 55/13/1
f 57/12/1 53/12/1 52/12/1
f 57/1/1 52/1/1 56/1/1
f 58/1/1 54/1/1 53/1/1
f 58/12/1 53/12/1 57/12/1
f 59/1/1 56/1/1 55/1/1
f 59/1/1 57/1/1 56/1/1
f 59/1/1 58/1/1 57/1/1
f 60/1/1 58/1/1 59/1/1
f 61/13/1 60/13/1 59/13/1
f 62/1/1 58/1/1 60/1/1
f 62/13/1 60/13/1 61/13/1
f 63/1/1 41/1/1 54/1/1
f 63/1/1 58/1/1 62/1/1
f 63/1/1 38/1/1 41/1/1
f 63/1/1 32/1/1 38/1/1
f 63/1/1 54/1/1 58/1/1
f 64/13/2 65/13/2 67/13/2
f 67/13/2 65/13/2 68/13/2
f 68/13/2 65/13/2 69/13/2
f 69/13/2 65/13/2 70/13/2
f 70/13/2 65/13/2 71/13/2
f 66/12/2 67/12/2 73/12/2
f 67/12/2 68/12/2 73/12/2
f 68/13/2 69/13/2 74/13/2
f 73/12/2 68/12/2 74/12/2
f 74/13/2 69/13/2 75/13/2
f 69/12/2 70/12/2 76/12/2
f 75/13/2 69/13/2 76/13/2
f 71/1/2 72/1/2 77/1/2
f 76/12/2 70/12/2 77/12/2
f 70/1/2 71/1/2 77/1/2
f 75/13/2 76/13/2 78/13/2
f 78/13/2 76/13/2 79/13/2
f 76/1/2 77/1/2 80/1/2
f 79/13/2 76/13/2 80/13/2
f 73/13/2 74/13/2 81/13/2
f 74/12/2 75/12/2 81/12/2
f 75/13/2 78/13/2 82/13/2
f 81/12/2 75/12/2 82/12/2
f 78/12/2 79/12/2 83/12/2
f 82/13/2 78/13/2 83/13/2
f 79/1/2 80/1/2 84/1/2
f 83/12/2 79/12/2 84/12/2
f 81/13/2 82/13/2 85/13/2
f 73/13/2 81/13/2 85/13/2
f 85/13/2 82/13/2 86/13/2
f 82/12/2 83/12/2 87/12/2
f 86/13/2 82/13/2 87/13/2
f 83/1/2 84/1/2 88/1/2
f 87/12/2 83/12/2 88/12/2
f 84/1/2 80/1/2 89/1/2
f 88/1/2 84/1/2 89/1/2
f 85/12/2 86/12/2 90/12/2
f 73/13/2 85/13/2 90/13/2
f 87/13/2 88/13/2 91/13/2
f 90/12/2 86/12/2 91/12/2
f 86/13/2 87/13/2 91/13/2
f 88/12/2 89/12/2 92/12/2
f 91/13/2 88/13/2 92/13/2
f 89/1/2 80/1/2 93/1/2
f 92/12/2 89/12/2 93/12/2
f 73/13/2 90/13/2 94/13/2
f 90/1/2 91/1/2 95/1/2
f 94/13/2 90/13/2 95/13/2
f 91/12/2 92/12/2 96/12/2
f 95/1/2 91/1/2 96/1/2
f 92/1/2 93/1/2 97/1/2
f 96/12/2 92/12/2 97/12/2
f 94/1/2 95/1/2 98/1/2
f 95/1/2 96/1/2 98/1/2
f 96/1/2 97/1/2 98/1/2
f 98/1/2 97/1/2 99/1/2
f 98/13/2 99/13/2 100/13/2
f 99/1/2 97/1/2 101/1/2
f 100/13/2 99/13/2 101/13/2
f 77/1/2 72/1/2 102/1/2
f 101/1/2 97/1/2 102/1/2
f 80/1/2 77/1/2 102/1/2
f 97/1/2 93/1/2 102/1/2
f 93/1/2 80/1/2 102/1/2
f 103/12/2 104/12/2 105/12/2
f 105/12/2 104/12/2 106/12/2
f 106/12/2 104/12/2 107/12/2
f 107/12/2 104/12/2 108/12/2
f 105/13/2 106/13/2 109/13/2
f 106/6/2 107/6/2 110/6/2
f 109/13/2 106/13/2 110/13/2
f 107/13/2 108/13/2 111/13/2
f 110/6/2 107/6/2 111/6/2
f 109/6/2 110/6/2 112/6/2
f 110/13/2 111/13/2 113/13/2
f 112/6/2 110/6/2 113/6/2
f 112/13/2 113/13/2 114/13/2
f 111/13/2 108/13/2 115/13/2
f 114/13/2 113/13/2 115/13/2
f 113/13/2 111/13/2 115/13/2
f 114/2/2 115/2/2 116/2/2
f 116/2/2 115/2/2 117/2/2
f 118/13/2 119/13/2 120/13/2
f 120/13/2 119/13/2 121/13/2
f 120/14/2 121/14/2 122/14/2
f 122/14/2 121/14/2 123/14/2
f 122/7/2 123/7/2 124/7/2
f 124/7/2 123/7/2 125/7/2
f 131/12/3 127/12/3 126/12/3
f 131/13/3 128/13/3 127/13/3
f 132/13/3 128/13/3 131/13/3
f 133/13/3 128/13/3 132/13/3
f 134/13/3 128/13/3 133/13/3
f 135/1/3 129/1/3 128/1/3
f 135/13/3 128/13/3 134/13/3
f 136/13/3 130/13/3 129/13/3
f 136/1/3 129/1/3 135/1/3
f 137/12/3 131/12/3 126/12/3
f 137/5/3 132/5/3 131/5/3
f 138/13/3 133/13/3 132/13/3
f 138/5/3 132/5/3 137/5/3
f 139/13/3 133/13/3 138/13/3
f 140/5/3 134/5/3 133/5/3
f 140/13/3 133/13/3 139/13/3
f 141/13/3 135/13/3 134/13/3
f 141/5/3 134/5/3 140/5/3
f 141/13/3 136/13/3 135/13/3
f 142/13/3 136/13/3 141/13/3
f 143/13/3 136/13/3 142/13/3
f 144/13/3 130/13/3 136/13/3
f 144/13/3 136/13/3 143/13/3
f 145/5/3 139/5/3 138/5/3
f 145/13/3 138/13/3 137/13/3
f 146/13/3 140/13/3 139/13/3
f 146/5/3 139/5/3 145/5/3
f 146/13/3 141/13/3 140/13/3
f 147/13/3 143/13/3 142/13/3
f 148/9/3 144/9/3 143/9/3
f 148/13/3 143/13/3 147/13/3
f 149/13/3 130/13/3 144/13/3
f 149/9/3 144/9/3 148/9/3
f 150/13/3 145/13/3 137/13/3
f 150/13/3 146/13/3 145/13/3
f 151/13/3 146/13/3 150/13/3
f 152/13/3 147/13/3 142/13/3
f 153/1/3 148/1/3 147/1/3
f 153/13/3 147/13/3 152/13/3
f 154/13/3 149/13/3 148/13/3
f 154/1/3 148/1/3 153/1/3
f 155/13/3 141/13/3 146/13/3
f 155/13/3 146/13/3 151/13/3
f 155/8/3 142/8/3 141/8/3
f 156/13/3 152/13/3 142/13/3
f 156/8/3 142/8/3 155/8/3
f 157/1/3 153/1/3 152/1/3
f 157/13/3 152/13/3 156/13/3
f 158/13/3 154/13/3 153/13/3
f 158/1/3 153/1/3 157/1/3
f 159/13/3 155/13/3 151/13/3
f 159/13/3 157/13/3 156/13/3
f 159/13/3 158/13/3 157/13/3
f 159/13/3 156/13/3 155/13/3
f 160/13/3 158/13/3 159/13/3
f 161/13/3 158/13/3 160/13/3
f 162/13/3 154/13/3 158/13/3
f 162/13/3 158/13/3 161/13/3
f 163/13/3 150/13/3 137/13/3
f 163/10/3 151/10/3 150/10/3
f 164/13/3 159/13/3 151/13/3
f 164/10/3 151/10/3 163/10/3
f 165/13/3 161/13/3 160/13/3
f 165/1/3 162/1/3 161/1/3
f 166/13/3 154/13/3 162/13/3
f 166/1/3 162/1/3 165/1/3
f 167/13/3 149/13/3 154/13/3
f 167/13/3 154/13/3 166/13/3
f 168/13/3 159/13/3 164/13/3
f 168/13/3 164/13/3 163/13/3
f 169/13/3 159/13/3 168/13/3
f 170/13/3 166/13/3 165/13/3
f 170/1/3 167/1/3 166/1/3
f 171/13/3 149/13/3 167/13/3
f 171/1/3 167/1/3 170/1/3
f 172/13/3 130/13/3 149/13/3
f 172/13/3 149/13/3 171/13/3
f 173/12/3 137/12/3 126/12/3
f 173/13/3 163/13/3 137/13/3
f 173/13/3 168/13/3 163/13/3
f 174/5/3 169/5/3 168/5/3
f 174/13/3 168/13/3 173/13/3
f 175/13/3 159/13/3 169/13/3
f 175/5/3 169/5/3 174/5/3
f 176/13/3 159/13/3 175/13/3
f 177/8/3 160/8/3 159/8/3
f 177/13/3 159/13/3 176/13/3
f 178/13/3 171/13/3 170/13/3
f 178/8/3 160/8/3 177/8/3
f 178/13/3 170/13/3 165/13/3
f 178/13/3 165/13/3 160/13/3
f 179/9/3 172/9/3 171/9/3
f 179/13/3 171/13/3 178/13/3
f 180/13/3 130/13/3 172/13/3
f 180/9/3 172/9/3 179/9/3
f 181/5/3 174/5/3 173/5/3
f 181/12/3 173/12/3 126/12/3
f 182/13/3 175/13/3 174/13/3
f 182/5/3 174/5/3 181/5/3
f 182/13/3 176/13/3 175/13/3
f 183/5/3 177/5/3 176/5/3
f 183/13/3 176/13/3 182/13/3
f 184/13/3 178/13/3 177/13/3
f 184/5/3 177/5/3 183/5/3
f 184/13/3 179/13/3 178/13/3
f 184/13/3 180/13/3 179/13/3
f 185/13/3 180/13/3 184/13/3
f 186/13/3 130/13/3 180/13/3
f 186/13/3 180/13/3 185/13/3
f 187/12/3 181/12/3 126/12/3
f 188/13/3 182/13/3 181/13/3
f 188/12/3 181/12/3 187/12/3
f 188/13/3 185/13/3 184/13/3
f 188/13/3 183/13/3 182/13/3
f 188/13/3 184/13/3 183/13/3
f 189/1/3 186/1/3 185/1/3
f 189/13/3 185/13/3 188/13/3
f 190/13/3 130/13/3 186/13/3
f 190/1/3 186/1/3 189/1/3
f 191/13/3 130/13/3 190/13/3
f 196/13/3 193/13/3 192/13/3
f 197/14/3 194/14/3 193/14/3
f 197/13/3 193/13/3 196/13/3
f 198/7/3 195/7/3 194/7/3
f 198/14/3 194/14/3 197/14/3
f 199/7/3 195/7/3 198/7/3
f 205/13/3 196/13/3 192/13/3
f 206/13/3 196/13/3 205/13/3
f 207/13/3 196/13/3 206/13/3
f 208/14/3 197/14/3 196/14/3
f 208/13/3 196/13/3 207/13/3
f 208/14/3 198/14/3 197/14/3
f 208/14/3 199/14/3 198/14/3
f 209/14/3 199/14/3 208/14/3
f 210/14/3 199/14/3 209/14/3
f 211/7/3 195/7/3 199/7/3
f 211/14/3 199/14/3 210/14/3
f 212/7/3 211/7/3 210/7/3
f 212/7/3 195/7/3 211/7/3
f 214/3/3 207/3/3 206/3/3
f 214/4/3 208/4/3 207/4/3
f 214/4/3 209/4/3 208/4/3
f 215/3/3 210/3/3 209/3/3
f 215/4/3 209/4/3 214/4/3
f 216/7/3 212/7/3 210/7/3
f 217/13/3 213/13/3 212/13/3
f 217/7/3 212/7/3 216/7/3
f 218/12/3 201/12/3 200/12/3
f 218/13/3 202/13/3 201/13/3
f 219/6/3 203/6/3 202/6/3
f 219/13/3 202/13/3 218/13/3
f 220/13/3 204/13/3 203/13/3
f 220/6/3 203/6/3 219/6/3
f 221/3/3 214/3/3 206/3/3
f 221/3/3 215/3/3 214/3/3
f 222/3/3 210/3/3 215/3/3
f 222/3/3 215/3/3 221/3/3
f 223/7/3 216/7/3 210/7/3
f 224/13/3 217/13/3 216/13/3
f 224/7/3 216/7/3 223/7/3
f 225/6/3 219/6/3 218/6/3
f 225/12/3 218/12/3 200/12/3
f 226/13/3 220/13/3 219/13/3
f 226/6/3 219/6/3 225/6/3
f 227/13/3 204/13/3 220/13/3
f 227/13/3 220/13/3 226/13/3
f 228/7/3 223/7/3 210/7/3
f 229/13/3 224/13/3 223/13/3
f 229/7/3 223/7/3 228/7/3
f 230/12/3 225/12/3 200/12/3
f 231/13/3 226/13/3 225/13/3
f 231/12/3 225/12/3 230/12/3
f 232/6/3 227/6/3 226/6/3
f 232/13/3 226/13/3 231/13/3
f 233/13/3 204/13/3 227/13/3
f 233/6/3 227/6/3 232/6/3
f 234/2/3 206/2/3 205/2/3
f 234/13/3 204/13/3 233/13/3
f 234/2/3 205/2/3 204/2/3
f 235/2/3 206/2/3 234/2/3
f 236/3/3 221/3/3 206/3/3
f 236/4/3 222/4/3 221/4/3
f 237/3/3 210/3/3 222/3/3
f 237/4/3 222/4/3 236/4/3
f 238/14/3 233/14/3 232/14/3
f 238/14/3 232/14/3 231/14/3
f 238/14/3 235/14/3 234/14/3
f 238/14/3 234/14/3 233/14/3
f 238/14/3 231/14/3 230/14/3
f 239/14/3 235/14/3 238/14/3
f 240/14/3 235/14/3 239/14/3
f 241/14/3 235/14/3 240/14/3
f 242/14/3 235/14/3 241/14/3
f 243/2/3 206/2/3 235/2/3
f 243/14/3 235/14/3 242/14/3
f 244/3/3 236/3/3 206/3/3
f 244/3/3 237/3/3 236/3/3
f 245/3/3 210/3/3 237/3/3
f 245/3/3 237/3/3 244/3/3
f 246/13/3 229/13/3 228/13/3
f 246/7/3 228/7/3 210/7/3
f 247/13/3 224/13/3 229/13/3
f 247/13/3 229/13/3 246/13/3
f 248/12/3 239/12/3 238/12/3
f 248/13/3 240/13/3 239/13/3
f 249/6/3 241/6/3 240/6/3
f 249/13/3 240/13/3 248/13/3
f 250/13/3 242/13/3 241/13/3
f 250/6/3 241/6/3 249/6/3
f 251/6/3 249/6/3 248/6/3
f 251/12/3 248/12/3 238/12/3
f 252/13/3 250/13/3 249/13/3
f 252/6/3 249/6/3 251/6/3
f 253/13/3 242/13/3 250/13/3
f 253/13/3 250/13/3 252/13/3
f 254/3/3 244/3/3 206/3/3
f 254/4/3 245/4/3 244/4/3
f 255/3/3 210/3/3 245/3/3
f 255/4/3 245/4/3 254/4/3
f 256/13/3 224/13/3 247/13/3
f 256/7/3 247/7/3 246/7/3
f 257/13/3 217/13/3 224/13/3
f 257/13/3 224/13/3 256/13/3
f 258/3/3 254/3/3 206/3/3
f 258/3/3 255/3/3 254/3/3
f 259/3/3 210/3/3 255/3/3
f 259/3/3 255/3/3 258/3/3
f 260/13/3 217/13/3 257/13/3
f 260/7/3 257/7/3 256/7/3
f 261/13/3 213/13/3 217/13/3
f 261/13/3 217/13/3 260/13/3
f 262/7/3 261/7/3 260/7/3
f 262/13/3 213/13/3 261/13/3
f 263/13/3 213/13/3 262/13/3
f 264/12/3 251/12/3 238/12/3
f 265/13/3 252/13/3 251/13/3
f 265/12/3 251/12/3 264/12/3
f 266/6/3 253/6/3 252/6/3
f 266/13/3 252/13/3 265/13/3
f 267/13/3 242/13/3 253/13/3
f 267/6/3 253/6/3 266/6/3
f 268/2/3 243/2/3 242/2/3
f 268/13/3 242/13/3 267/13/3
f 269/2/3 206/2/3 243/2/3
f 269/2/3 243/2/3 268/2/3
f 270/3/3 258/3/3 206/3/3
f 270/2/3 206/2/3 269/2/3
f 271/4/3 259/4/3 258/4/3
f 271/3/3 258/3/3 270/3/3
f 272/4/3 259/4/3 271/4/3
f 273/3/3 210/3/3 259/3/3
f 273/4/3 259/4/3 272/4/3
f 274/7/3 256/7/3 246/7/3
f 274/3/3 210/3/3 273/3/3
f 274/7/3 260/7/3 256/7/3
f 274/7/3 246/7/3 210/7/3
f 274/7/3 262/7/3 260/7/3
f 275/7/3 262/7/3 274/7/3
f 276/14/3 273/14/3 272/14/3
f 276/14/3 275/14/3 274/14/3
f 276/14/3 274/14/3 273/14/3
f 276/13/3 270/13/3 269/13/3
f 276/13/3 272/13/3 271/13/3
f 276/13/3 271/13/3 270/13/3
f 277/14/3 275/14/3 276/14/3
f 278/14/3 275/14/3 277/14/3
f 279/7/3 262/7/3 275/7/3
f 279/14/3 275/14/3 278/14/3
f 280/13/3 276/13/3 269/13/3
f 280/13/3 277/13/3 276/13/3
f 281/14/3 278/14/3 277/14/3
f 281/13/3 277/13/3 280/13/3
f 282/7/3 279/7/3 278/7/3
f 282/14/3 278/14/3 281/14/3
f 283/7/3 262/7/3 279/7/3
f 283/7/3 279/7/3 282/7/3
f 284/13/4 285/13/4 288/13/4
f 285/14/4 286/14/4 289/14/4
f 288/13/4 285/13/4 289/13/4
f 286/7/4 287/7/4 290/7/4
f 289/14/4 286/14/4 290/14/4
f 290/7/4 287/7/4 291/7/4
f 284/13/4 288/13/4 295/13/4
f 295/13/4 288/13/4 296/13/4
f 296/13/4 288/13/4 297/13/4
f 288/14/4 289/14/4 298/14/4
f 297/13/4 288/13/4 298/13/4
f 289/14/4 290/14/4 298/14/4
f 290/14/4 291/14/4 298/14/4
f 298/14/4 291/14/4 299/14/4
f 299/14/4 291/14/4 300/14/4
f 291/7/4 287/7/4 301/7/4
f 300/14/4 291/14/4 301/14/4
f 300/7/4 301/7/4 302/7/4
f 301/7/4 287/7/4 302/7/4
f 296/3/4 297/3/4 304/3/4
f 297/4/4 298/4/4 304/4/4
f 298/4/4 299/4/4 304/4/4
f 299/3/4 300/3/4 305/3/4
f 304/4/4 299/4/4 305/4/4
f 302/13/4 303/13/4 306/13/4
f 296/3/4 304/3/4 307/3/4
f 304/3/4 305/3/4 307/3/4
f 305/3/4 300/3/4 308/3/4
f 307/3/4 305/3/4 308/3/4
f 292/12/4 293/12/4 309/12/4
f 293/13/4 294/13/4 310/13/4
f 309/12/4 293/12/4 310/12/4
f 295/2/4 296/2/4 311/2/4
f 310/13/4 294/13/4 311/13/4
f 294/2/4 295/2/4 311/2/4
f 311/2/4 296/2/4 312/2/4
f 296/3/4 307/3/4 313/3/4
f 307/4/4 308/4/4 313/4/4
f 308/3/4 300/3/4 314/3/4
f 313/4/4 308/4/4 314/4/4
f 309/14/4 310/14/4 315/14/4
f 311/14/4 312/14/4 315/14/4
f 310/14/4 311/14/4 315/14/4
f 315/14/4 312/14/4 316/14/4
f 316/14/4 312/14/4 317/14/4
f 312/2/4 296/2/4 318/2/4
f 317/14/4 312/14/4 318/14/4
f 313/3/4 314/3/4 319/3/4
f 296/3/4 313/3/4 319/3/4
f 314/3/4 300/3/4 320/3/4
f 319/3/4 314/3/4 320/3/4
f 296/3/4 319/3/4 321/3/4
f 319/4/4 320/4/4 321/4/4
f 320/3/4 300/3/4 322/3/4
f 321/4/4 320/4/4 322/4/4
f 296/3/4 321/3/4 323/3/4
f 321/3/4 322/3/4 323/3/4
f 322/3/4 300/3/4 324/3/4
f 323/3/4 322/3/4 324/3/4
f 302/13/4 306/13/4 325/13/4
f 300/7/4 302/7/4 326/7/4
f 302/13/4 325/13/4 326/13/4
f 326/13/4 325/13/4 327/13/4
f 315/12/4 316/12/4 328/12/4
f 316/13/4 317/13/4 329/13/4
f 328/12/4 316/12/4 329/12/4
f 317/2/4 318/2/4 330/2/4
f 329/13/4 317/13/4 330/13/4
f 318/2/4 296/2/4 331/2/4
f 330/2/4 318/2/4 331/2/4
f 296/3/4 323/3/4 332/3/4
f 331/2/4 296/2/4 332/2/4
f 323/4/4 324/4/4 333/4/4
f 332/3/4 323/3/4 333/3/4
f 333/4/4 324/4/4 334/4/4
f 324/3/4 300/3/4 335/3/4
f 334/4/4 324/4/4 335/4/4
f 300/7/4 326/7/4 336/7/4
f 335/3/4 300/3/4 336/3/4
f 336/7/4 326/7/4 337/7/4
f 336/14/4 337/14/4 338/14/4
f 335/14/4 336/14/4 338/14/4
f 332/13/4 333/13/4 338/13/4
f 334/14/4 335/14/4 338/14/4
f 331/13/4 332/13/4 338/13/4
f 333/13/4 334/13/4 338/13/4
f 338/14/4 337/14/4 339/14/4
f 339/14/4 337/14/4 340/14/4
f 337/7/4 326/7/4 341/7/4
f 340/14/4 337/14/4 341/14/4
f 331/13/4 338/13/4 342/13/4
f 338/13/4 339/13/4 342/13/4
f 339/14/4 340/14/4 343/14/4
f 342/13/4 339/13/4 343/13/4
f 340/7/4 341/7/4 344/7/4
f 343/14/4 340/14/4 344/14/4
f 341/7/4 326/7/4 345/7/4
f 344/7/4 341/7/4 345/7/4
f 346/1/4 347/1/4 348/1/4
f 348/1/4 347/1/4 349/1/4
f 346/1/4 348/1/4 350/1/4
f 348/13/4 349/13/4 350/13/4
f 350/13/4 349/13/4 351/13/4
f 346/1/4 350/1/4 352/1/4
f 350/1/4 351/1/4 352/1/4
f 352/1/4 351/1/4 353/1/4
f 358/12/5 355/12/5 354/12/5
f 358/14/5 356/14/5 355/14/5
f 359/12/5 357/12/5 356/12/5
f 359/14/5 356/14/5 358/14/5
f 360/12/5 358/12/5 354/12/5
f 360/8/5 359/8/5 358/8/5
f 361/12/5 357/12/5 359/12/5
f 361/8/5 359/8/5 360/8/5
f 362/12/5 360/12/5 354/12/5
f 363/14/5 361/14/5 360/14/5
f 363/12/5 360/12/5 362/12/5
f 364/12/5 357/12/5 361/12/5
f 364/14/5 361/14/5 363/14/5
f 365/12/5 357/12/5 364/12/5
f 370/13/5 367/13/5 366/13/5
f 371/13/5 367/13/5 370/13/5
f 372/13/5 369/13/5 368/13/5
f 373/13/5 369/13/5 372/13/5
f 376/12/5 375/12/5 374/12/5
f 377/12/5 375/12/5 376/12/5
f 382/1/5 379/1/5 378/1/5
f 382/11/5 380/11/5 379/11/5
f 383/1/5 381/1/5 380/1/5
f 383/11/5 380/11/5 382/11/5
f 384/1/5 382/1/5 378/1/5
f 384/1/5 383/1/5 382/1/5
f 385/1/5 381/1/5 383/1/5
f 385/1/5 383/1/5 384/1/5
f 386/7/6 387/7/6 390/7/6
f 390/7/6 387/7/6 391/7/6
f 388/7/6 389/7/6 392/7/6
f 392/7/6 389/7/6 393/7/6
f 394/13/6 395/13/6 396/13/6
f 396/13/6 395/13/6 397/13/6
f 397/13/6 395/13/6 398/13/6
f 398/13/6 395/13/6 399/13/6
f 396/1/6 397/1/6 400/1/6
f 397/13/6 398/13/6 401/13/6
f 400/1/6 397/1/6 401/1/6
f 398/1/6 399/1/6 402/1/6
f 401/13/6 398/13/6 402/13/6
f 402/1/6 399/1/6 403/1/6
