# MagicaVoxel @ Ephtracy

# group
o 

# material
mtllib ozisan.ver3.oko.mtl
usemtl palette

# normals
vn -1 0 0
vn 1 0 0
vn 0 0 1
vn 0 0 -1
vn 0 -1 0
vn 0 1 0

# texcoords
vt 0.908203 0.5
vt 0.919922 0.5
vt 0.927734 0.5
vt 0.931641 0.5
vt 0.935547 0.5
vt 0.939453 0.5
vt 0.943359 0.5
vt 0.951172 0.5
vt 0.958984 0.5
vt 0.962891 0.5
vt 0.970703 0.5
vt 0.974609 0.5
vt 0.978516 0.5
vt 0.990234 0.5

# verts
v 2.1 5.2 -3.6
v 2.1 5.2 -4.5
v 2.1 6.8 -3.6
v 2.1 6.8 -4.5
v 2.1 6.9 -3.6
v 2.1 6.9 -4.5
v 2.1 7.7 -3.6
v 2.1 7.7 -4.5
v 2.7 2 -3.6
v 2.7 2 -4.5
v 2.7 2.1 -3.6
v 2.7 2.1 -4.1
v 2.7 2.1 -4.2
v 2.7 2.1 -4.5
v 2.7 2.2 -3.6
v 2.7 2.2 -4.1
v 2.7 2.2 -4.2
v 2.7 2.3 -3.6
v 2.7 2.3 -4.1
v 2.7 2.6 -3.6
v 2.7 2.6 -4.5
v 2.7 5.2 -3.6
v 2.7 5.2 -4.5
v 2.9 7.7 -3.6
v 2.9 7.7 -4.5
v 2.9 7.8 -3.5
v 2.9 7.8 -3.6
v 2.9 7.8 -3.7
v 2.9 7.8 -4.1
v 2.9 7.8 -4.2
v 2.9 7.8 -4.5
v 2.9 7.8 -4.7
v 2.9 7.9 -3.5
v 2.9 7.9 -3.7
v 2.9 7.9 -3.8
v 2.9 7.9 -4
v 2.9 7.9 -4.1
v 2.9 7.9 -4.2
v 2.9 8 -3.9
v 2.9 8 -4
v 2.9 8 -4.1
v 2.9 8.1 -3.7
v 2.9 8.1 -3.8
v 2.9 8.1 -3.9
v 2.9 8.1 -4
v 2.9 8.2 -3.6
v 2.9 8.2 -3.7
v 2.9 8.2 -3.8
v 2.9 8.2 -3.9
v 2.9 8.2 -4
v 2.9 8.4 -3.6
v 2.9 8.4 -3.7
v 2.9 8.4 -3.9
v 2.9 8.4 -4
v 2.9 8.5 -3.5
v 2.9 8.5 -3.6
v 2.9 8.5 -3.7
v 2.9 8.5 -3.9
v 2.9 9 -3.5
v 2.9 9 -4.7
v 4 7.7 -3.6
v 4 7.7 -4.5
v 4 7.8 -3.5
v 4 7.8 -3.6
v 4 7.8 -3.7
v 4 7.8 -4.1
v 4 7.8 -4.2
v 4 7.8 -4.5
v 4 7.8 -4.7
v 4 7.9 -3.5
v 4 7.9 -3.7
v 4 7.9 -3.8
v 4 7.9 -4.1
v 4 7.9 -4.2
v 4 8 -3.9
v 4 8 -4
v 4 8 -4.1
v 4 8.1 -3.7
v 4 8.1 -3.8
v 4 8.1 -3.9
v 4 8.1 -4
v 4 8.2 -3.6
v 4 8.2 -3.7
v 4 8.2 -3.8
v 4 8.2 -3.9
v 4 8.2 -4
v 4 8.4 -3.6
v 4 8.4 -3.7
v 4 8.4 -3.9
v 4 8.4 -4
v 4 8.5 -3.5
v 4 8.5 -3.6
v 4 8.5 -3.7
v 4 8.5 -3.9
v 4 9 -3.5
v 4 9 -4.7
v 4.2 2 -3.6
v 4.2 2 -4.5
v 4.2 2.1 -3.6
v 4.2 2.1 -4.1
v 4.2 2.1 -4.2
v 4.2 2.1 -4.5
v 4.2 2.2 -3.6
v 4.2 2.2 -4.1
v 4.2 2.2 -4.2
v 4.2 2.3 -3.6
v 4.2 2.3 -4.1
v 4.2 2.6 -3.6
v 4.2 2.6 -4.5
v 4.2 5.2 -3.6
v 4.2 5.2 -4.5
v 4.8 5.2 -3.6
v 4.8 5.2 -4.5
v 4.8 6.8 -3.6
v 4.8 6.8 -4.5
v 4.8 6.9 -3.6
v 4.8 6.9 -4.5
v 4.8 7.7 -3.6
v 4.8 7.7 -4.5
v 2.9 7.8 -3.5
v 2.9 7.9 -3.5
v 2.9 8.5 -3.5
v 2.9 9 -3.5
v 3 7.9 -3.5
v 3 8.1 -3.5
v 3 8.3 -3.5
v 3 8.4 -3.5
v 3 8.5 -3.5
v 3 8.8 -3.5
v 3.1 7.9 -3.5
v 3.1 8.1 -3.5
v 3.1 8.2 -3.5
v 3.1 8.3 -3.5
v 3.1 8.4 -3.5
v 3.1 8.5 -3.5
v 3.1 8.8 -3.5
v 3.1 8.9 -3.5
v 3.2 8.1 -3.5
v 3.2 8.2 -3.5
v 3.2 8.7 -3.5
v 3.2 8.8 -3.5
v 3.3 8 -3.5
v 3.3 8.1 -3.5
v 3.3 8.6 -3.5
v 3.3 8.7 -3.5
v 3.3 8.8 -3.5
v 3.4 8.4 -3.5
v 3.4 8.5 -3.5
v 3.4 8.6 -3.5
v 3.4 8.7 -3.5
v 3.4 8.8 -3.5
v 3.4 8.9 -3.5
v 3.5 8.4 -3.5
v 3.5 8.5 -3.5
v 3.5 8.6 -3.5
v 3.5 8.7 -3.5
v 3.5 8.8 -3.5
v 3.5 8.9 -3.5
v 3.6 8 -3.5
v 3.6 8.1 -3.5
v 3.6 8.6 -3.5
v 3.6 8.7 -3.5
v 3.6 8.8 -3.5
v 3.7 8.1 -3.5
v 3.7 8.2 -3.5
v 3.7 8.7 -3.5
v 3.7 8.8 -3.5
v 3.8 7.9 -3.5
v 3.8 8.1 -3.5
v 3.8 8.2 -3.5
v 3.8 8.3 -3.5
v 3.8 8.4 -3.5
v 3.8 8.5 -3.5
v 3.8 8.8 -3.5
v 3.8 8.9 -3.5
v 3.9 7.9 -3.5
v 3.9 8.1 -3.5
v 3.9 8.3 -3.5
v 3.9 8.4 -3.5
v 3.9 8.5 -3.5
v 3.9 8.8 -3.5
v 4 7.8 -3.5
v 4 7.9 -3.5
v 4 8.5 -3.5
v 4 9 -3.5
v 2.1 5.2 -3.6
v 2.1 6.8 -3.6
v 2.1 6.9 -3.6
v 2.1 7.7 -3.6
v 2.6 5.6 -3.6
v 2.6 6.8 -3.6
v 2.6 6.9 -3.6
v 2.6 7.2 -3.6
v 2.7 2 -3.6
v 2.7 2.1 -3.6
v 2.7 2.2 -3.6
v 2.7 2.3 -3.6
v 2.7 2.6 -3.6
v 2.7 5.2 -3.6
v 2.7 5.3 -3.6
v 2.7 5.4 -3.6
v 2.7 5.6 -3.6
v 2.7 6.1 -3.6
v 2.7 6.2 -3.6
v 2.7 7.2 -3.6
v 2.9 7.7 -3.6
v 2.9 7.8 -3.6
v 3 5.4 -3.6
v 3 6.1 -3.6
v 3 7.6 -3.6
v 3 7.7 -3.6
v 3.1 2.1 -3.6
v 3.1 2.2 -3.6
v 3.1 2.3 -3.6
v 3.1 5.4 -3.6
v 3.1 6.1 -3.6
v 3.1 7.5 -3.6
v 3.1 7.6 -3.6
v 3.2 2.1 -3.6
v 3.2 2.2 -3.6
v 3.2 2.3 -3.6
v 3.3 7.4 -3.6
v 3.3 7.5 -3.6
v 3.4 2 -3.6
v 3.4 2.1 -3.6
v 3.4 2.2 -3.6
v 3.4 2.3 -3.6
v 3.4 2.6 -3.6
v 3.4 4.5 -3.6
v 3.4 5.4 -3.6
v 3.4 6.1 -3.6
v 3.5 2 -3.6
v 3.5 2.1 -3.6
v 3.5 2.2 -3.6
v 3.5 2.3 -3.6
v 3.5 2.6 -3.6
v 3.5 4.5 -3.6
v 3.5 5.4 -3.6
v 3.5 6.1 -3.6
v 3.6 7.4 -3.6
v 3.6 7.5 -3.6
v 3.7 2.1 -3.6
v 3.7 2.2 -3.6
v 3.7 2.3 -3.6
v 3.8 2.1 -3.6
v 3.8 2.2 -3.6
v 3.8 2.3 -3.6
v 3.8 5.4 -3.6
v 3.8 6.1 -3.6
v 3.8 7.5 -3.6
v 3.8 7.6 -3.6
v 3.9 5.4 -3.6
v 3.9 6.1 -3.6
v 3.9 7.6 -3.6
v 3.9 7.7 -3.6
v 4 7.7 -3.6
v 4 7.8 -3.6
v 4.2 2 -3.6
v 4.2 2.1 -3.6
v 4.2 2.2 -3.6
v 4.2 2.3 -3.6
v 4.2 2.6 -3.6
v 4.2 5.2 -3.6
v 4.2 5.3 -3.6
v 4.2 5.4 -3.6
v 4.2 5.6 -3.6
v 4.2 6.1 -3.6
v 4.2 6.2 -3.6
v 4.2 7.2 -3.6
v 4.3 5.6 -3.6
v 4.3 6.8 -3.6
v 4.3 6.9 -3.6
v 4.3 7.2 -3.6
v 4.8 5.2 -3.6
v 4.8 6.8 -3.6
v 4.8 6.9 -3.6
v 4.8 7.7 -3.6
v 2.1 5.2 -4.5
v 2.1 6.8 -4.5
v 2.1 6.9 -4.5
v 2.1 7.7 -4.5
v 2.6 5.6 -4.5
v 2.6 6.8 -4.5
v 2.6 6.9 -4.5
v 2.6 7.2 -4.5
v 2.7 2 -4.5
v 2.7 2.1 -4.5
v 2.7 2.6 -4.5
v 2.7 5.2 -4.5
v 2.7 5.3 -4.5
v 2.7 5.4 -4.5
v 2.7 5.6 -4.5
v 2.7 6.1 -4.5
v 2.7 6.2 -4.5
v 2.7 7.2 -4.5
v 2.9 7.7 -4.5
v 2.9 7.8 -4.5
v 3 5.4 -4.5
v 3 6.1 -4.5
v 3 7.8 -4.5
v 3.1 5.4 -4.5
v 3.1 6.1 -4.5
v 3.4 2 -4.5
v 3.4 2.1 -4.5
v 3.4 2.6 -4.5
v 3.4 4.5 -4.5
v 3.4 5.4 -4.5
v 3.4 6.1 -4.5
v 3.5 2 -4.5
v 3.5 2.1 -4.5
v 3.5 2.6 -4.5
v 3.5 4.5 -4.5
v 3.5 5.4 -4.5
v 3.5 6.1 -4.5
v 3.8 5.4 -4.5
v 3.8 6.1 -4.5
v 3.9 5.4 -4.5
v 3.9 6.1 -4.5
v 3.9 7.8 -4.5
v 4 7.7 -4.5
v 4 7.8 -4.5
v 4.2 2 -4.5
v 4.2 2.1 -4.5
v 4.2 2.6 -4.5
v 4.2 5.2 -4.5
v 4.2 5.3 -4.5
v 4.2 5.4 -4.5
v 4.2 5.6 -4.5
v 4.2 6.1 -4.5
v 4.2 6.2 -4.5
v 4.2 7.2 -4.5
v 4.3 5.6 -4.5
v 4.3 6.8 -4.5
v 4.3 6.9 -4.5
v 4.3 7.2 -4.5
v 4.8 5.2 -4.5
v 4.8 6.8 -4.5
v 4.8 6.9 -4.5
v 4.8 7.7 -4.5
v 2.9 7.8 -4.7
v 2.9 9 -4.7
v 4 7.8 -4.7
v 4 9 -4.7
v 2.7 2 -3.6
v 3.4 2 -3.6
v 3.5 2 -3.6
v 4.2 2 -3.6
v 3.4 2 -3.7
v 3.5 2 -3.7
v 3.4 2 -4.4
v 3.5 2 -4.4
v 2.7 2 -4.5
v 3.4 2 -4.5
v 3.5 2 -4.5
v 4.2 2 -4.5
v 2.1 5.2 -3.6
v 2.7 5.2 -3.6
v 4.2 5.2 -3.6
v 4.8 5.2 -3.6
v 2.1 5.2 -4.5
v 2.7 5.2 -4.5
v 4.2 5.2 -4.5
v 4.8 5.2 -4.5
v 2.9 7.8 -3.5
v 4 7.8 -3.5
v 2.9 7.8 -3.6
v 4 7.8 -3.6
v 2.9 7.8 -4.5
v 3 7.8 -4.5
v 3.9 7.8 -4.5
v 4 7.8 -4.5
v 3 7.8 -4.6
v 3.9 7.8 -4.6
v 2.9 7.8 -4.7
v 4 7.8 -4.7
v 2.1 7.7 -3.6
v 2.9 7.7 -3.6
v 4 7.7 -3.6
v 4.8 7.7 -3.6
v 2.1 7.7 -4.5
v 2.9 7.7 -4.5
v 4 7.7 -4.5
v 4.8 7.7 -4.5
v 2.9 9 -3.5
v 4 9 -3.5
v 2.9 9 -4.7
v 4 9 -4.7

# faces
f 3/11/1 2/11/1 1/11/1
f 4/11/1 2/11/1 3/11/1
f 5/12/1 4/12/1 3/12/1
f 6/12/1 4/12/1 5/12/1
f 7/6/1 6/6/1 5/6/1
f 8/6/1 6/6/1 7/6/1
f 11/10/1 10/10/1 9/10/1
f 12/10/1 10/10/1 11/10/1
f 13/10/1 10/10/1 12/10/1
f 14/10/1 10/10/1 13/10/1
f 15/11/1 12/11/1 11/11/1
f 16/5/1 13/5/1 12/5/1
f 16/11/1 12/11/1 15/11/1
f 17/11/1 14/11/1 13/11/1
f 17/5/1 13/5/1 16/5/1
f 18/5/1 16/5/1 15/5/1
f 19/11/1 17/11/1 16/11/1
f 19/5/1 16/5/1 18/5/1
f 20/11/1 19/11/1 18/11/1
f 21/11/1 14/11/1 17/11/1
f 21/11/1 19/11/1 20/11/1
f 21/11/1 17/11/1 19/11/1
f 22/1/1 21/1/1 20/1/1
f 23/1/1 21/1/1 22/1/1
f 27/11/1 25/11/1 24/11/1
f 28/11/1 25/11/1 27/11/1
f 29/11/1 25/11/1 28/11/1
f 30/11/1 25/11/1 29/11/1
f 31/11/1 25/11/1 30/11/1
f 33/10/1 27/10/1 26/10/1
f 33/10/1 28/10/1 27/10/1
f 34/11/1 29/11/1 28/11/1
f 34/10/1 28/10/1 33/10/1
f 35/11/1 29/11/1 34/11/1
f 36/11/1 29/11/1 35/11/1
f 37/10/1 30/10/1 29/10/1
f 37/11/1 29/11/1 36/11/1
f 38/7/1 32/7/1 31/7/1
f 38/10/1 30/10/1 37/10/1
f 38/7/1 31/7/1 30/7/1
f 39/11/1 36/11/1 35/11/1
f 40/10/1 37/10/1 36/10/1
f 40/11/1 36/11/1 39/11/1
f 41/7/1 38/7/1 37/7/1
f 41/10/1 37/10/1 40/10/1
f 42/10/1 35/10/1 34/10/1
f 42/11/1 34/11/1 33/11/1
f 43/11/1 39/11/1 35/11/1
f 43/10/1 35/10/1 42/10/1
f 44/10/1 40/10/1 39/10/1
f 44/11/1 39/11/1 43/11/1
f 45/7/1 41/7/1 40/7/1
f 45/10/1 40/10/1 44/10/1
f 46/11/1 42/11/1 33/11/1
f 46/11/1 43/11/1 42/11/1
f 47/11/1 43/11/1 46/11/1
f 48/10/1 44/10/1 43/10/1
f 48/11/1 43/11/1 47/11/1
f 49/7/1 45/7/1 44/7/1
f 49/10/1 44/10/1 48/10/1
f 50/7/1 41/7/1 45/7/1
f 50/7/1 45/7/1 49/7/1
f 51/10/1 47/10/1 46/10/1
f 51/11/1 46/11/1 33/11/1
f 52/11/1 49/11/1 48/11/1
f 52/10/1 47/10/1 51/10/1
f 52/11/1 48/11/1 47/11/1
f 53/10/1 50/10/1 49/10/1
f 53/11/1 49/11/1 52/11/1
f 54/7/1 41/7/1 50/7/1
f 54/10/1 50/10/1 53/10/1
f 55/11/1 51/11/1 33/11/1
f 56/7/1 52/7/1 51/7/1
f 56/11/1 51/11/1 55/11/1
f 57/10/1 53/10/1 52/10/1
f 57/7/1 52/7/1 56/7/1
f 58/7/1 54/7/1 53/7/1
f 58/10/1 53/10/1 57/10/1
f 59/7/1 56/7/1 55/7/1
f 59/7/1 57/7/1 56/7/1
f 59/7/1 58/7/1 57/7/1
f 60/7/1 41/7/1 54/7/1
f 60/7/1 58/7/1 59/7/1
f 60/7/1 38/7/1 41/7/1
f 60/7/1 32/7/1 38/7/1
f 60/7/1 54/7/1 58/7/1
f 61/11/2 62/11/2 64/11/2
f 64/11/2 62/11/2 65/11/2
f 65/11/2 62/11/2 66/11/2
f 66/11/2 62/11/2 67/11/2
f 67/11/2 62/11/2 68/11/2
f 63/10/2 64/10/2 70/10/2
f 64/10/2 65/10/2 70/10/2
f 65/11/2 66/11/2 71/11/2
f 70/10/2 65/10/2 71/10/2
f 71/11/2 66/11/2 72/11/2
f 66/10/2 67/10/2 73/10/2
f 72/11/2 66/11/2 73/11/2
f 68/7/2 69/7/2 74/7/2
f 73/10/2 67/10/2 74/10/2
f 67/7/2 68/7/2 74/7/2
f 72/11/2 73/11/2 75/11/2
f 75/11/2 73/11/2 76/11/2
f 73/7/2 74/7/2 77/7/2
f 76/11/2 73/11/2 77/11/2
f 70/11/2 71/11/2 78/11/2
f 71/10/2 72/10/2 78/10/2
f 72/11/2 75/11/2 79/11/2
f 78/10/2 72/10/2 79/10/2
f 75/10/2 76/10/2 80/10/2
f 79/11/2 75/11/2 80/11/2
f 76/7/2 77/7/2 81/7/2
f 80/10/2 76/10/2 81/10/2
f 78/11/2 79/11/2 82/11/2
f 70/11/2 78/11/2 82/11/2
f 82/11/2 79/11/2 83/11/2
f 79/10/2 80/10/2 84/10/2
f 83/11/2 79/11/2 84/11/2
f 80/7/2 81/7/2 85/7/2
f 84/10/2 80/10/2 85/10/2
f 81/7/2 77/7/2 86/7/2
f 85/7/2 81/7/2 86/7/2
f 82/10/2 83/10/2 87/10/2
f 70/11/2 82/11/2 87/11/2
f 84/11/2 85/11/2 88/11/2
f 87/10/2 83/10/2 88/10/2
f 83/11/2 84/11/2 88/11/2
f 85/10/2 86/10/2 89/10/2
f 88/11/2 85/11/2 89/11/2
f 86/7/2 77/7/2 90/7/2
f 89/10/2 86/10/2 90/10/2
f 70/11/2 87/11/2 91/11/2
f 87/7/2 88/7/2 92/7/2
f 91/11/2 87/11/2 92/11/2
f 88/10/2 89/10/2 93/10/2
f 92/7/2 88/7/2 93/7/2
f 89/7/2 90/7/2 94/7/2
f 93/10/2 89/10/2 94/10/2
f 91/7/2 92/7/2 95/7/2
f 92/7/2 93/7/2 95/7/2
f 93/7/2 94/7/2 95/7/2
f 74/7/2 69/7/2 96/7/2
f 95/7/2 94/7/2 96/7/2
f 77/7/2 74/7/2 96/7/2
f 94/7/2 90/7/2 96/7/2
f 90/7/2 77/7/2 96/7/2
f 97/10/2 98/10/2 99/10/2
f 99/10/2 98/10/2 100/10/2
f 100/10/2 98/10/2 101/10/2
f 101/10/2 98/10/2 102/10/2
f 99/11/2 100/11/2 103/11/2
f 100/5/2 101/5/2 104/5/2
f 103/11/2 100/11/2 104/11/2
f 101/11/2 102/11/2 105/11/2
f 104/5/2 101/5/2 105/5/2
f 103/5/2 104/5/2 106/5/2
f 104/11/2 105/11/2 107/11/2
f 106/5/2 104/5/2 107/5/2
f 106/11/2 107/11/2 108/11/2
f 105/11/2 102/11/2 109/11/2
f 108/11/2 107/11/2 109/11/2
f 107/11/2 105/11/2 109/11/2
f 108/1/2 109/1/2 110/1/2
f 110/1/2 109/1/2 111/1/2
f 112/11/2 113/11/2 114/11/2
f 114/11/2 113/11/2 115/11/2
f 114/12/2 115/12/2 116/12/2
f 116/12/2 115/12/2 117/12/2
f 116/6/2 117/6/2 118/6/2
f 118/6/2 117/6/2 119/6/2
f 124/10/3 121/10/3 120/10/3
f 124/11/3 122/11/3 121/11/3
f 125/11/3 122/11/3 124/11/3
f 126/11/3 122/11/3 125/11/3
f 127/11/3 122/11/3 126/11/3
f 128/7/3 123/7/3 122/7/3
f 128/11/3 122/11/3 127/11/3
f 129/7/3 123/7/3 128/7/3
f 130/10/3 124/10/3 120/10/3
f 130/4/3 125/4/3 124/4/3
f 131/11/3 126/11/3 125/11/3
f 131/4/3 125/4/3 130/4/3
f 132/11/3 126/11/3 131/11/3
f 133/4/3 127/4/3 126/4/3
f 133/11/3 126/11/3 132/11/3
f 134/11/3 129/11/3 128/11/3
f 134/4/3 127/4/3 133/4/3
f 134/11/3 128/11/3 127/11/3
f 135/11/3 129/11/3 134/11/3
f 136/7/3 123/7/3 129/7/3
f 136/11/3 129/11/3 135/11/3
f 137/7/3 123/7/3 136/7/3
f 138/4/3 132/4/3 131/4/3
f 138/11/3 131/11/3 130/11/3
f 139/11/3 133/11/3 132/11/3
f 139/4/3 132/4/3 138/4/3
f 139/11/3 134/11/3 133/11/3
f 140/11/3 137/11/3 136/11/3
f 140/11/3 136/11/3 135/11/3
f 141/11/3 137/11/3 140/11/3
f 142/11/3 138/11/3 130/11/3
f 142/11/3 139/11/3 138/11/3
f 143/11/3 139/11/3 142/11/3
f 144/11/3 140/11/3 135/11/3
f 145/7/3 141/7/3 140/7/3
f 145/11/3 140/11/3 144/11/3
f 146/11/3 137/11/3 141/11/3
f 146/7/3 141/7/3 145/7/3
f 147/7/3 135/7/3 134/7/3
f 147/11/3 134/11/3 139/11/3
f 147/11/3 139/11/3 143/11/3
f 148/11/3 144/11/3 135/11/3
f 148/7/3 135/7/3 147/7/3
f 149/7/3 145/7/3 144/7/3
f 149/11/3 144/11/3 148/11/3
f 150/11/3 146/11/3 145/11/3
f 150/7/3 145/7/3 149/7/3
f 151/11/3 137/11/3 146/11/3
f 151/11/3 146/11/3 150/11/3
f 152/7/3 123/7/3 137/7/3
f 152/11/3 137/11/3 151/11/3
f 153/11/3 151/11/3 150/11/3
f 153/11/3 150/11/3 149/11/3
f 153/11/3 148/11/3 147/11/3
f 153/11/3 149/11/3 148/11/3
f 153/11/3 147/11/3 143/11/3
f 154/11/3 151/11/3 153/11/3
f 155/11/3 151/11/3 154/11/3
f 156/11/3 151/11/3 155/11/3
f 157/7/3 152/7/3 151/7/3
f 157/11/3 151/11/3 156/11/3
f 158/7/3 123/7/3 152/7/3
f 158/7/3 152/7/3 157/7/3
f 159/11/3 142/11/3 130/11/3
f 159/8/3 143/8/3 142/8/3
f 160/11/3 153/11/3 143/11/3
f 160/8/3 143/8/3 159/8/3
f 161/7/3 156/7/3 155/7/3
f 161/11/3 155/11/3 154/11/3
f 162/11/3 157/11/3 156/11/3
f 162/7/3 156/7/3 161/7/3
f 162/11/3 158/11/3 157/11/3
f 163/11/3 158/11/3 162/11/3
f 164/11/3 153/11/3 160/11/3
f 164/11/3 160/11/3 159/11/3
f 165/11/3 153/11/3 164/11/3
f 166/7/3 163/7/3 162/7/3
f 166/11/3 162/11/3 161/11/3
f 167/11/3 158/11/3 163/11/3
f 167/7/3 163/7/3 166/7/3
f 168/10/3 130/10/3 120/10/3
f 168/11/3 159/11/3 130/11/3
f 168/11/3 164/11/3 159/11/3
f 169/4/3 165/4/3 164/4/3
f 169/11/3 164/11/3 168/11/3
f 170/11/3 153/11/3 165/11/3
f 170/4/3 165/4/3 169/4/3
f 171/11/3 153/11/3 170/11/3
f 172/7/3 154/7/3 153/7/3
f 172/11/3 153/11/3 171/11/3
f 173/11/3 161/11/3 154/11/3
f 173/7/3 154/7/3 172/7/3
f 173/11/3 166/11/3 161/11/3
f 173/11/3 167/11/3 166/11/3
f 174/11/3 158/11/3 167/11/3
f 174/11/3 167/11/3 173/11/3
f 175/7/3 123/7/3 158/7/3
f 175/11/3 158/11/3 174/11/3
f 176/4/3 169/4/3 168/4/3
f 176/10/3 168/10/3 120/10/3
f 177/11/3 170/11/3 169/11/3
f 177/4/3 169/4/3 176/4/3
f 177/11/3 171/11/3 170/11/3
f 178/4/3 172/4/3 171/4/3
f 178/11/3 171/11/3 177/11/3
f 179/11/3 174/11/3 173/11/3
f 179/4/3 172/4/3 178/4/3
f 179/11/3 173/11/3 172/11/3
f 180/11/3 174/11/3 179/11/3
f 181/7/3 175/7/3 174/7/3
f 181/11/3 174/11/3 180/11/3
f 182/10/3 176/10/3 120/10/3
f 183/11/3 177/11/3 176/11/3
f 183/10/3 176/10/3 182/10/3
f 183/11/3 178/11/3 177/11/3
f 183/11/3 180/11/3 179/11/3
f 183/11/3 179/11/3 178/11/3
f 184/7/3 181/7/3 180/7/3
f 184/11/3 180/11/3 183/11/3
f 185/7/3 175/7/3 181/7/3
f 185/7/3 181/7/3 184/7/3
f 185/7/3 123/7/3 175/7/3
f 190/11/3 187/11/3 186/11/3
f 191/12/3 188/12/3 187/12/3
f 191/11/3 187/11/3 190/11/3
f 192/6/3 189/6/3 188/6/3
f 192/12/3 188/12/3 191/12/3
f 193/6/3 189/6/3 192/6/3
f 199/11/3 190/11/3 186/11/3
f 200/11/3 190/11/3 199/11/3
f 201/11/3 190/11/3 200/11/3
f 202/12/3 191/12/3 190/12/3
f 202/11/3 190/11/3 201/11/3
f 202/12/3 192/12/3 191/12/3
f 202/12/3 193/12/3 192/12/3
f 203/12/3 193/12/3 202/12/3
f 204/12/3 193/12/3 203/12/3
f 205/6/3 189/6/3 193/6/3
f 205/12/3 193/12/3 204/12/3
f 206/6/3 205/6/3 204/6/3
f 206/6/3 189/6/3 205/6/3
f 208/2/3 201/2/3 200/2/3
f 208/3/3 202/3/3 201/3/3
f 208/3/3 203/3/3 202/3/3
f 209/2/3 204/2/3 203/2/3
f 209/3/3 203/3/3 208/3/3
f 210/6/3 206/6/3 204/6/3
f 211/11/3 207/11/3 206/11/3
f 211/6/3 206/6/3 210/6/3
f 212/10/3 195/10/3 194/10/3
f 212/11/3 196/11/3 195/11/3
f 213/5/3 197/5/3 196/5/3
f 213/11/3 196/11/3 212/11/3
f 214/11/3 198/11/3 197/11/3
f 214/5/3 197/5/3 213/5/3
f 215/2/3 208/2/3 200/2/3
f 215/2/3 209/2/3 208/2/3
f 216/2/3 204/2/3 209/2/3
f 216/2/3 209/2/3 215/2/3
f 217/6/3 210/6/3 204/6/3
f 218/11/3 211/11/3 210/11/3
f 218/6/3 210/6/3 217/6/3
f 219/5/3 213/5/3 212/5/3
f 219/10/3 212/10/3 194/10/3
f 220/11/3 214/11/3 213/11/3
f 220/5/3 213/5/3 219/5/3
f 221/11/3 198/11/3 214/11/3
f 221/11/3 214/11/3 220/11/3
f 222/6/3 217/6/3 204/6/3
f 223/11/3 218/11/3 217/11/3
f 223/6/3 217/6/3 222/6/3
f 224/10/3 219/10/3 194/10/3
f 225/11/3 220/11/3 219/11/3
f 225/10/3 219/10/3 224/10/3
f 226/5/3 221/5/3 220/5/3
f 226/11/3 220/11/3 225/11/3
f 227/11/3 198/11/3 221/11/3
f 227/5/3 221/5/3 226/5/3
f 228/1/3 200/1/3 199/1/3
f 228/11/3 198/11/3 227/11/3
f 228/1/3 199/1/3 198/1/3
f 229/1/3 200/1/3 228/1/3
f 230/2/3 215/2/3 200/2/3
f 230/3/3 216/3/3 215/3/3
f 231/2/3 204/2/3 216/2/3
f 231/3/3 216/3/3 230/3/3
f 232/12/3 227/12/3 226/12/3
f 232/12/3 226/12/3 225/12/3
f 232/12/3 229/12/3 228/12/3
f 232/12/3 228/12/3 227/12/3
f 232/12/3 225/12/3 224/12/3
f 233/12/3 229/12/3 232/12/3
f 234/12/3 229/12/3 233/12/3
f 235/12/3 229/12/3 234/12/3
f 236/12/3 229/12/3 235/12/3
f 237/1/3 200/1/3 229/1/3
f 237/12/3 229/12/3 236/12/3
f 238/2/3 230/2/3 200/2/3
f 238/2/3 231/2/3 230/2/3
f 239/2/3 204/2/3 231/2/3
f 239/2/3 231/2/3 238/2/3
f 240/11/3 223/11/3 222/11/3
f 240/6/3 222/6/3 204/6/3
f 241/11/3 218/11/3 223/11/3
f 241/11/3 223/11/3 240/11/3
f 242/10/3 233/10/3 232/10/3
f 242/11/3 234/11/3 233/11/3
f 243/5/3 235/5/3 234/5/3
f 243/11/3 234/11/3 242/11/3
f 244/11/3 236/11/3 235/11/3
f 244/5/3 235/5/3 243/5/3
f 245/5/3 243/5/3 242/5/3
f 245/10/3 242/10/3 232/10/3
f 246/11/3 244/11/3 243/11/3
f 246/5/3 243/5/3 245/5/3
f 247/11/3 236/11/3 244/11/3
f 247/11/3 244/11/3 246/11/3
f 248/2/3 238/2/3 200/2/3
f 248/3/3 239/3/3 238/3/3
f 249/2/3 204/2/3 239/2/3
f 249/3/3 239/3/3 248/3/3
f 250/11/3 218/11/3 241/11/3
f 250/6/3 241/6/3 240/6/3
f 251/11/3 211/11/3 218/11/3
f 251/11/3 218/11/3 250/11/3
f 252/2/3 248/2/3 200/2/3
f 252/2/3 249/2/3 248/2/3
f 253/2/3 204/2/3 249/2/3
f 253/2/3 249/2/3 252/2/3
f 254/11/3 211/11/3 251/11/3
f 254/6/3 251/6/3 250/6/3
f 255/11/3 207/11/3 211/11/3
f 255/11/3 211/11/3 254/11/3
f 256/6/3 255/6/3 254/6/3
f 256/11/3 207/11/3 255/11/3
f 257/11/3 207/11/3 256/11/3
f 258/10/3 245/10/3 232/10/3
f 259/11/3 246/11/3 245/11/3
f 259/10/3 245/10/3 258/10/3
f 260/5/3 247/5/3 246/5/3
f 260/11/3 246/11/3 259/11/3
f 261/11/3 236/11/3 247/11/3
f 261/5/3 247/5/3 260/5/3
f 262/1/3 237/1/3 236/1/3
f 262/11/3 236/11/3 261/11/3
f 263/1/3 200/1/3 237/1/3
f 263/1/3 237/1/3 262/1/3
f 264/2/3 252/2/3 200/2/3
f 264/1/3 200/1/3 263/1/3
f 265/3/3 253/3/3 252/3/3
f 265/2/3 252/2/3 264/2/3
f 266/3/3 253/3/3 265/3/3
f 267/2/3 204/2/3 253/2/3
f 267/3/3 253/3/3 266/3/3
f 268/6/3 250/6/3 240/6/3
f 268/2/3 204/2/3 267/2/3
f 268/6/3 254/6/3 250/6/3
f 268/6/3 240/6/3 204/6/3
f 268/6/3 256/6/3 254/6/3
f 269/6/3 256/6/3 268/6/3
f 270/12/3 267/12/3 266/12/3
f 270/12/3 269/12/3 268/12/3
f 270/12/3 268/12/3 267/12/3
f 270/11/3 264/11/3 263/11/3
f 270/11/3 266/11/3 265/11/3
f 270/11/3 265/11/3 264/11/3
f 271/12/3 269/12/3 270/12/3
f 272/12/3 269/12/3 271/12/3
f 273/6/3 256/6/3 269/6/3
f 273/12/3 269/12/3 272/12/3
f 274/11/3 270/11/3 263/11/3
f 274/11/3 271/11/3 270/11/3
f 275/12/3 272/12/3 271/12/3
f 275/11/3 271/11/3 274/11/3
f 276/6/3 273/6/3 272/6/3
f 276/12/3 272/12/3 275/12/3
f 277/6/3 256/6/3 273/6/3
f 277/6/3 273/6/3 276/6/3
f 278/11/4 279/11/4 282/11/4
f 279/12/4 280/12/4 283/12/4
f 282/11/4 279/11/4 283/11/4
f 280/6/4 281/6/4 284/6/4
f 283/12/4 280/12/4 284/12/4
f 284/6/4 281/6/4 285/6/4
f 278/11/4 282/11/4 289/11/4
f 289/11/4 282/11/4 290/11/4
f 290/11/4 282/11/4 291/11/4
f 282/12/4 283/12/4 292/12/4
f 291/11/4 282/11/4 292/11/4
f 283/12/4 284/12/4 292/12/4
f 284/12/4 285/12/4 292/12/4
f 292/12/4 285/12/4 293/12/4
f 293/12/4 285/12/4 294/12/4
f 285/6/4 281/6/4 295/6/4
f 294/12/4 285/12/4 295/12/4
f 294/6/4 295/6/4 296/6/4
f 295/6/4 281/6/4 296/6/4
f 290/2/4 291/2/4 298/2/4
f 291/3/4 292/3/4 298/3/4
f 292/3/4 293/3/4 298/3/4
f 293/2/4 294/2/4 299/2/4
f 298/3/4 293/3/4 299/3/4
f 296/11/4 297/11/4 300/11/4
f 290/2/4 298/2/4 301/2/4
f 298/2/4 299/2/4 301/2/4
f 299/2/4 294/2/4 302/2/4
f 301/2/4 299/2/4 302/2/4
f 286/10/4 287/10/4 303/10/4
f 287/11/4 288/11/4 304/11/4
f 303/10/4 287/10/4 304/10/4
f 289/1/4 290/1/4 305/1/4
f 304/11/4 288/11/4 305/11/4
f 288/1/4 289/1/4 305/1/4
f 305/1/4 290/1/4 306/1/4
f 290/2/4 301/2/4 307/2/4
f 301/3/4 302/3/4 307/3/4
f 302/2/4 294/2/4 308/2/4
f 307/3/4 302/3/4 308/3/4
f 303/12/4 304/12/4 309/12/4
f 305/12/4 306/12/4 309/12/4
f 304/12/4 305/12/4 309/12/4
f 309/12/4 306/12/4 310/12/4
f 310/12/4 306/12/4 311/12/4
f 306/1/4 290/1/4 312/1/4
f 311/12/4 306/12/4 312/12/4
f 307/2/4 308/2/4 313/2/4
f 290/2/4 307/2/4 313/2/4
f 308/2/4 294/2/4 314/2/4
f 313/2/4 308/2/4 314/2/4
f 290/2/4 313/2/4 315/2/4
f 313/3/4 314/3/4 315/3/4
f 314/2/4 294/2/4 316/2/4
f 315/3/4 314/3/4 316/3/4
f 290/2/4 315/2/4 317/2/4
f 315/2/4 316/2/4 317/2/4
f 316/2/4 294/2/4 318/2/4
f 317/2/4 316/2/4 318/2/4
f 296/11/4 300/11/4 319/11/4
f 294/6/4 296/6/4 320/6/4
f 296/11/4 319/11/4 320/11/4
f 320/11/4 319/11/4 321/11/4
f 309/10/4 310/10/4 322/10/4
f 310/11/4 311/11/4 323/11/4
f 322/10/4 310/10/4 323/10/4
f 311/1/4 312/1/4 324/1/4
f 323/11/4 311/11/4 324/11/4
f 312/1/4 290/1/4 325/1/4
f 324/1/4 312/1/4 325/1/4
f 290/2/4 317/2/4 326/2/4
f 325/1/4 290/1/4 326/1/4
f 317/3/4 318/3/4 327/3/4
f 326/2/4 317/2/4 327/2/4
f 327/3/4 318/3/4 328/3/4
f 318/2/4 294/2/4 329/2/4
f 328/3/4 318/3/4 329/3/4
f 294/6/4 320/6/4 330/6/4
f 329/2/4 294/2/4 330/2/4
f 330/6/4 320/6/4 331/6/4
f 330/12/4 331/12/4 332/12/4
f 329/12/4 330/12/4 332/12/4
f 326/11/4 327/11/4 332/11/4
f 328/12/4 329/12/4 332/12/4
f 325/11/4 326/11/4 332/11/4
f 327/11/4 328/11/4 332/11/4
f 332/12/4 331/12/4 333/12/4
f 333/12/4 331/12/4 334/12/4
f 331/6/4 320/6/4 335/6/4
f 334/12/4 331/12/4 335/12/4
f 325/11/4 332/11/4 336/11/4
f 332/11/4 333/11/4 336/11/4
f 333/12/4 334/12/4 337/12/4
f 336/11/4 333/11/4 337/11/4
f 334/6/4 335/6/4 338/6/4
f 337/12/4 334/12/4 338/12/4
f 335/6/4 320/6/4 339/6/4
f 338/6/4 335/6/4 339/6/4
f 340/7/4 341/7/4 342/7/4
f 342/7/4 341/7/4 343/7/4
f 348/10/5 345/10/5 344/10/5
f 348/12/5 346/12/5 345/12/5
f 349/10/5 347/10/5 346/10/5
f 349/12/5 346/12/5 348/12/5
f 350/10/5 348/10/5 344/10/5
f 350/7/5 349/7/5 348/7/5
f 351/10/5 347/10/5 349/10/5
f 351/7/5 349/7/5 350/7/5
f 352/10/5 350/10/5 344/10/5
f 353/12/5 351/12/5 350/12/5
f 353/10/5 350/10/5 352/10/5
f 354/10/5 347/10/5 351/10/5
f 354/12/5 351/12/5 353/12/5
f 355/10/5 347/10/5 354/10/5
f 360/11/5 357/11/5 356/11/5
f 361/11/5 357/11/5 360/11/5
f 362/11/5 359/11/5 358/11/5
f 363/11/5 359/11/5 362/11/5
f 366/10/5 365/10/5 364/10/5
f 367/10/5 365/10/5 366/10/5
f 372/7/5 369/7/5 368/7/5
f 372/9/5 370/9/5 369/9/5
f 373/7/5 371/7/5 370/7/5
f 373/9/5 370/9/5 372/9/5
f 374/7/5 372/7/5 368/7/5
f 374/7/5 373/7/5 372/7/5
f 375/7/5 371/7/5 373/7/5
f 375/7/5 373/7/5 374/7/5
f 376/6/6 377/6/6 380/6/6
f 380/6/6 377/6/6 381/6/6
f 378/6/6 379/6/6 382/6/6
f 382/6/6 379/6/6 383/6/6
f 384/7/6 385/7/6 386/7/6
f 386/7/6 385/7/6 387/7/6
