# MagicaVoxel @ Ephtracy

# group
o 

# material
mtllib sakana (2).mtl
usemtl palette

# normals
vn -1 0 0
vn 1 0 0
vn 0 0 1
vn 0 0 -1
vn 0 -1 0
vn 0 1 0

# texcoords
vt 0.841797 0.5
vt 0.853516 0.5
vt 0.857422 0.5
vt 0.955078 0.5
vt 0.958984 0.5
vt 0.962891 0.5
vt 0.994141 0.5

# verts
v 0 2.9 -1.1
v 0 2.9 -1.7
v 0 2.9 -2.1
v 0 2.9 -2.3
v 0 3.1 -1.3
v 0 3.1 -1.5
v 0 3.1 -1.7
v 0 3.1 -1.9
v 0 3.1 -2.1
v 0 3.1 -2.3
v 0 3.1 -2.5
v 0 3.3 -1.3
v 0 3.3 -1.5
v 0 3.3 -1.7
v 0 3.3 -1.9
v 0 3.3 -2.1
v 0 3.3 -2.3
v 0 3.3 -2.5
v 0 3.3 -2.7
v 0 3.5 -1.1
v 0 3.5 -1.3
v 0 3.5 -1.5
v 0 3.5 -1.7
v 0 3.5 -1.9
v 0 3.5 -2.1
v 0 3.5 -2.3
v 0 3.5 -2.5
v 0 3.5 -2.7
v 0 3.5 -2.9
v 0 3.7 -1.3
v 0 3.7 -1.5
v 0 3.7 -1.7
v 0 3.7 -1.9
v 0 3.7 -2.1
v 0 3.7 -2.3
v 0 3.7 -2.5
v 0 3.7 -2.7
v 0 3.7 -2.9
v 0 3.9 -1.3
v 0 3.9 -1.5
v 0 3.9 -1.7
v 0 3.9 -1.9
v 0 3.9 -2.1
v 0 3.9 -2.3
v 0 3.9 -2.5
v 0 3.9 -2.7
v 0 3.9 -2.9
v 0 3.9 -3.1
v 0 4.1 -1.5
v 0 4.1 -1.7
v 0 4.1 -1.9
v 0 4.1 -2.1
v 0 4.1 -2.3
v 0 4.1 -2.5
v 0 4.1 -2.7
v 0 4.1 -2.9
v 0 4.1 -3.1
v 0 4.3 -1.5
v 0 4.3 -1.7
v 0 4.3 -1.9
v 0 4.3 -2.1
v 0 4.3 -2.3
v 0 4.3 -2.5
v 0 4.3 -2.7
v 0 4.3 -2.9
v 0 4.3 -3.1
v 0 4.5 -1.3
v 0 4.5 -1.5
v 0 4.5 -1.7
v 0 4.5 -1.9
v 0 4.5 -2.1
v 0 4.5 -2.3
v 0 4.5 -2.5
v 0 4.5 -2.7
v 0 4.5 -2.9
v 0 4.5 -3.1
v 0 4.7 -1.5
v 0 4.7 -1.7
v 0 4.7 -1.9
v 0 4.7 -2.1
v 0 4.7 -2.3
v 0 4.7 -2.5
v 0 4.7 -2.7
v 0 4.7 -2.9
v 0 4.7 -3.1
v 0 4.7 -3.3
v 0 4.7 -3.5
v 0 4.7 -3.7
v 0 4.9 -1.7
v 0 4.9 -1.9
v 0 4.9 -2.1
v 0 4.9 -2.3
v 0 4.9 -2.5
v 0 4.9 -2.7
v 0 4.9 -2.9
v 0 4.9 -3.1
v 0 4.9 -3.3
v 0 5.1 -2.9
v 0 5.1 -3.1
v 0 5.2 -1.9
v 0 5.2 -2.1
v 0 5.2 -3.3
v 0 5.2 -3.5
v 0 5.2 -3.7
v 0 5.4 -3.3
v 0 5.4 -3.5
v 0 5.6 -2.9
v 0 5.6 -3.1
v 0 5.6 -3.3
v 0.2 2.9 -1.1
v 0.2 2.9 -1.7
v 0.2 2.9 -2.1
v 0.2 2.9 -2.3
v 0.2 3.1 -1.3
v 0.2 3.1 -1.5
v 0.2 3.1 -1.7
v 0.2 3.1 -1.9
v 0.2 3.1 -2.1
v 0.2 3.1 -2.3
v 0.2 3.1 -2.5
v 0.2 3.3 -1.3
v 0.2 3.3 -1.5
v 0.2 3.3 -1.7
v 0.2 3.3 -1.9
v 0.2 3.3 -2.1
v 0.2 3.3 -2.3
v 0.2 3.3 -2.5
v 0.2 3.3 -2.7
v 0.2 3.5 -1.1
v 0.2 3.5 -1.3
v 0.2 3.5 -1.5
v 0.2 3.5 -1.7
v 0.2 3.5 -1.9
v 0.2 3.5 -2.1
v 0.2 3.5 -2.3
v 0.2 3.5 -2.5
v 0.2 3.5 -2.7
v 0.2 3.5 -2.9
v 0.2 3.7 -1.3
v 0.2 3.7 -1.5
v 0.2 3.7 -1.7
v 0.2 3.7 -1.9
v 0.2 3.7 -2.1
v 0.2 3.7 -2.3
v 0.2 3.7 -2.5
v 0.2 3.7 -2.7
v 0.2 3.7 -2.9
v 0.2 3.9 -1.3
v 0.2 3.9 -1.5
v 0.2 3.9 -1.7
v 0.2 3.9 -1.9
v 0.2 3.9 -2.1
v 0.2 3.9 -2.3
v 0.2 3.9 -2.5
v 0.2 3.9 -2.7
v 0.2 3.9 -2.9
v 0.2 3.9 -3.1
v 0.2 4.1 -1.5
v 0.2 4.1 -1.7
v 0.2 4.1 -1.9
v 0.2 4.1 -2.1
v 0.2 4.1 -2.3
v 0.2 4.1 -2.5
v 0.2 4.1 -2.7
v 0.2 4.1 -2.9
v 0.2 4.1 -3.1
v 0.2 4.3 -1.5
v 0.2 4.3 -1.7
v 0.2 4.3 -1.9
v 0.2 4.3 -2.1
v 0.2 4.3 -2.3
v 0.2 4.3 -2.5
v 0.2 4.3 -2.7
v 0.2 4.3 -2.9
v 0.2 4.3 -3.1
v 0.2 4.5 -1.3
v 0.2 4.5 -1.5
v 0.2 4.5 -1.7
v 0.2 4.5 -1.9
v 0.2 4.5 -2.1
v 0.2 4.5 -2.3
v 0.2 4.5 -2.5
v 0.2 4.5 -2.7
v 0.2 4.5 -2.9
v 0.2 4.5 -3.1
v 0.2 4.7 -1.5
v 0.2 4.7 -1.7
v 0.2 4.7 -1.9
v 0.2 4.7 -2.1
v 0.2 4.7 -2.3
v 0.2 4.7 -2.5
v 0.2 4.7 -2.7
v 0.2 4.7 -2.9
v 0.2 4.7 -3.1
v 0.2 4.7 -3.3
v 0.2 4.7 -3.5
v 0.2 4.7 -3.7
v 0.2 4.9 -1.7
v 0.2 4.9 -1.9
v 0.2 4.9 -2.1
v 0.2 4.9 -2.3
v 0.2 4.9 -2.5
v 0.2 4.9 -2.7
v 0.2 4.9 -2.9
v 0.2 4.9 -3.1
v 0.2 4.9 -3.3
v 0.2 5.1 -2.9
v 0.2 5.1 -3.1
v 0.2 5.2 -1.9
v 0.2 5.2 -2.1
v 0.2 5.2 -3.3
v 0.2 5.2 -3.5
v 0.2 5.2 -3.7
v 0.2 5.4 -3.3
v 0.2 5.4 -3.5
v 0.2 5.6 -2.9
v 0.2 5.6 -3.1
v 0.2 5.6 -3.3
v 0 2.9 -1.1
v 0 3.5 -1.1
v 0.2 2.9 -1.1
v 0.2 3.5 -1.1
v 0 3.5 -1.3
v 0 3.7 -1.3
v 0 3.9 -1.3
v 0 4.5 -1.3
v 0.2 3.5 -1.3
v 0.2 3.7 -1.3
v 0.2 3.9 -1.3
v 0.2 4.5 -1.3
v 0 4.5 -1.5
v 0 4.7 -1.5
v 0.2 4.5 -1.5
v 0.2 4.7 -1.5
v 0 4.7 -1.7
v 0 4.9 -1.7
v 0.2 4.7 -1.7
v 0.2 4.9 -1.7
v 0 4.9 -1.9
v 0 5.2 -1.9
v 0.2 4.9 -1.9
v 0.2 5.2 -1.9
v 0 4.9 -2.9
v 0 5.1 -2.9
v 0 5.6 -2.9
v 0.2 4.9 -2.9
v 0.2 5.1 -2.9
v 0.2 5.6 -2.9
v 0 4.9 -2.1
v 0 5.2 -2.1
v 0.2 4.9 -2.1
v 0.2 5.2 -2.1
v 0 2.9 -2.3
v 0 3.1 -2.3
v 0.2 2.9 -2.3
v 0.2 3.1 -2.3
v 0 3.1 -2.5
v 0 3.3 -2.5
v 0.2 3.1 -2.5
v 0.2 3.3 -2.5
v 0 3.3 -2.7
v 0 3.5 -2.7
v 0.2 3.3 -2.7
v 0.2 3.5 -2.7
v 0 3.5 -2.9
v 0 3.7 -2.9
v 0 3.9 -2.9
v 0.2 3.5 -2.9
v 0.2 3.7 -2.9
v 0.2 3.9 -2.9
v 0 3.9 -3.1
v 0 4.1 -3.1
v 0 4.3 -3.1
v 0 4.5 -3.1
v 0 4.7 -3.1
v 0.2 3.9 -3.1
v 0.2 4.1 -3.1
v 0.2 4.3 -3.1
v 0.2 4.5 -3.1
v 0.2 4.7 -3.1
v 0 5.4 -3.3
v 0 5.6 -3.3
v 0.2 5.4 -3.3
v 0.2 5.6 -3.3
v 0 5.2 -3.5
v 0 5.4 -3.5
v 0.2 5.2 -3.5
v 0.2 5.4 -3.5
v 0 4.7 -3.7
v 0 5.2 -3.7
v 0.2 4.7 -3.7
v 0.2 5.2 -3.7
v 0 2.9 -1.1
v 0.2 2.9 -1.1
v 0 2.9 -1.7
v 0.2 2.9 -1.7
v 0 2.9 -2.1
v 0.2 2.9 -2.1
v 0 2.9 -2.3
v 0.2 2.9 -2.3
v 0 3.1 -2.3
v 0.2 3.1 -2.3
v 0 3.1 -2.5
v 0.2 3.1 -2.5
v 0 3.3 -2.5
v 0.2 3.3 -2.5
v 0 3.3 -2.7
v 0.2 3.3 -2.7
v 0 3.5 -2.7
v 0.2 3.5 -2.7
v 0 3.5 -2.9
v 0.2 3.5 -2.9
v 0 3.9 -2.9
v 0.2 3.9 -2.9
v 0 3.9 -3.1
v 0.2 3.9 -3.1
v 0 4.7 -3.1
v 0.2 4.7 -3.1
v 0 4.7 -3.3
v 0.2 4.7 -3.3
v 0 4.7 -3.5
v 0.2 4.7 -3.5
v 0 4.7 -3.7
v 0.2 4.7 -3.7
v 0 3.5 -1.1
v 0.2 3.5 -1.1
v 0 3.5 -1.3
v 0.2 3.5 -1.3
v 0 4.5 -1.3
v 0.2 4.5 -1.3
v 0 4.5 -1.5
v 0.2 4.5 -1.5
v 0 4.7 -1.5
v 0.2 4.7 -1.5
v 0 4.7 -1.7
v 0.2 4.7 -1.7
v 0 4.9 -1.7
v 0.2 4.9 -1.7
v 0 4.9 -1.9
v 0.2 4.9 -1.9
v 0 4.9 -2.1
v 0.2 4.9 -2.1
v 0 4.9 -2.3
v 0.2 4.9 -2.3
v 0 4.9 -2.5
v 0.2 4.9 -2.5
v 0 4.9 -2.7
v 0.2 4.9 -2.7
v 0 4.9 -2.9
v 0.2 4.9 -2.9
v 0 5.2 -1.9
v 0.2 5.2 -1.9
v 0 5.2 -2.1
v 0.2 5.2 -2.1
v 0 5.2 -3.5
v 0.2 5.2 -3.5
v 0 5.2 -3.7
v 0.2 5.2 -3.7
v 0 5.4 -3.3
v 0.2 5.4 -3.3
v 0 5.4 -3.5
v 0.2 5.4 -3.5
v 0 5.6 -2.9
v 0.2 5.6 -2.9
v 0 5.6 -3.1
v 0.2 5.6 -3.1
v 0 5.6 -3.3
v 0.2 5.6 -3.3

# faces
f 5/5/1 2/5/1 1/5/1
f 6/5/1 2/5/1 5/5/1
f 7/4/1 3/4/1 2/4/1
f 7/5/1 2/5/1 6/5/1
f 8/4/1 3/4/1 7/4/1
f 9/3/1 4/3/1 3/3/1
f 9/4/1 3/4/1 8/4/1
f 10/3/1 4/3/1 9/3/1
f 12/7/1 6/7/1 5/7/1
f 12/5/1 5/5/1 1/5/1
f 13/5/1 7/5/1 6/5/1
f 13/7/1 6/7/1 12/7/1
f 14/1/1 8/1/1 7/1/1
f 14/5/1 7/5/1 13/5/1
f 15/5/1 9/5/1 8/5/1
f 15/1/1 8/1/1 14/1/1
f 16/4/1 10/4/1 9/4/1
f 16/5/1 9/5/1 15/5/1
f 17/3/1 11/3/1 10/3/1
f 17/4/1 10/4/1 16/4/1
f 18/3/1 11/3/1 17/3/1
f 20/5/1 13/5/1 12/5/1
f 20/5/1 12/5/1 1/5/1
f 21/5/1 13/5/1 20/5/1
f 22/1/1 14/1/1 13/1/1
f 22/5/1 13/5/1 21/5/1
f 23/5/1 15/5/1 14/5/1
f 23/1/1 14/1/1 22/1/1
f 24/1/1 16/1/1 15/1/1
f 24/5/1 15/5/1 23/5/1
f 25/5/1 17/5/1 16/5/1
f 25/1/1 16/1/1 24/1/1
f 26/4/1 18/4/1 17/4/1
f 26/5/1 17/5/1 25/5/1
f 27/3/1 19/3/1 18/3/1
f 27/4/1 18/4/1 26/4/1
f 28/3/1 19/3/1 27/3/1
f 30/1/1 22/1/1 21/1/1
f 31/5/1 23/5/1 22/5/1
f 31/1/1 22/1/1 30/1/1
f 32/1/1 24/1/1 23/1/1
f 32/5/1 23/5/1 31/5/1
f 33/6/1 25/6/1 24/6/1
f 33/1/1 24/1/1 32/1/1
f 34/1/1 26/1/1 25/1/1
f 34/6/1 25/6/1 33/6/1
f 35/5/1 27/5/1 26/5/1
f 35/1/1 26/1/1 34/1/1
f 36/4/1 28/4/1 27/4/1
f 36/5/1 27/5/1 35/5/1
f 37/3/1 29/3/1 28/3/1
f 37/4/1 28/4/1 36/4/1
f 38/3/1 29/3/1 37/3/1
f 39/5/1 31/5/1 30/5/1
f 40/1/1 32/1/1 31/1/1
f 40/5/1 31/5/1 39/5/1
f 41/5/1 33/5/1 32/5/1
f 41/1/1 32/1/1 40/1/1
f 42/1/1 34/1/1 33/1/1
f 42/5/1 33/5/1 41/5/1
f 43/6/1 36/6/1 35/6/1
f 43/1/1 34/1/1 42/1/1
f 43/6/1 35/6/1 34/6/1
f 44/6/1 36/6/1 43/6/1
f 45/5/1 37/5/1 36/5/1
f 45/6/1 36/6/1 44/6/1
f 46/4/1 38/4/1 37/4/1
f 46/5/1 37/5/1 45/5/1
f 47/4/1 38/4/1 46/4/1
f 49/6/1 40/6/1 39/6/1
f 49/5/1 41/5/1 40/5/1
f 50/1/1 42/1/1 41/1/1
f 50/5/1 41/5/1 49/5/1
f 51/5/1 43/5/1 42/5/1
f 51/1/1 42/1/1 50/1/1
f 52/1/1 44/1/1 43/1/1
f 52/5/1 43/5/1 51/5/1
f 53/5/1 45/5/1 44/5/1
f 53/1/1 44/1/1 52/1/1
f 54/1/1 46/1/1 45/1/1
f 54/5/1 45/5/1 53/5/1
f 55/5/1 47/5/1 46/5/1
f 55/1/1 46/1/1 54/1/1
f 56/2/1 48/2/1 47/2/1
f 56/5/1 47/5/1 55/5/1
f 57/2/1 48/2/1 56/2/1
f 58/6/1 49/6/1 39/6/1
f 58/1/1 50/1/1 49/1/1
f 59/5/1 51/5/1 50/5/1
f 59/1/1 50/1/1 58/1/1
f 60/1/1 52/1/1 51/1/1
f 60/5/1 51/5/1 59/5/1
f 61/5/1 53/5/1 52/5/1
f 61/1/1 52/1/1 60/1/1
f 62/1/1 54/1/1 53/1/1
f 62/5/1 53/5/1 61/5/1
f 63/5/1 55/5/1 54/5/1
f 63/1/1 54/1/1 62/1/1
f 64/1/1 56/1/1 55/1/1
f 64/5/1 55/5/1 63/5/1
f 65/4/1 57/4/1 56/4/1
f 65/1/1 56/1/1 64/1/1
f 66/4/1 57/4/1 65/4/1
f 67/6/1 59/6/1 58/6/1
f 67/6/1 58/6/1 39/6/1
f 68/6/1 59/6/1 67/6/1
f 69/1/1 60/1/1 59/1/1
f 69/6/1 59/6/1 68/6/1
f 70/5/1 61/5/1 60/5/1
f 70/1/1 60/1/1 69/1/1
f 71/1/1 62/1/1 61/1/1
f 71/5/1 61/5/1 70/5/1
f 72/5/1 63/5/1 62/5/1
f 72/1/1 62/1/1 71/1/1
f 73/1/1 64/1/1 63/1/1
f 73/5/1 63/5/1 72/5/1
f 74/5/1 65/5/1 64/5/1
f 74/1/1 64/1/1 73/1/1
f 75/3/1 66/3/1 65/3/1
f 75/5/1 65/5/1 74/5/1
f 76/3/1 66/3/1 75/3/1
f 77/6/1 70/6/1 69/6/1
f 77/6/1 69/6/1 68/6/1
f 78/6/1 70/6/1 77/6/1
f 79/1/1 71/1/1 70/1/1
f 79/6/1 70/6/1 78/6/1
f 80/5/1 72/5/1 71/5/1
f 80/1/1 71/1/1 79/1/1
f 81/1/1 73/1/1 72/1/1
f 81/5/1 72/5/1 80/5/1
f 82/5/1 74/5/1 73/5/1
f 82/1/1 73/1/1 81/1/1
f 83/1/1 75/1/1 74/1/1
f 83/5/1 74/5/1 82/5/1
f 84/4/1 76/4/1 75/4/1
f 84/1/1 75/1/1 83/1/1
f 85/4/1 76/4/1 84/4/1
f 89/6/1 81/6/1 80/6/1
f 89/6/1 79/6/1 78/6/1
f 89/6/1 80/6/1 79/6/1
f 90/6/1 81/6/1 89/6/1
f 91/6/1 81/6/1 90/6/1
f 92/5/1 82/5/1 81/5/1
f 92/6/1 81/6/1 91/6/1
f 93/1/1 83/1/1 82/1/1
f 93/5/1 82/5/1 92/5/1
f 94/5/1 84/5/1 83/5/1
f 94/1/1 83/1/1 93/1/1
f 95/1/1 85/1/1 84/1/1
f 95/5/1 84/5/1 94/5/1
f 96/2/1 86/2/1 85/2/1
f 96/1/1 85/1/1 95/1/1
f 97/4/1 87/4/1 86/4/1
f 97/2/1 86/2/1 96/2/1
f 98/1/1 97/1/1 96/1/1
f 98/1/1 96/1/1 95/1/1
f 99/1/1 97/1/1 98/1/1
f 100/6/1 91/6/1 90/6/1
f 101/6/1 91/6/1 100/6/1
f 102/4/1 87/4/1 97/4/1
f 102/1/1 97/1/1 99/1/1
f 103/2/1 88/2/1 87/2/1
f 103/4/1 87/4/1 102/4/1
f 104/2/1 88/2/1 103/2/1
f 105/1/1 102/1/1 99/1/1
f 105/6/1 103/6/1 102/6/1
f 106/6/1 103/6/1 105/6/1
f 107/6/1 99/6/1 98/6/1
f 108/1/1 105/1/1 99/1/1
f 108/6/1 99/6/1 107/6/1
f 109/1/1 105/1/1 108/1/1
f 110/5/2 111/5/2 114/5/2
f 114/5/2 111/5/2 115/5/2
f 111/4/2 112/4/2 116/4/2
f 115/5/2 111/5/2 116/5/2
f 116/4/2 112/4/2 117/4/2
f 112/3/2 113/3/2 118/3/2
f 117/4/2 112/4/2 118/4/2
f 118/3/2 113/3/2 119/3/2
f 114/7/2 115/7/2 121/7/2
f 110/5/2 114/5/2 121/5/2
f 115/5/2 116/5/2 122/5/2
f 121/7/2 115/7/2 122/7/2
f 116/1/2 117/1/2 123/1/2
f 122/5/2 116/5/2 123/5/2
f 117/5/2 118/5/2 124/5/2
f 123/1/2 117/1/2 124/1/2
f 118/4/2 119/4/2 125/4/2
f 124/5/2 118/5/2 125/5/2
f 119/3/2 120/3/2 126/3/2
f 125/4/2 119/4/2 126/4/2
f 126/3/2 120/3/2 127/3/2
f 121/5/2 122/5/2 129/5/2
f 110/5/2 121/5/2 129/5/2
f 129/5/2 122/5/2 130/5/2
f 122/1/2 123/1/2 131/1/2
f 130/5/2 122/5/2 131/5/2
f 123/5/2 124/5/2 132/5/2
f 131/1/2 123/1/2 132/1/2
f 124/1/2 125/1/2 133/1/2
f 132/5/2 124/5/2 133/5/2
f 125/5/2 126/5/2 134/5/2
f 133/1/2 125/1/2 134/1/2
f 126/4/2 127/4/2 135/4/2
f 134/5/2 126/5/2 135/5/2
f 127/3/2 128/3/2 136/3/2
f 135/4/2 127/4/2 136/4/2
f 136/3/2 128/3/2 137/3/2
f 130/1/2 131/1/2 139/1/2
f 131/5/2 132/5/2 140/5/2
f 139/1/2 131/1/2 140/1/2
f 132/1/2 133/1/2 141/1/2
f 140/5/2 132/5/2 141/5/2
f 133/6/2 134/6/2 142/6/2
f 141/1/2 133/1/2 142/1/2
f 134/1/2 135/1/2 143/1/2
f 142/6/2 134/6/2 143/6/2
f 135/5/2 136/5/2 144/5/2
f 143/1/2 135/1/2 144/1/2
f 136/4/2 137/4/2 145/4/2
f 144/5/2 136/5/2 145/5/2
f 137/3/2 138/3/2 146/3/2
f 145/4/2 137/4/2 146/4/2
f 146/3/2 138/3/2 147/3/2
f 139/5/2 140/5/2 148/5/2
f 140/1/2 141/1/2 149/1/2
f 148/5/2 140/5/2 149/5/2
f 141/5/2 142/5/2 150/5/2
f 149/1/2 141/1/2 150/1/2
f 142/1/2 143/1/2 151/1/2
f 150/5/2 142/5/2 151/5/2
f 144/6/2 145/6/2 152/6/2
f 151/1/2 143/1/2 152/1/2
f 143/6/2 144/6/2 152/6/2
f 152/6/2 145/6/2 153/6/2
f 145/5/2 146/5/2 154/5/2
f 153/6/2 145/6/2 154/6/2
f 146/4/2 147/4/2 155/4/2
f 154/5/2 146/5/2 155/5/2
f 155/4/2 147/4/2 156/4/2
f 148/6/2 149/6/2 158/6/2
f 149/5/2 150/5/2 158/5/2
f 150/1/2 151/1/2 159/1/2
f 158/5/2 150/5/2 159/5/2
f 151/5/2 152/5/2 160/5/2
f 159/1/2 151/1/2 160/1/2
f 152/1/2 153/1/2 161/1/2
f 160/5/2 152/5/2 161/5/2
f 153/5/2 154/5/2 162/5/2
f 161/1/2 153/1/2 162/1/2
f 154/1/2 155/1/2 163/1/2
f 162/5/2 154/5/2 163/5/2
f 155/5/2 156/5/2 164/5/2
f 163/1/2 155/1/2 164/1/2
f 156/2/2 157/2/2 165/2/2
f 164/5/2 156/5/2 165/5/2
f 165/2/2 157/2/2 166/2/2
f 148/6/2 158/6/2 167/6/2
f 158/1/2 159/1/2 167/1/2
f 159/5/2 160/5/2 168/5/2
f 167/1/2 159/1/2 168/1/2
f 160/1/2 161/1/2 169/1/2
f 168/5/2 160/5/2 169/5/2
f 161/5/2 162/5/2 170/5/2
f 169/1/2 161/1/2 170/1/2
f 162/1/2 163/1/2 171/1/2
f 170/5/2 162/5/2 171/5/2
f 163/5/2 164/5/2 172/5/2
f 171/1/2 163/1/2 172/1/2
f 164/1/2 165/1/2 173/1/2
f 172/5/2 164/5/2 173/5/2
f 165/4/2 166/4/2 174/4/2
f 173/1/2 165/1/2 174/1/2
f 174/4/2 166/4/2 175/4/2
f 167/6/2 168/6/2 176/6/2
f 148/6/2 167/6/2 176/6/2
f 176/6/2 168/6/2 177/6/2
f 168/1/2 169/1/2 178/1/2
f 177/6/2 168/6/2 178/6/2
f 169/5/2 170/5/2 179/5/2
f 178/1/2 169/1/2 179/1/2
f 170/1/2 171/1/2 180/1/2
f 179/5/2 170/5/2 180/5/2
f 171/5/2 172/5/2 181/5/2
f 180/1/2 171/1/2 181/1/2
f 172/1/2 173/1/2 182/1/2
f 181/5/2 172/5/2 182/5/2
f 173/5/2 174/5/2 183/5/2
f 182/1/2 173/1/2 183/1/2
f 174/3/2 175/3/2 184/3/2
f 183/5/2 174/5/2 184/5/2
f 184/3/2 175/3/2 185/3/2
f 178/6/2 179/6/2 186/6/2
f 177/6/2 178/6/2 186/6/2
f 186/6/2 179/6/2 187/6/2
f 179/1/2 180/1/2 188/1/2
f 187/6/2 179/6/2 188/6/2
f 180/5/2 181/5/2 189/5/2
f 188/1/2 180/1/2 189/1/2
f 181/1/2 182/1/2 190/1/2
f 189/5/2 181/5/2 190/5/2
f 182/5/2 183/5/2 191/5/2
f 190/1/2 182/1/2 191/1/2
f 183/1/2 184/1/2 192/1/2
f 191/5/2 183/5/2 192/5/2
f 184/4/2 185/4/2 193/4/2
f 192/1/2 184/1/2 193/1/2
f 193/4/2 185/4/2 194/4/2
f 189/6/2 190/6/2 198/6/2
f 187/6/2 188/6/2 198/6/2
f 188/6/2 189/6/2 198/6/2
f 198/6/2 190/6/2 199/6/2
f 199/6/2 190/6/2 200/6/2
f 190/5/2 191/5/2 201/5/2
f 200/6/2 190/6/2 201/6/2
f 191/1/2 192/1/2 202/1/2
f 201/5/2 191/5/2 202/5/2
f 192/5/2 193/5/2 203/5/2
f 202/1/2 192/1/2 203/1/2
f 193/1/2 194/1/2 204/1/2
f 203/5/2 193/5/2 204/5/2
f 194/2/2 195/2/2 205/2/2
f 204/1/2 194/1/2 205/1/2
f 195/4/2 196/4/2 206/4/2
f 205/2/2 195/2/2 206/2/2
f 205/1/2 206/1/2 207/1/2
f 204/1/2 205/1/2 207/1/2
f 207/1/2 206/1/2 208/1/2
f 199/6/2 200/6/2 209/6/2
f 209/6/2 200/6/2 210/6/2
f 206/4/2 196/4/2 211/4/2
f 208/1/2 206/1/2 211/1/2
f 196/2/2 197/2/2 212/2/2
f 211/4/2 196/4/2 212/4/2
f 212/2/2 197/2/2 213/2/2
f 208/1/2 211/1/2 214/1/2
f 211/6/2 212/6/2 214/6/2
f 214/6/2 212/6/2 215/6/2
f 207/6/2 208/6/2 216/6/2
f 208/1/2 214/1/2 217/1/2
f 216/6/2 208/6/2 217/6/2
f 217/1/2 214/1/2 218/1/2
f 221/5/3 220/5/3 219/5/3
f 222/5/3 220/5/3 221/5/3
f 227/1/3 224/1/3 223/1/3
f 228/5/3 225/5/3 224/5/3
f 228/1/3 224/1/3 227/1/3
f 229/6/3 226/6/3 225/6/3
f 229/5/3 225/5/3 228/5/3
f 230/6/3 226/6/3 229/6/3
f 233/6/3 232/6/3 231/6/3
f 234/6/3 232/6/3 233/6/3
f 237/6/3 236/6/3 235/6/3
f 238/6/3 236/6/3 237/6/3
f 241/6/3 240/6/3 239/6/3
f 242/6/3 240/6/3 241/6/3
f 246/1/3 244/1/3 243/1/3
f 247/6/3 245/6/3 244/6/3
f 247/1/3 244/1/3 246/1/3
f 248/6/3 245/6/3 247/6/3
f 249/6/4 250/6/4 251/6/4
f 251/6/4 250/6/4 252/6/4
f 253/3/4 254/3/4 255/3/4
f 255/3/4 254/3/4 256/3/4
f 257/3/4 258/3/4 259/3/4
f 259/3/4 258/3/4 260/3/4
f 261/3/4 262/3/4 263/3/4
f 263/3/4 262/3/4 264/3/4
f 265/3/4 266/3/4 268/3/4
f 266/4/4 267/4/4 269/4/4
f 268/3/4 266/3/4 269/3/4
f 269/4/4 267/4/4 270/4/4
f 271/2/4 272/2/4 276/2/4
f 272/4/4 273/4/4 277/4/4
f 276/2/4 272/2/4 277/2/4
f 273/3/4 274/3/4 278/3/4
f 277/4/4 273/4/4 278/4/4
f 274/4/4 275/4/4 279/4/4
f 278/3/4 274/3/4 279/3/4
f 279/4/4 275/4/4 280/4/4
f 281/1/4 282/1/4 283/1/4
f 283/1/4 282/1/4 284/1/4
f 285/6/4 286/6/4 287/6/4
f 287/6/4 286/6/4 288/6/4
f 289/2/4 290/2/4 291/2/4
f 291/2/4 290/2/4 292/2/4
f 295/5/5 294/5/5 293/5/5
f 296/5/5 294/5/5 295/5/5
f 297/4/5 296/4/5 295/4/5
f 298/4/5 296/4/5 297/4/5
f 299/3/5 298/3/5 297/3/5
f 300/3/5 298/3/5 299/3/5
f 303/3/5 302/3/5 301/3/5
f 304/3/5 302/3/5 303/3/5
f 307/3/5 306/3/5 305/3/5
f 308/3/5 306/3/5 307/3/5
f 311/3/5 310/3/5 309/3/5
f 312/3/5 310/3/5 311/3/5
f 315/2/5 314/2/5 313/2/5
f 316/2/5 314/2/5 315/2/5
f 319/2/5 318/2/5 317/2/5
f 320/2/5 318/2/5 319/2/5
f 321/4/5 320/4/5 319/4/5
f 322/4/5 320/4/5 321/4/5
f 323/2/5 322/2/5 321/2/5
f 324/2/5 322/2/5 323/2/5
f 325/5/6 326/5/6 327/5/6
f 327/5/6 326/5/6 328/5/6
f 329/6/6 330/6/6 331/6/6
f 331/6/6 330/6/6 332/6/6
f 333/6/6 334/6/6 335/6/6
f 335/6/6 334/6/6 336/6/6
f 337/6/6 338/6/6 339/6/6
f 339/6/6 338/6/6 340/6/6
f 341/6/6 342/6/6 343/6/6
f 343/6/6 342/6/6 344/6/6
f 343/5/6 344/5/6 345/5/6
f 345/5/6 344/5/6 346/5/6
f 345/1/6 346/1/6 347/1/6
f 347/1/6 346/1/6 348/1/6
f 347/5/6 348/5/6 349/5/6
f 349/5/6 348/5/6 350/5/6
f 351/6/6 352/6/6 353/6/6
f 353/6/6 352/6/6 354/6/6
f 355/2/6 356/2/6 357/2/6
f 357/2/6 356/2/6 358/2/6
f 359/6/6 360/6/6 361/6/6
f 361/6/6 360/6/6 362/6/6
f 363/6/6 364/6/6 365/6/6
f 365/6/6 364/6/6 366/6/6
f 365/1/6 366/1/6 367/1/6
f 367/1/6 366/1/6 368/1/6
