# MagicaVoxel @ Ephtracy

# group
o 

# material
mtllib sakana.fry.mtl
usemtl palette

# normals
vn -1 0 0
vn 1 0 0
vn 0 0 1
vn 0 0 -1
vn 0 -1 0
vn 0 1 0

# texcoords
vt 0.0292969 0.5
vt 0.0566406 0.5
vt 0.373047 0.5
vt 0.388672 0.5

# verts
v 0 2.9 -1.2
v 0 2.9 -2.4
v 0 3.1 -2.4
v 0 3.1 -2.6
v 0 3.3 -2.6
v 0 3.3 -2.8
v 0 3.5 -2.8
v 0 3.5 -3
v 0 3.6 -1.2
v 0 3.6 -1.4
v 0 3.6 -1.6
v 0 3.9 -3
v 0 3.9 -3.2
v 0 4.1 -1.6
v 0 4.1 -1.8
v 0 4.3 -1.4
v 0 4.3 -1.6
v 0 4.4 -1.8
v 0 4.4 -2
v 0 4.6 -1.6
v 0 4.6 -1.8
v 0 4.6 -3.1
v 0 4.6 -3.2
v 0 4.7 -3
v 0 4.7 -3.1
v 0 4.7 -3.2
v 0 4.7 -3.7
v 0 4.8 -1.8
v 0 4.8 -2
v 0 4.8 -2.2
v 0 4.8 -3
v 0 4.8 -3.1
v 0 4.8 -3.2
v 0 5 -2
v 0 5 -2.2
v 0 5 -3
v 0 5 -3.1
v 0 5.2 -3.6
v 0 5.2 -3.7
v 0 5.4 -3.4
v 0 5.4 -3.6
v 0 5.6 -3
v 0 5.6 -3.4
v 0.2 2.9 -1.2
v 0.2 2.9 -2.4
v 0.2 3.1 -2.4
v 0.2 3.1 -2.6
v 0.2 3.3 -2.6
v 0.2 3.3 -2.8
v 0.2 3.5 -2.8
v 0.2 3.5 -3
v 0.2 3.6 -1.2
v 0.2 3.6 -1.4
v 0.2 3.6 -1.6
v 0.2 3.9 -3
v 0.2 3.9 -3.2
v 0.2 4.1 -1.6
v 0.2 4.1 -1.8
v 0.2 4.3 -1.4
v 0.2 4.3 -1.6
v 0.2 4.4 -1.8
v 0.2 4.4 -2
v 0.2 4.6 -1.6
v 0.2 4.6 -1.8
v 0.2 4.6 -2
v 0.2 4.6 -2.2
v 0.2 4.6 -3
v 0.2 4.6 -3.2
v 0.2 4.7 -3.2
v 0.2 4.7 -3.7
v 0.2 4.8 -1.8
v 0.2 4.8 -2
v 0.2 4.8 -2.2
v 0.2 4.8 -3
v 0.2 5 -2
v 0.2 5 -2.2
v 0.2 5 -3
v 0.2 5 -3.2
v 0.2 5.2 -3.6
v 0.2 5.2 -3.7
v 0.2 5.4 -3.4
v 0.2 5.4 -3.6
v 0.2 5.6 -3
v 0.2 5.6 -3.4
v 0 2.9 -1.2
v 0 3.6 -1.2
v 0.2 2.9 -1.2
v 0.2 3.6 -1.2
v 0 3.6 -1.4
v 0 4.3 -1.4
v 0.2 3.6 -1.4
v 0.2 4.3 -1.4
v 0 4.3 -1.6
v 0 4.6 -1.6
v 0.2 4.3 -1.6
v 0.2 4.6 -1.6
v 0 4.6 -1.8
v 0 4.8 -1.8
v 0.2 4.6 -1.8
v 0.2 4.8 -1.8
v 0 4.8 -2
v 0 5 -2
v 0.1 4.8 -2
v 0.1 5 -2
v 0.2 4.8 -2
v 0.2 5 -2
v 0 4.8 -3
v 0 5 -3
v 0 5.6 -3
v 0.2 4.8 -3
v 0.2 5 -3
v 0.2 5.6 -3
v 0 4.8 -2.2
v 0 5 -2.2
v 0.1 4.8 -2.2
v 0.1 5 -2.2
v 0.2 4.8 -2.2
v 0.2 5 -2.2
v 0 2.9 -2.4
v 0 3.1 -2.4
v 0.2 2.9 -2.4
v 0.2 3.1 -2.4
v 0 3.1 -2.6
v 0 3.3 -2.6
v 0.2 3.1 -2.6
v 0.2 3.3 -2.6
v 0 3.3 -2.8
v 0 3.5 -2.8
v 0.2 3.3 -2.8
v 0.2 3.5 -2.8
v 0 3.5 -3
v 0 3.9 -3
v 0.2 3.5 -3
v 0.2 3.9 -3
v 0 3.9 -3.2
v 0 4.6 -3.2
v 0 4.7 -3.2
v 0.2 3.9 -3.2
v 0.2 4.6 -3.2
v 0.2 4.7 -3.2
v 0 5.4 -3.4
v 0 5.6 -3.4
v 0.2 5.4 -3.4
v 0.2 5.6 -3.4
v 0 5.2 -3.6
v 0 5.4 -3.6
v 0.2 5.2 -3.6
v 0.2 5.4 -3.6
v 0 4.7 -3.7
v 0 5.2 -3.7
v 0.2 4.7 -3.7
v 0.2 5.2 -3.7
v 0 2.9 -1.2
v 0.2 2.9 -1.2
v 0 2.9 -2.4
v 0.2 2.9 -2.4
v 0 3.1 -2.4
v 0.2 3.1 -2.4
v 0 3.1 -2.6
v 0.2 3.1 -2.6
v 0 3.3 -2.6
v 0.2 3.3 -2.6
v 0 3.3 -2.8
v 0.2 3.3 -2.8
v 0 3.5 -2.8
v 0.2 3.5 -2.8
v 0 3.5 -3
v 0.2 3.5 -3
v 0 3.9 -3
v 0.2 3.9 -3
v 0 3.9 -3.2
v 0.2 3.9 -3.2
v 0 4.7 -3.2
v 0.2 4.7 -3.2
v 0 4.7 -3.7
v 0.2 4.7 -3.7
v 0 3.6 -1.2
v 0.2 3.6 -1.2
v 0 3.6 -1.4
v 0.2 3.6 -1.4
v 0 4.3 -1.4
v 0.2 4.3 -1.4
v 0 4.3 -1.6
v 0.2 4.3 -1.6
v 0 4.6 -1.6
v 0.2 4.6 -1.6
v 0 4.6 -1.8
v 0.2 4.6 -1.8
v 0 4.8 -1.8
v 0.2 4.8 -1.8
v 0 4.8 -2
v 0.1 4.8 -2
v 0.2 4.8 -2
v 0 4.8 -2.2
v 0.1 4.8 -2.2
v 0.2 4.8 -2.2
v 0 4.8 -3
v 0.2 4.8 -3
v 0 5 -2
v 0.1 5 -2
v 0.2 5 -2
v 0 5 -2.2
v 0.1 5 -2.2
v 0.2 5 -2.2
v 0 5.2 -3.6
v 0.2 5.2 -3.6
v 0 5.2 -3.7
v 0.2 5.2 -3.7
v 0 5.4 -3.4
v 0.2 5.4 -3.4
v 0 5.4 -3.6
v 0.2 5.4 -3.6
v 0 5.6 -3
v 0.2 5.6 -3
v 0 5.6 -3.4
v 0.2 5.6 -3.4

# faces
f 3/3/1 2/3/1 1/3/1
f 5/3/1 4/3/1 3/3/1
f 7/3/1 6/3/1 5/3/1
f 9/3/1 3/3/1 1/3/1
f 9/3/1 8/3/1 7/3/1
f 9/3/1 7/3/1 5/3/1
f 9/3/1 5/3/1 3/3/1
f 10/3/1 8/3/1 9/3/1
f 11/3/1 8/3/1 10/3/1
f 12/3/1 8/3/1 11/3/1
f 14/4/1 11/4/1 10/4/1
f 14/3/1 13/3/1 12/3/1
f 14/3/1 12/3/1 11/3/1
f 15/3/1 13/3/1 14/3/1
f 16/4/1 14/4/1 10/4/1
f 16/4/1 15/4/1 14/4/1
f 17/4/1 15/4/1 16/4/1
f 18/3/1 13/3/1 15/3/1
f 18/4/1 15/4/1 17/4/1
f 19/3/1 13/3/1 18/3/1
f 20/4/1 18/4/1 17/4/1
f 20/4/1 19/4/1 18/4/1
f 21/4/1 19/4/1 20/4/1
f 22/3/1 13/3/1 19/3/1
f 23/3/1 13/3/1 22/3/1
f 24/3/1 22/3/1 19/3/1
f 25/1/1 23/1/1 22/1/1
f 25/3/1 22/3/1 24/3/1
f 26/1/1 23/1/1 25/1/1
f 28/4/1 19/4/1 21/4/1
f 29/3/1 24/3/1 19/3/1
f 29/4/1 19/4/1 28/4/1
f 30/3/1 24/3/1 29/3/1
f 31/1/1 26/1/1 25/1/1
f 31/3/1 24/3/1 30/3/1
f 31/1/1 25/1/1 24/1/1
f 32/1/1 26/1/1 31/1/1
f 33/2/1 27/2/1 26/2/1
f 33/1/1 26/1/1 32/1/1
f 34/3/1 30/3/1 29/3/1
f 35/3/1 30/3/1 34/3/1
f 36/1/1 32/1/1 31/1/1
f 37/2/1 33/2/1 32/2/1
f 37/1/1 32/1/1 36/1/1
f 38/2/1 33/2/1 37/2/1
f 38/2/1 37/2/1 36/2/1
f 38/2/1 27/2/1 33/2/1
f 39/2/1 27/2/1 38/2/1
f 40/2/1 38/2/1 36/2/1
f 41/2/1 38/2/1 40/2/1
f 42/2/1 40/2/1 36/2/1
f 43/2/1 40/2/1 42/2/1
f 44/3/2 45/3/2 46/3/2
f 46/3/2 47/3/2 48/3/2
f 48/3/2 49/3/2 50/3/2
f 44/3/2 46/3/2 52/3/2
f 50/3/2 51/3/2 52/3/2
f 48/3/2 50/3/2 52/3/2
f 46/3/2 48/3/2 52/3/2
f 52/3/2 51/3/2 53/3/2
f 53/3/2 51/3/2 54/3/2
f 54/3/2 51/3/2 55/3/2
f 53/4/2 54/4/2 57/4/2
f 55/3/2 56/3/2 57/3/2
f 54/3/2 55/3/2 57/3/2
f 57/3/2 56/3/2 58/3/2
f 53/4/2 57/4/2 59/4/2
f 57/4/2 58/4/2 59/4/2
f 59/4/2 58/4/2 60/4/2
f 58/3/2 56/3/2 61/3/2
f 60/4/2 58/4/2 61/4/2
f 61/3/2 56/3/2 62/3/2
f 60/4/2 61/4/2 63/4/2
f 61/4/2 62/4/2 63/4/2
f 63/4/2 62/4/2 64/4/2
f 62/3/2 56/3/2 65/3/2
f 64/4/2 62/4/2 65/4/2
f 65/3/2 56/3/2 66/3/2
f 66/3/2 56/3/2 67/3/2
f 67/3/2 56/3/2 68/3/2
f 67/1/2 68/1/2 69/1/2
f 64/4/2 65/4/2 71/4/2
f 65/4/2 66/4/2 71/4/2
f 71/4/2 66/4/2 72/4/2
f 66/3/2 67/3/2 73/3/2
f 72/4/2 66/4/2 73/4/2
f 67/1/2 69/1/2 74/1/2
f 73/3/2 67/3/2 74/3/2
f 72/4/2 73/4/2 75/4/2
f 75/4/2 73/4/2 76/4/2
f 74/1/2 69/1/2 77/1/2
f 69/2/2 70/2/2 78/2/2
f 77/1/2 69/1/2 78/1/2
f 78/2/2 70/2/2 79/2/2
f 77/2/2 78/2/2 79/2/2
f 79/2/2 70/2/2 80/2/2
f 77/2/2 79/2/2 81/2/2
f 81/2/2 79/2/2 82/2/2
f 77/2/2 81/2/2 83/2/2
f 83/2/2 81/2/2 84/2/2
f 87/3/3 86/3/3 85/3/3
f 88/3/3 86/3/3 87/3/3
f 91/4/3 90/4/3 89/4/3
f 92/4/3 90/4/3 91/4/3
f 95/4/3 94/4/3 93/4/3
f 96/4/3 94/4/3 95/4/3
f 99/4/3 98/4/3 97/4/3
f 100/4/3 98/4/3 99/4/3
f 103/3/3 102/3/3 101/3/3
f 104/3/3 102/3/3 103/3/3
f 105/4/3 104/4/3 103/4/3
f 106/4/3 104/4/3 105/4/3
f 110/1/3 108/1/3 107/1/3
f 111/2/3 109/2/3 108/2/3
f 111/1/3 108/1/3 110/1/3
f 112/2/3 109/2/3 111/2/3
f 113/3/4 114/3/4 115/3/4
f 115/3/4 114/3/4 116/3/4
f 115/4/4 116/4/4 117/4/4
f 117/4/4 116/4/4 118/4/4
f 119/3/4 120/3/4 121/3/4
f 121/3/4 120/3/4 122/3/4
f 123/3/4 124/3/4 125/3/4
f 125/3/4 124/3/4 126/3/4
f 127/3/4 128/3/4 129/3/4
f 129/3/4 128/3/4 130/3/4
f 131/3/4 132/3/4 133/3/4
f 133/3/4 132/3/4 134/3/4
f 135/3/4 136/3/4 138/3/4
f 136/1/4 137/1/4 139/1/4
f 138/3/4 136/3/4 139/3/4
f 139/1/4 137/1/4 140/1/4
f 141/2/4 142/2/4 143/2/4
f 143/2/4 142/2/4 144/2/4
f 145/2/4 146/2/4 147/2/4
f 147/2/4 146/2/4 148/2/4
f 149/2/4 150/2/4 151/2/4
f 151/2/4 150/2/4 152/2/4
f 155/3/5 154/3/5 153/3/5
f 156/3/5 154/3/5 155/3/5
f 159/3/5 158/3/5 157/3/5
f 160/3/5 158/3/5 159/3/5
f 163/3/5 162/3/5 161/3/5
f 164/3/5 162/3/5 163/3/5
f 167/3/5 166/3/5 165/3/5
f 168/3/5 166/3/5 167/3/5
f 171/3/5 170/3/5 169/3/5
f 172/3/5 170/3/5 171/3/5
f 175/2/5 174/2/5 173/2/5
f 176/2/5 174/2/5 175/2/5
f 177/3/6 178/3/6 179/3/6
f 179/3/6 178/3/6 180/3/6
f 181/4/6 182/4/6 183/4/6
f 183/4/6 182/4/6 184/4/6
f 185/4/6 186/4/6 187/4/6
f 187/4/6 186/4/6 188/4/6
f 189/4/6 190/4/6 191/4/6
f 191/4/6 190/4/6 192/4/6
f 192/4/6 190/4/6 193/4/6
f 194/3/6 195/3/6 197/3/6
f 195/3/6 196/3/6 197/3/6
f 197/3/6 196/3/6 198/3/6
f 199/3/6 200/3/6 202/3/6
f 200/4/6 201/4/6 203/4/6
f 202/3/6 200/3/6 203/3/6
f 203/4/6 201/4/6 204/4/6
f 205/2/6 206/2/6 207/2/6
f 207/2/6 206/2/6 208/2/6
f 209/2/6 210/2/6 211/2/6
f 211/2/6 210/2/6 212/2/6
f 213/2/6 214/2/6 215/2/6
f 215/2/6 214/2/6 216/2/6
