# MagicaVoxel @ Ephtracy

# group
o 

# material
mtllib sisyou.mtl
usemtl palette

# normals
vn -1 0 0
vn 1 0 0
vn 0 0 1
vn 0 0 -1
vn 0 -1 0
vn 0 1 0

# texcoords
vt 0.908203 0.5
vt 0.912109 0.5
vt 0.916016 0.5
vt 0.919922 0.5
vt 0.923828 0.5
vt 0.939453 0.5
vt 0.943359 0.5
vt 0.951172 0.5
vt 0.958984 0.5
vt 0.962891 0.5
vt 0.966797 0.5
vt 0.970703 0.5
vt 0.974609 0.5
vt 0.978516 0.5
vt 0.982422 0.5
vt 0.990234 0.5

# verts
v 2.1 5.2 -3.6
v 2.1 5.2 -4.5
v 2.1 6.8 -3.6
v 2.1 6.8 -4.5
v 2.1 6.9 -3.6
v 2.1 6.9 -4.5
v 2.1 7.7 -3.6
v 2.1 7.7 -4.5
v 2.7 2 -3.6
v 2.7 2 -4.5
v 2.7 2.1 -3.6
v 2.7 2.1 -4.5
v 2.7 2.2 -3.6
v 2.7 2.2 -3.8
v 2.7 2.3 -3.6
v 2.7 2.3 -3.8
v 2.7 2.3 -3.9
v 2.7 2.4 -3.8
v 2.7 2.4 -3.9
v 2.7 2.4 -4
v 2.7 2.5 -3.9
v 2.7 2.5 -4
v 2.7 2.5 -4.5
v 2.7 2.6 -3.6
v 2.7 2.6 -4
v 2.7 2.6 -4.5
v 2.7 4.1 -3.6
v 2.7 4.1 -3.9
v 2.7 4.2 -3.9
v 2.7 4.2 -4.2
v 2.7 4.3 -4.2
v 2.7 4.3 -4.3
v 2.7 4.4 -4.3
v 2.7 4.4 -4.4
v 2.7 4.5 -4.4
v 2.7 4.5 -4.5
v 2.7 5.2 -3.6
v 2.7 5.2 -4.5
v 2.9 7.7 -3.6
v 2.9 7.7 -4.5
v 2.9 7.8 -3.5
v 2.9 7.8 -3.6
v 2.9 7.8 -4.1
v 2.9 7.8 -4.2
v 2.9 7.8 -4.5
v 2.9 7.8 -4.7
v 2.9 7.9 -3.6
v 2.9 7.9 -3.7
v 2.9 7.9 -3.8
v 2.9 7.9 -4
v 2.9 7.9 -4.1
v 2.9 7.9 -4.2
v 2.9 8 -3.9
v 2.9 8 -4
v 2.9 8 -4.1
v 2.9 8.1 -3.5
v 2.9 8.1 -3.7
v 2.9 8.1 -3.8
v 2.9 8.1 -3.9
v 2.9 8.1 -4
v 2.9 8.1 -4.5
v 2.9 8.1 -4.7
v 2.9 8.2 -3.6
v 2.9 8.2 -3.7
v 2.9 8.2 -3.8
v 2.9 8.2 -3.9
v 2.9 8.2 -4
v 2.9 8.2 -4.3
v 2.9 8.2 -4.5
v 2.9 8.3 -3.5
v 2.9 8.3 -3.6
v 2.9 8.3 -4.1
v 2.9 8.3 -4.3
v 2.9 8.4 -3.6
v 2.9 8.4 -3.7
v 2.9 8.4 -3.9
v 2.9 8.4 -4
v 2.9 8.5 -3.5
v 2.9 8.5 -3.7
v 2.9 8.5 -3.9
v 2.9 8.5 -4.1
v 2.9 9 -3.5
v 2.9 9 -4.7
v 4 7.7 -3.6
v 4 7.7 -4.5
v 4 7.8 -3.5
v 4 7.8 -3.6
v 4 7.8 -4.1
v 4 7.8 -4.2
v 4 7.8 -4.5
v 4 7.8 -4.7
v 4 7.9 -3.6
v 4 7.9 -3.7
v 4 7.9 -3.8
v 4 7.9 -4
v 4 7.9 -4.1
v 4 7.9 -4.2
v 4 8 -3.9
v 4 8 -4
v 4 8 -4.1
v 4 8.1 -3.5
v 4 8.1 -3.7
v 4 8.1 -3.8
v 4 8.1 -3.9
v 4 8.1 -4
v 4 8.1 -4.5
v 4 8.1 -4.7
v 4 8.2 -3.6
v 4 8.2 -3.7
v 4 8.2 -3.8
v 4 8.2 -3.9
v 4 8.2 -4
v 4 8.2 -4.3
v 4 8.2 -4.5
v 4 8.3 -3.5
v 4 8.3 -3.6
v 4 8.3 -4.1
v 4 8.3 -4.3
v 4 8.4 -3.6
v 4 8.4 -3.7
v 4 8.4 -3.9
v 4 8.4 -4
v 4 8.5 -3.5
v 4 8.5 -3.7
v 4 8.5 -3.9
v 4 8.5 -4.1
v 4 9 -3.5
v 4 9 -4.7
v 4.2 2 -3.6
v 4.2 2 -4.5
v 4.2 2.1 -3.6
v 4.2 2.1 -4.5
v 4.2 2.2 -3.6
v 4.2 2.2 -3.8
v 4.2 2.3 -3.6
v 4.2 2.3 -3.8
v 4.2 2.3 -3.9
v 4.2 2.4 -3.8
v 4.2 2.4 -3.9
v 4.2 2.4 -4
v 4.2 2.5 -3.9
v 4.2 2.5 -4
v 4.2 2.5 -4.5
v 4.2 2.6 -3.6
v 4.2 2.6 -4
v 4.2 2.6 -4.5
v 4.2 4 -3.6
v 4.2 4 -3.8
v 4.2 4.1 -3.8
v 4.2 4.1 -4
v 4.2 4.2 -4
v 4.2 4.2 -4.2
v 4.2 4.3 -4.2
v 4.2 4.3 -4.3
v 4.2 4.4 -4.3
v 4.2 4.4 -4.4
v 4.2 4.5 -4.4
v 4.2 4.5 -4.5
v 4.2 5.1 -4.3
v 4.2 5.1 -4.4
v 4.2 5.2 -3.6
v 4.2 5.2 -4.3
v 4.2 5.2 -4.4
v 4.2 5.2 -4.5
v 4.8 5.2 -3.6
v 4.8 5.2 -4.5
v 4.8 6.8 -3.6
v 4.8 6.8 -4.5
v 4.8 6.9 -3.6
v 4.8 6.9 -4.5
v 4.8 7.7 -3.6
v 4.8 7.7 -4.5
v 2.9 7.8 -3.5
v 2.9 8.1 -3.5
v 2.9 8.3 -3.5
v 2.9 8.5 -3.5
v 2.9 9 -3.5
v 3 8 -3.5
v 3 8.1 -3.5
v 3 8.3 -3.5
v 3 8.5 -3.5
v 3 8.7 -3.5
v 3.1 7.9 -3.5
v 3.1 8 -3.5
v 3.1 8.4 -3.5
v 3.1 8.6 -3.5
v 3.2 8 -3.5
v 3.2 8.1 -3.5
v 3.2 8.2 -3.5
v 3.2 8.4 -3.5
v 3.3 8.2 -3.5
v 3.3 8.4 -3.5
v 3.3 8.5 -3.5
v 3.3 8.6 -3.5
v 3.4 8.4 -3.5
v 3.4 8.5 -3.5
v 3.5 8.4 -3.5
v 3.5 8.5 -3.5
v 3.6 8.2 -3.5
v 3.6 8.4 -3.5
v 3.6 8.5 -3.5
v 3.6 8.6 -3.5
v 3.7 8 -3.5
v 3.7 8.1 -3.5
v 3.7 8.2 -3.5
v 3.7 8.4 -3.5
v 3.8 7.9 -3.5
v 3.8 8 -3.5
v 3.8 8.4 -3.5
v 3.8 8.6 -3.5
v 3.9 8 -3.5
v 3.9 8.1 -3.5
v 3.9 8.3 -3.5
v 3.9 8.5 -3.5
v 3.9 8.7 -3.5
v 4 7.8 -3.5
v 4 8.1 -3.5
v 4 8.3 -3.5
v 4 8.5 -3.5
v 4 9 -3.5
v 2.1 5.2 -3.6
v 2.1 6.8 -3.6
v 2.1 6.9 -3.6
v 2.1 7.7 -3.6
v 2.6 5.7 -3.6
v 2.6 6.8 -3.6
v 2.6 6.9 -3.6
v 2.6 7.2 -3.6
v 2.7 2 -3.6
v 2.7 2.1 -3.6
v 2.7 2.2 -3.6
v 2.7 2.3 -3.6
v 2.7 2.6 -3.6
v 2.7 4.1 -3.6
v 2.7 5.2 -3.6
v 2.7 5.3 -3.6
v 2.7 5.5 -3.6
v 2.7 5.6 -3.6
v 2.7 5.7 -3.6
v 2.7 7.2 -3.6
v 2.8 2.2 -3.6
v 2.8 2.3 -3.6
v 2.8 2.4 -3.6
v 2.8 4 -3.6
v 2.8 4.1 -3.6
v 2.9 2.5 -3.6
v 2.9 2.6 -3.6
v 2.9 7.7 -3.6
v 2.9 7.8 -3.6
v 3.1 7.6 -3.6
v 3.1 7.7 -3.6
v 3.2 2.5 -3.6
v 3.2 2.6 -3.6
v 3.2 4 -3.6
v 3.2 4.1 -3.6
v 3.3 2.2 -3.6
v 3.3 2.3 -3.6
v 3.3 2.4 -3.6
v 3.3 4.1 -3.6
v 3.3 4.2 -3.6
v 3.4 2 -3.6
v 3.4 2.1 -3.6
v 3.4 2.2 -3.6
v 3.4 2.3 -3.6
v 3.4 2.6 -3.6
v 3.4 4.2 -3.6
v 3.4 4.3 -3.6
v 3.5 2 -3.6
v 3.5 2.1 -3.6
v 3.5 2.2 -3.6
v 3.5 2.3 -3.6
v 3.5 2.6 -3.6
v 3.5 4.2 -3.6
v 3.5 4.3 -3.6
v 3.5 4.8 -3.6
v 3.6 2.2 -3.6
v 3.6 2.3 -3.6
v 3.6 2.4 -3.6
v 3.6 4.3 -3.6
v 3.6 4.7 -3.6
v 3.6 4.8 -3.6
v 3.6 5.2 -3.6
v 3.7 2.5 -3.6
v 3.7 2.6 -3.6
v 3.7 4.1 -3.6
v 3.7 4.3 -3.6
v 3.7 4.7 -3.6
v 3.7 5.1 -3.6
v 3.7 5.2 -3.6
v 3.7 5.3 -3.6
v 3.8 5.1 -3.6
v 3.8 5.3 -3.6
v 3.8 7.6 -3.6
v 3.8 7.7 -3.6
v 3.9 4 -3.6
v 3.9 4.1 -3.6
v 4 2.5 -3.6
v 4 2.6 -3.6
v 4 7.7 -3.6
v 4 7.8 -3.6
v 4.1 2.2 -3.6
v 4.1 2.3 -3.6
v 4.1 2.4 -3.6
v 4.2 2 -3.6
v 4.2 2.1 -3.6
v 4.2 2.2 -3.6
v 4.2 2.3 -3.6
v 4.2 2.6 -3.6
v 4.2 4 -3.6
v 4.2 5.2 -3.6
v 4.2 5.3 -3.6
v 4.2 5.5 -3.6
v 4.2 5.6 -3.6
v 4.2 7.2 -3.6
v 4.3 5.6 -3.6
v 4.3 6.8 -3.6
v 4.3 6.9 -3.6
v 4.3 7.2 -3.6
v 4.8 5.2 -3.6
v 4.8 6.8 -3.6
v 4.8 6.9 -3.6
v 4.8 7.7 -3.6
v 2.1 5.2 -4.5
v 2.1 6.8 -4.5
v 2.1 6.9 -4.5
v 2.1 7.7 -4.5
v 2.6 5.7 -4.5
v 2.6 6.8 -4.5
v 2.6 6.9 -4.5
v 2.6 7.2 -4.5
v 2.7 2 -4.5
v 2.7 2.1 -4.5
v 2.7 2.5 -4.5
v 2.7 2.6 -4.5
v 2.7 4.5 -4.5
v 2.7 5.2 -4.5
v 2.7 5.3 -4.5
v 2.7 5.5 -4.5
v 2.7 5.6 -4.5
v 2.7 5.7 -4.5
v 2.7 7.2 -4.5
v 2.8 4.5 -4.5
v 2.8 5.3 -4.5
v 2.9 7.7 -4.5
v 2.9 7.8 -4.5
v 3 5.2 -4.5
v 3 5.3 -4.5
v 3 7.8 -4.5
v 3.2 5.1 -4.5
v 3.2 5.2 -4.5
v 3.2 5.3 -4.5
v 3.4 2 -4.5
v 3.4 2.1 -4.5
v 3.4 2.5 -4.5
v 3.4 2.6 -4.5
v 3.4 4.8 -4.5
v 3.5 2 -4.5
v 3.5 2.1 -4.5
v 3.5 2.5 -4.5
v 3.5 2.6 -4.5
v 3.5 4.8 -4.5
v 3.7 5.1 -4.5
v 3.7 5.2 -4.5
v 3.7 5.3 -4.5
v 3.9 5.2 -4.5
v 3.9 5.3 -4.5
v 3.9 7.8 -4.5
v 4 7.7 -4.5
v 4 7.8 -4.5
v 4.1 4.5 -4.5
v 4.1 5.3 -4.5
v 4.2 2 -4.5
v 4.2 2.1 -4.5
v 4.2 2.5 -4.5
v 4.2 2.6 -4.5
v 4.2 4.5 -4.5
v 4.2 5.2 -4.5
v 4.2 5.3 -4.5
v 4.2 5.5 -4.5
v 4.2 5.6 -4.5
v 4.2 5.7 -4.5
v 4.2 7.2 -4.5
v 4.3 5.7 -4.5
v 4.3 6.8 -4.5
v 4.3 6.9 -4.5
v 4.3 7.2 -4.5
v 4.8 5.2 -4.5
v 4.8 6.8 -4.5
v 4.8 6.9 -4.5
v 4.8 7.7 -4.5
v 2.9 7.8 -4.7
v 2.9 8.1 -4.7
v 2.9 9 -4.7
v 4 7.8 -4.7
v 4 8.1 -4.7
v 4 9 -4.7
v 2.7 2 -3.6
v 3.4 2 -3.6
v 3.5 2 -3.6
v 4.2 2 -3.6
v 2.8 2 -3.7
v 3.4 2 -3.7
v 3.5 2 -3.7
v 4 2 -3.7
v 2.8 2 -4.4
v 3.4 2 -4.4
v 3.5 2 -4.4
v 4 2 -4.4
v 2.7 2 -4.5
v 3.4 2 -4.5
v 3.5 2 -4.5
v 4.2 2 -4.5
v 2.1 5.2 -3.6
v 2.7 5.2 -3.6
v 4.2 5.2 -3.6
v 4.8 5.2 -3.6
v 4.2 5.2 -4.3
v 4.2 5.2 -4.4
v 2.1 5.2 -4.5
v 2.7 5.2 -4.5
v 4.2 5.2 -4.5
v 4.8 5.2 -4.5
v 2.9 7.8 -3.5
v 4 7.8 -3.5
v 2.9 7.8 -3.6
v 4 7.8 -3.6
v 2.9 7.8 -4.5
v 3 7.8 -4.5
v 3.9 7.8 -4.5
v 4 7.8 -4.5
v 3 7.8 -4.6
v 3.9 7.8 -4.6
v 2.9 7.8 -4.7
v 4 7.8 -4.7
v 2.1 7.7 -3.6
v 2.9 7.7 -3.6
v 4 7.7 -3.6
v 4.8 7.7 -3.6
v 2.1 7.7 -4.5
v 2.9 7.7 -4.5
v 4 7.7 -4.5
v 4.8 7.7 -4.5
v 2.9 9 -3.5
v 4 9 -3.5
v 2.9 9 -4.7
v 4 9 -4.7

# faces
f 3/12/1 2/12/1 1/12/1
f 4/12/1 2/12/1 3/12/1
f 5/1/1 4/1/1 3/1/1
f 6/1/1 4/1/1 5/1/1
f 7/13/1 6/13/1 5/13/1
f 8/13/1 6/13/1 7/13/1
f 11/5/1 10/5/1 9/5/1
f 12/5/1 10/5/1 11/5/1
f 13/4/1 12/4/1 11/4/1
f 14/4/1 12/4/1 13/4/1
f 15/7/1 14/7/1 13/7/1
f 16/4/1 12/4/1 14/4/1
f 16/7/1 14/7/1 15/7/1
f 17/4/1 12/4/1 16/4/1
f 18/4/1 16/4/1 15/4/1
f 18/7/1 17/7/1 16/7/1
f 19/4/1 12/4/1 17/4/1
f 19/7/1 17/7/1 18/7/1
f 20/4/1 12/4/1 19/4/1
f 21/4/1 19/4/1 18/4/1
f 21/7/1 20/7/1 19/7/1
f 22/4/1 12/4/1 20/4/1
f 22/7/1 20/7/1 21/7/1
f 23/4/1 12/4/1 22/4/1
f 24/4/1 18/4/1 15/4/1
f 24/4/1 21/4/1 18/4/1
f 24/4/1 22/4/1 21/4/1
f 25/7/1 23/7/1 22/7/1
f 25/4/1 22/4/1 24/4/1
f 26/7/1 23/7/1 25/7/1
f 27/16/1 25/16/1 24/16/1
f 27/16/1 26/16/1 25/16/1
f 28/16/1 26/16/1 27/16/1
f 29/10/1 28/10/1 27/10/1
f 29/16/1 26/16/1 28/16/1
f 30/16/1 26/16/1 29/16/1
f 31/10/1 30/10/1 29/10/1
f 31/16/1 26/16/1 30/16/1
f 32/16/1 26/16/1 31/16/1
f 33/10/1 32/10/1 31/10/1
f 33/16/1 26/16/1 32/16/1
f 34/16/1 26/16/1 33/16/1
f 35/10/1 34/10/1 33/10/1
f 35/16/1 26/16/1 34/16/1
f 36/16/1 26/16/1 35/16/1
f 37/10/1 29/10/1 27/10/1
f 37/10/1 31/10/1 29/10/1
f 37/10/1 36/10/1 35/10/1
f 37/10/1 35/10/1 33/10/1
f 37/10/1 33/10/1 31/10/1
f 38/10/1 36/10/1 37/10/1
f 42/12/1 40/12/1 39/12/1
f 43/12/1 40/12/1 42/12/1
f 44/12/1 40/12/1 43/12/1
f 45/12/1 40/12/1 44/12/1
f 47/7/1 42/7/1 41/7/1
f 47/12/1 43/12/1 42/12/1
f 48/12/1 43/12/1 47/12/1
f 49/12/1 43/12/1 48/12/1
f 50/12/1 43/12/1 49/12/1
f 51/10/1 44/10/1 43/10/1
f 51/12/1 43/12/1 50/12/1
f 52/7/1 46/7/1 45/7/1
f 52/10/1 44/10/1 51/10/1
f 52/7/1 45/7/1 44/7/1
f 53/12/1 50/12/1 49/12/1
f 54/10/1 51/10/1 50/10/1
f 54/12/1 50/12/1 53/12/1
f 55/7/1 52/7/1 51/7/1
f 55/10/1 51/10/1 54/10/1
f 56/7/1 47/7/1 41/7/1
f 56/7/1 48/7/1 47/7/1
f 57/10/1 49/10/1 48/10/1
f 57/7/1 48/7/1 56/7/1
f 58/12/1 53/12/1 49/12/1
f 58/10/1 49/10/1 57/10/1
f 59/10/1 54/10/1 53/10/1
f 59/12/1 53/12/1 58/12/1
f 60/7/1 55/7/1 54/7/1
f 60/10/1 54/10/1 59/10/1
f 61/7/1 46/7/1 52/7/1
f 61/7/1 55/7/1 60/7/1
f 61/7/1 52/7/1 55/7/1
f 62/7/1 46/7/1 61/7/1
f 63/12/1 57/12/1 56/12/1
f 63/12/1 58/12/1 57/12/1
f 64/12/1 58/12/1 63/12/1
f 65/10/1 59/10/1 58/10/1
f 65/12/1 58/12/1 64/12/1
f 66/7/1 60/7/1 59/7/1
f 66/10/1 59/10/1 65/10/1
f 66/7/1 61/7/1 60/7/1
f 67/7/1 61/7/1 66/7/1
f 68/7/1 61/7/1 67/7/1
f 69/6/1 62/6/1 61/6/1
f 69/7/1 61/7/1 68/7/1
f 70/12/1 63/12/1 56/12/1
f 71/10/1 64/10/1 63/10/1
f 71/12/1 63/12/1 70/12/1
f 72/7/1 68/7/1 67/7/1
f 73/6/1 69/6/1 68/6/1
f 73/7/1 68/7/1 72/7/1
f 74/10/1 64/10/1 71/10/1
f 74/7/1 71/7/1 70/7/1
f 75/12/1 65/12/1 64/12/1
f 75/10/1 64/10/1 74/10/1
f 75/12/1 66/12/1 65/12/1
f 76/10/1 67/10/1 66/10/1
f 76/12/1 66/12/1 75/12/1
f 77/7/1 72/7/1 67/7/1
f 77/10/1 67/10/1 76/10/1
f 78/7/1 74/7/1 70/7/1
f 78/7/1 75/7/1 74/7/1
f 79/10/1 76/10/1 75/10/1
f 79/7/1 75/7/1 78/7/1
f 80/7/1 77/7/1 76/7/1
f 80/10/1 76/10/1 79/10/1
f 81/7/1 72/7/1 77/7/1
f 81/7/1 77/7/1 80/7/1
f 81/6/1 73/6/1 72/6/1
f 82/6/1 80/6/1 79/6/1
f 82/6/1 79/6/1 78/6/1
f 82/6/1 81/6/1 80/6/1
f 83/6/1 73/6/1 81/6/1
f 83/6/1 81/6/1 82/6/1
f 83/6/1 69/6/1 73/6/1
f 83/6/1 62/6/1 69/6/1
f 84/12/2 85/12/2 87/12/2
f 87/12/2 85/12/2 88/12/2
f 88/12/2 85/12/2 89/12/2
f 89/12/2 85/12/2 90/12/2
f 86/7/2 87/7/2 92/7/2
f 87/12/2 88/12/2 92/12/2
f 92/12/2 88/12/2 93/12/2
f 93/12/2 88/12/2 94/12/2
f 94/12/2 88/12/2 95/12/2
f 88/10/2 89/10/2 96/10/2
f 95/12/2 88/12/2 96/12/2
f 90/7/2 91/7/2 97/7/2
f 96/10/2 89/10/2 97/10/2
f 89/7/2 90/7/2 97/7/2
f 94/12/2 95/12/2 98/12/2
f 95/10/2 96/10/2 99/10/2
f 98/12/2 95/12/2 99/12/2
f 96/7/2 97/7/2 100/7/2
f 99/10/2 96/10/2 100/10/2
f 86/7/2 92/7/2 101/7/2
f 92/7/2 93/7/2 101/7/2
f 93/10/2 94/10/2 102/10/2
f 101/7/2 93/7/2 102/7/2
f 94/12/2 98/12/2 103/12/2
f 102/10/2 94/10/2 103/10/2
f 98/10/2 99/10/2 104/10/2
f 103/12/2 98/12/2 104/12/2
f 99/7/2 100/7/2 105/7/2
f 104/10/2 99/10/2 105/10/2
f 97/7/2 91/7/2 106/7/2
f 105/7/2 100/7/2 106/7/2
f 100/7/2 97/7/2 106/7/2
f 106/7/2 91/7/2 107/7/2
f 101/12/2 102/12/2 108/12/2
f 102/12/2 103/12/2 108/12/2
f 108/12/2 103/12/2 109/12/2
f 103/10/2 104/10/2 110/10/2
f 109/12/2 103/12/2 110/12/2
f 104/7/2 105/7/2 111/7/2
f 110/10/2 104/10/2 111/10/2
f 105/7/2 106/7/2 111/7/2
f 111/7/2 106/7/2 112/7/2
f 112/7/2 106/7/2 113/7/2
f 106/6/2 107/6/2 114/6/2
f 113/7/2 106/7/2 114/7/2
f 101/12/2 108/12/2 115/12/2
f 108/10/2 109/10/2 116/10/2
f 115/12/2 108/12/2 116/12/2
f 112/7/2 113/7/2 117/7/2
f 113/6/2 114/6/2 118/6/2
f 117/7/2 113/7/2 118/7/2
f 116/10/2 109/10/2 119/10/2
f 115/7/2 116/7/2 119/7/2
f 109/12/2 110/12/2 120/12/2
f 119/10/2 109/10/2 120/10/2
f 110/12/2 111/12/2 120/12/2
f 111/10/2 112/10/2 121/10/2
f 120/12/2 111/12/2 121/12/2
f 112/7/2 117/7/2 122/7/2
f 121/10/2 112/10/2 122/10/2
f 115/7/2 119/7/2 123/7/2
f 119/7/2 120/7/2 123/7/2
f 120/10/2 121/10/2 124/10/2
f 123/7/2 120/7/2 124/7/2
f 121/7/2 122/7/2 125/7/2
f 124/10/2 121/10/2 125/10/2
f 122/7/2 117/7/2 126/7/2
f 125/7/2 122/7/2 126/7/2
f 117/6/2 118/6/2 126/6/2
f 124/6/2 125/6/2 127/6/2
f 123/6/2 124/6/2 127/6/2
f 125/6/2 126/6/2 127/6/2
f 126/6/2 118/6/2 128/6/2
f 127/6/2 126/6/2 128/6/2
f 118/6/2 114/6/2 128/6/2
f 114/6/2 107/6/2 128/6/2
f 129/5/2 130/5/2 131/5/2
f 131/5/2 130/5/2 132/5/2
f 131/4/2 132/4/2 133/4/2
f 133/4/2 132/4/2 134/4/2
f 133/7/2 134/7/2 135/7/2
f 134/4/2 132/4/2 136/4/2
f 135/7/2 134/7/2 136/7/2
f 136/4/2 132/4/2 137/4/2
f 135/4/2 136/4/2 138/4/2
f 136/7/2 137/7/2 138/7/2
f 137/4/2 132/4/2 139/4/2
f 138/7/2 137/7/2 139/7/2
f 139/4/2 132/4/2 140/4/2
f 138/4/2 139/4/2 141/4/2
f 139/7/2 140/7/2 141/7/2
f 140/4/2 132/4/2 142/4/2
f 141/7/2 140/7/2 142/7/2
f 142/4/2 132/4/2 143/4/2
f 135/4/2 138/4/2 144/4/2
f 138/4/2 141/4/2 144/4/2
f 141/4/2 142/4/2 144/4/2
f 142/7/2 143/7/2 145/7/2
f 144/4/2 142/4/2 145/4/2
f 145/7/2 143/7/2 146/7/2
f 144/16/2 145/16/2 147/16/2
f 145/16/2 146/16/2 147/16/2
f 147/16/2 146/16/2 148/16/2
f 147/10/2 148/10/2 149/10/2
f 148/16/2 146/16/2 149/16/2
f 149/16/2 146/16/2 150/16/2
f 149/10/2 150/10/2 151/10/2
f 150/16/2 146/16/2 151/16/2
f 151/16/2 146/16/2 152/16/2
f 151/10/2 152/10/2 153/10/2
f 152/16/2 146/16/2 153/16/2
f 153/16/2 146/16/2 154/16/2
f 153/10/2 154/10/2 155/10/2
f 154/16/2 146/16/2 155/16/2
f 155/16/2 146/16/2 156/16/2
f 155/10/2 156/10/2 157/10/2
f 156/16/2 146/16/2 157/16/2
f 157/16/2 146/16/2 158/16/2
f 153/10/2 155/10/2 159/10/2
f 155/10/2 157/10/2 159/10/2
f 157/10/2 158/10/2 159/10/2
f 159/10/2 158/10/2 160/10/2
f 147/10/2 149/10/2 161/10/2
f 149/10/2 151/10/2 161/10/2
f 151/10/2 153/10/2 161/10/2
f 153/10/2 159/10/2 161/10/2
f 159/16/2 160/16/2 162/16/2
f 161/10/2 159/10/2 162/10/2
f 160/10/2 158/10/2 163/10/2
f 162/16/2 160/16/2 163/16/2
f 163/10/2 158/10/2 164/10/2
f 165/12/2 166/12/2 167/12/2
f 167/12/2 166/12/2 168/12/2
f 167/1/2 168/1/2 169/1/2
f 169/1/2 168/1/2 170/1/2
f 169/13/2 170/13/2 171/13/2
f 171/13/2 170/13/2 172/13/2
f 178/7/3 174/7/3 173/7/3
f 179/12/3 175/12/3 174/12/3
f 179/7/3 174/7/3 178/7/3
f 180/7/3 176/7/3 175/7/3
f 180/12/3 175/12/3 179/12/3
f 181/6/3 177/6/3 176/6/3
f 181/7/3 176/7/3 180/7/3
f 182/6/3 177/6/3 181/6/3
f 183/7/3 178/7/3 173/7/3
f 184/12/3 180/12/3 179/12/3
f 184/7/3 178/7/3 183/7/3
f 184/12/3 179/12/3 178/12/3
f 184/12/3 182/12/3 181/12/3
f 184/12/3 181/12/3 180/12/3
f 185/12/3 182/12/3 184/12/3
f 186/12/3 182/12/3 185/12/3
f 187/12/3 184/12/3 183/12/3
f 187/12/3 185/12/3 184/12/3
f 188/12/3 185/12/3 187/12/3
f 189/12/3 185/12/3 188/12/3
f 190/7/3 186/7/3 185/7/3
f 190/12/3 185/12/3 189/12/3
f 191/12/3 189/12/3 188/12/3
f 191/11/3 190/11/3 189/11/3
f 192/7/3 186/7/3 190/7/3
f 192/11/3 190/11/3 191/11/3
f 193/7/3 186/7/3 192/7/3
f 194/12/3 182/12/3 186/12/3
f 194/7/3 186/7/3 193/7/3
f 195/7/3 193/7/3 192/7/3
f 195/12/3 192/12/3 191/12/3
f 196/12/3 194/12/3 193/12/3
f 196/7/3 193/7/3 195/7/3
f 197/12/3 195/12/3 191/12/3
f 197/12/3 196/12/3 195/12/3
f 198/12/3 194/12/3 196/12/3
f 198/12/3 196/12/3 197/12/3
f 199/12/3 191/12/3 188/12/3
f 199/12/3 197/12/3 191/12/3
f 200/7/3 198/7/3 197/7/3
f 200/12/3 197/12/3 199/12/3
f 201/12/3 194/12/3 198/12/3
f 201/7/3 198/7/3 200/7/3
f 202/12/3 182/12/3 194/12/3
f 202/12/3 194/12/3 201/12/3
f 203/12/3 187/12/3 183/12/3
f 203/8/3 188/8/3 187/8/3
f 204/12/3 199/12/3 188/12/3
f 204/8/3 188/8/3 203/8/3
f 205/11/3 200/11/3 199/11/3
f 205/12/3 199/12/3 204/12/3
f 206/7/3 201/7/3 200/7/3
f 206/11/3 200/11/3 205/11/3
f 206/7/3 202/7/3 201/7/3
f 207/7/3 183/7/3 173/7/3
f 207/12/3 205/12/3 204/12/3
f 207/12/3 206/12/3 205/12/3
f 207/12/3 203/12/3 183/12/3
f 207/12/3 204/12/3 203/12/3
f 208/12/3 206/12/3 207/12/3
f 209/7/3 202/7/3 206/7/3
f 209/12/3 206/12/3 208/12/3
f 210/12/3 182/12/3 202/12/3
f 210/7/3 202/7/3 209/7/3
f 211/7/3 208/7/3 207/7/3
f 211/12/3 209/12/3 208/12/3
f 211/12/3 210/12/3 209/12/3
f 212/12/3 210/12/3 211/12/3
f 213/12/3 210/12/3 212/12/3
f 214/12/3 210/12/3 213/12/3
f 215/12/3 182/12/3 210/12/3
f 215/12/3 210/12/3 214/12/3
f 215/6/3 177/6/3 182/6/3
f 216/7/3 207/7/3 173/7/3
f 216/7/3 211/7/3 207/7/3
f 216/7/3 212/7/3 211/7/3
f 217/12/3 213/12/3 212/12/3
f 217/7/3 212/7/3 216/7/3
f 218/7/3 214/7/3 213/7/3
f 218/12/3 213/12/3 217/12/3
f 219/6/3 215/6/3 214/6/3
f 219/7/3 214/7/3 218/7/3
f 220/6/3 177/6/3 215/6/3
f 220/6/3 215/6/3 219/6/3
f 225/12/3 222/12/3 221/12/3
f 226/1/3 223/1/3 222/1/3
f 226/12/3 222/12/3 225/12/3
f 227/13/3 224/13/3 223/13/3
f 227/1/3 223/1/3 226/1/3
f 228/13/3 224/13/3 227/13/3
f 235/12/3 225/12/3 221/12/3
f 236/12/3 225/12/3 235/12/3
f 237/12/3 225/12/3 236/12/3
f 238/12/3 225/12/3 237/12/3
f 239/1/3 226/1/3 225/1/3
f 239/12/3 225/12/3 238/12/3
f 239/1/3 227/1/3 226/1/3
f 239/1/3 228/1/3 227/1/3
f 240/13/3 224/13/3 228/13/3
f 240/1/3 228/1/3 239/1/3
f 241/4/3 231/4/3 230/4/3
f 241/7/3 232/7/3 231/7/3
f 242/4/3 233/4/3 232/4/3
f 242/7/3 232/7/3 241/7/3
f 243/4/3 233/4/3 242/4/3
f 244/16/3 234/16/3 233/16/3
f 245/10/3 236/10/3 235/10/3
f 245/16/3 234/16/3 244/16/3
f 245/10/3 235/10/3 234/10/3
f 246/4/3 233/4/3 243/4/3
f 247/16/3 244/16/3 233/16/3
f 247/4/3 233/4/3 246/4/3
f 248/13/3 239/13/3 238/13/3
f 248/13/3 224/13/3 240/13/3
f 248/13/3 240/13/3 239/13/3
f 250/13/3 248/13/3 238/13/3
f 251/12/3 249/12/3 248/12/3
f 251/13/3 248/13/3 250/13/3
f 252/4/3 246/4/3 243/4/3
f 252/7/3 247/7/3 246/7/3
f 253/16/3 244/16/3 247/16/3
f 253/7/3 247/7/3 252/7/3
f 254/10/3 245/10/3 244/10/3
f 254/16/3 244/16/3 253/16/3
f 255/10/3 236/10/3 245/10/3
f 255/10/3 245/10/3 254/10/3
f 256/4/3 241/4/3 230/4/3
f 256/4/3 242/4/3 241/4/3
f 257/7/3 243/7/3 242/7/3
f 257/4/3 242/4/3 256/4/3
f 258/4/3 252/4/3 243/4/3
f 258/7/3 243/7/3 257/7/3
f 258/4/3 253/4/3 252/4/3
f 259/16/3 254/16/3 253/16/3
f 259/10/3 236/10/3 255/10/3
f 259/16/3 255/16/3 254/16/3
f 260/10/3 236/10/3 259/10/3
f 261/5/3 230/5/3 229/5/3
f 262/4/3 256/4/3 230/4/3
f 262/5/3 230/5/3 261/5/3
f 263/7/3 257/7/3 256/7/3
f 263/4/3 256/4/3 262/4/3
f 264/4/3 258/4/3 257/4/3
f 264/7/3 257/7/3 263/7/3
f 265/4/3 253/4/3 258/4/3
f 265/4/3 258/4/3 264/4/3
f 265/16/3 259/16/3 253/16/3
f 265/16/3 260/16/3 259/16/3
f 266/10/3 236/10/3 260/10/3
f 266/16/3 260/16/3 265/16/3
f 267/10/3 236/10/3 266/10/3
f 268/7/3 264/7/3 263/7/3
f 268/7/3 262/7/3 261/7/3
f 268/7/3 265/7/3 264/7/3
f 268/7/3 266/7/3 265/7/3
f 268/7/3 263/7/3 262/7/3
f 269/7/3 266/7/3 268/7/3
f 270/7/3 266/7/3 269/7/3
f 271/7/3 266/7/3 270/7/3
f 272/7/3 266/7/3 271/7/3
f 273/2/3 267/2/3 266/2/3
f 273/7/3 266/7/3 272/7/3
f 274/10/3 236/10/3 267/10/3
f 274/2/3 267/2/3 273/2/3
f 275/10/3 236/10/3 274/10/3
f 276/4/3 270/4/3 269/4/3
f 276/7/3 271/7/3 270/7/3
f 277/4/3 272/4/3 271/4/3
f 277/7/3 271/7/3 276/7/3
f 278/4/3 272/4/3 277/4/3
f 279/16/3 273/16/3 272/16/3
f 279/2/3 275/2/3 274/2/3
f 279/16/3 274/16/3 273/16/3
f 280/2/3 275/2/3 279/2/3
f 281/10/3 236/10/3 275/10/3
f 281/2/3 275/2/3 280/2/3
f 282/10/3 236/10/3 281/10/3
f 283/4/3 272/4/3 278/4/3
f 284/16/3 279/16/3 272/16/3
f 284/4/3 272/4/3 283/4/3
f 285/16/3 279/16/3 284/16/3
f 286/10/3 280/10/3 279/10/3
f 286/16/3 279/16/3 285/16/3
f 287/2/3 281/2/3 280/2/3
f 287/10/3 280/10/3 286/10/3
f 287/2/3 282/2/3 281/2/3
f 288/2/3 282/2/3 287/2/3
f 289/10/3 236/10/3 282/10/3
f 289/2/3 282/2/3 288/2/3
f 290/3/3 237/3/3 236/3/3
f 290/10/3 236/10/3 289/10/3
f 291/10/3 288/10/3 287/10/3
f 291/2/3 289/2/3 288/2/3
f 291/2/3 290/2/3 289/2/3
f 291/10/3 287/10/3 286/10/3
f 291/10/3 286/10/3 285/10/3
f 292/3/3 237/3/3 290/3/3
f 292/2/3 290/2/3 291/2/3
f 293/12/3 251/12/3 250/12/3
f 293/13/3 250/13/3 238/13/3
f 294/12/3 249/12/3 251/12/3
f 294/12/3 251/12/3 293/12/3
f 295/16/3 285/16/3 284/16/3
f 296/10/3 291/10/3 285/10/3
f 296/16/3 285/16/3 295/16/3
f 296/10/3 292/10/3 291/10/3
f 297/7/3 284/7/3 283/7/3
f 297/4/3 283/4/3 278/4/3
f 298/16/3 295/16/3 284/16/3
f 298/7/3 284/7/3 297/7/3
f 299/13/3 294/13/3 293/13/3
f 299/12/3 249/12/3 294/12/3
f 300/12/3 249/12/3 299/12/3
f 301/4/3 276/4/3 269/4/3
f 301/4/3 277/4/3 276/4/3
f 302/7/3 278/7/3 277/7/3
f 302/4/3 277/4/3 301/4/3
f 303/4/3 297/4/3 278/4/3
f 303/7/3 278/7/3 302/7/3
f 303/4/3 298/4/3 297/4/3
f 304/5/3 269/5/3 268/5/3
f 305/4/3 301/4/3 269/4/3
f 305/5/3 269/5/3 304/5/3
f 306/7/3 302/7/3 301/7/3
f 306/4/3 301/4/3 305/4/3
f 307/4/3 303/4/3 302/4/3
f 307/7/3 302/7/3 306/7/3
f 308/16/3 295/16/3 298/16/3
f 308/4/3 303/4/3 307/4/3
f 308/4/3 298/4/3 303/4/3
f 309/10/3 296/10/3 295/10/3
f 309/16/3 295/16/3 308/16/3
f 310/10/3 292/10/3 296/10/3
f 310/10/3 296/10/3 309/10/3
f 311/3/3 237/3/3 292/3/3
f 311/10/3 292/10/3 310/10/3
f 312/1/3 238/1/3 237/1/3
f 312/3/3 237/3/3 311/3/3
f 313/13/3 293/13/3 238/13/3
f 313/1/3 238/1/3 312/1/3
f 313/13/3 299/13/3 293/13/3
f 314/13/3 299/13/3 313/13/3
f 315/12/3 311/12/3 310/12/3
f 315/1/3 314/1/3 313/1/3
f 315/12/3 313/12/3 312/12/3
f 315/12/3 312/12/3 311/12/3
f 316/1/3 314/1/3 315/1/3
f 317/1/3 314/1/3 316/1/3
f 318/13/3 299/13/3 314/13/3
f 318/1/3 314/1/3 317/1/3
f 319/12/3 315/12/3 310/12/3
f 319/12/3 316/12/3 315/12/3
f 320/1/3 317/1/3 316/1/3
f 320/12/3 316/12/3 319/12/3
f 321/13/3 318/13/3 317/13/3
f 321/1/3 317/1/3 320/1/3
f 322/13/3 299/13/3 318/13/3
f 322/13/3 318/13/3 321/13/3
f 323/12/4 324/12/4 327/12/4
f 324/1/4 325/1/4 328/1/4
f 327/12/4 324/12/4 328/12/4
f 325/13/4 326/13/4 329/13/4
f 328/1/4 325/1/4 329/1/4
f 329/13/4 326/13/4 330/13/4
f 323/12/4 327/12/4 336/12/4
f 336/12/4 327/12/4 337/12/4
f 337/12/4 327/12/4 338/12/4
f 338/12/4 327/12/4 339/12/4
f 327/1/4 328/1/4 340/1/4
f 339/12/4 327/12/4 340/12/4
f 328/1/4 329/1/4 340/1/4
f 329/1/4 330/1/4 340/1/4
f 330/13/4 326/13/4 341/13/4
f 340/1/4 330/1/4 341/1/4
f 334/16/4 335/16/4 342/16/4
f 336/10/4 337/10/4 342/10/4
f 335/10/4 336/10/4 342/10/4
f 337/3/4 338/3/4 343/3/4
f 342/10/4 337/10/4 343/10/4
f 341/13/4 326/13/4 344/13/4
f 340/13/4 341/13/4 344/13/4
f 339/13/4 340/13/4 344/13/4
f 342/16/4 343/16/4 346/16/4
f 343/3/4 338/3/4 347/3/4
f 346/16/4 343/16/4 347/16/4
f 344/12/4 345/12/4 348/12/4
f 342/16/4 346/16/4 349/16/4
f 346/15/4 347/15/4 350/15/4
f 349/16/4 346/16/4 350/16/4
f 347/3/4 338/3/4 351/3/4
f 350/15/4 347/15/4 351/15/4
f 331/5/4 332/5/4 352/5/4
f 332/4/4 333/4/4 353/4/4
f 352/5/4 332/5/4 353/5/4
f 333/7/4 334/7/4 354/7/4
f 353/4/4 333/4/4 354/4/4
f 334/16/4 342/16/4 355/16/4
f 354/7/4 334/7/4 355/7/4
f 342/16/4 349/16/4 355/16/4
f 355/16/4 349/16/4 356/16/4
f 353/7/4 354/7/4 357/7/4
f 352/7/4 353/7/4 357/7/4
f 355/7/4 356/7/4 357/7/4
f 354/7/4 355/7/4 357/7/4
f 357/7/4 356/7/4 358/7/4
f 358/7/4 356/7/4 359/7/4
f 359/7/4 356/7/4 360/7/4
f 356/16/4 349/16/4 361/16/4
f 360/7/4 356/7/4 361/7/4
f 349/15/4 350/15/4 362/15/4
f 361/16/4 349/16/4 362/16/4
f 360/16/4 361/16/4 362/16/4
f 350/13/4 351/13/4 363/13/4
f 362/15/4 350/15/4 363/15/4
f 351/3/4 338/3/4 364/3/4
f 363/13/4 351/13/4 364/13/4
f 362/16/4 363/16/4 365/16/4
f 363/15/4 364/15/4 365/15/4
f 364/3/4 338/3/4 366/3/4
f 365/15/4 364/15/4 366/15/4
f 344/12/4 348/12/4 367/12/4
f 339/13/4 344/13/4 368/13/4
f 344/12/4 367/12/4 368/12/4
f 368/12/4 367/12/4 369/12/4
f 362/16/4 365/16/4 370/16/4
f 360/16/4 362/16/4 370/16/4
f 365/16/4 366/16/4 370/16/4
f 366/3/4 338/3/4 371/3/4
f 370/16/4 366/16/4 371/16/4
f 357/5/4 358/5/4 372/5/4
f 358/4/4 359/4/4 373/4/4
f 372/5/4 358/5/4 373/5/4
f 359/7/4 360/7/4 374/7/4
f 373/4/4 359/4/4 374/4/4
f 360/16/4 370/16/4 375/16/4
f 374/7/4 360/7/4 375/7/4
f 370/10/4 371/10/4 376/10/4
f 375/16/4 370/16/4 376/16/4
f 376/10/4 371/10/4 377/10/4
f 371/3/4 338/3/4 378/3/4
f 377/10/4 371/10/4 378/10/4
f 338/1/4 339/1/4 379/1/4
f 378/3/4 338/3/4 379/3/4
f 339/13/4 368/13/4 380/13/4
f 379/1/4 339/1/4 380/1/4
f 380/13/4 368/13/4 381/13/4
f 381/13/4 368/13/4 382/13/4
f 377/12/4 378/12/4 383/12/4
f 381/1/4 382/1/4 383/1/4
f 380/12/4 381/12/4 383/12/4
f 379/12/4 380/12/4 383/12/4
f 378/12/4 379/12/4 383/12/4
f 383/1/4 382/1/4 384/1/4
f 384/1/4 382/1/4 385/1/4
f 382/13/4 368/13/4 386/13/4
f 385/1/4 382/1/4 386/1/4
f 377/12/4 383/12/4 387/12/4
f 383/12/4 384/12/4 387/12/4
f 384/1/4 385/1/4 388/1/4
f 387/12/4 384/12/4 388/12/4
f 385/13/4 386/13/4 389/13/4
f 388/1/4 385/1/4 389/1/4
f 386/13/4 368/13/4 390/13/4
f 389/13/4 386/13/4 390/13/4
f 391/7/4 392/7/4 394/7/4
f 392/6/4 393/6/4 395/6/4
f 394/7/4 392/7/4 395/7/4
f 395/6/4 393/6/4 396/6/4
f 401/5/5 398/5/5 397/5/5
f 402/7/5 399/7/5 398/7/5
f 402/5/5 398/5/5 401/5/5
f 403/5/5 400/5/5 399/5/5
f 403/7/5 399/7/5 402/7/5
f 404/5/5 400/5/5 403/5/5
f 405/8/5 402/8/5 401/8/5
f 405/5/5 401/5/5 397/5/5
f 406/7/5 403/7/5 402/7/5
f 406/8/5 402/8/5 405/8/5
f 407/8/5 404/8/5 403/8/5
f 407/7/5 403/7/5 406/7/5
f 408/5/5 400/5/5 404/5/5
f 408/8/5 404/8/5 407/8/5
f 409/5/5 406/5/5 405/5/5
f 409/5/5 405/5/5 397/5/5
f 410/7/5 407/7/5 406/7/5
f 410/5/5 406/5/5 409/5/5
f 411/5/5 408/5/5 407/5/5
f 411/7/5 407/7/5 410/7/5
f 412/5/5 400/5/5 408/5/5
f 412/5/5 408/5/5 411/5/5
f 417/12/5 416/12/5 415/12/5
f 418/12/5 416/12/5 417/12/5
f 419/12/5 414/12/5 413/12/5
f 420/12/5 414/12/5 419/12/5
f 421/12/5 416/12/5 418/12/5
f 422/12/5 416/12/5 421/12/5
f 425/7/5 424/7/5 423/7/5
f 426/7/5 424/7/5 425/7/5
f 431/7/5 428/7/5 427/7/5
f 431/9/5 429/9/5 428/9/5
f 432/7/5 430/7/5 429/7/5
f 432/9/5 429/9/5 431/9/5
f 433/7/5 431/7/5 427/7/5
f 433/7/5 432/7/5 431/7/5
f 434/7/5 430/7/5 432/7/5
f 434/7/5 432/7/5 433/7/5
f 435/13/6 436/13/6 439/13/6
f 439/13/6 436/13/6 440/13/6
f 437/13/6 438/13/6 441/13/6
f 441/13/6 438/13/6 442/13/6
f 443/6/6 444/6/6 445/6/6
f 445/6/6 444/6/6 446/6/6
