# MagicaVoxel @ Ephtracy

# group
o 

# material
mtllib tenpurako youki ver2.mtl
usemtl palette

# normals
vn -1 0 0
vn 1 0 0
vn 0 0 1
vn 0 0 -1
vn 0 -1 0
vn 0 1 0

# texcoords
vt 0.908203 0.5
vt 0.951172 0.5
vt 0.955078 0.5
vt 0.974609 0.5

# verts
v 1.4 4.8 -2.2
v 1.4 4.8 -3
v 1.4 5.4 -2.2
v 1.4 5.4 -3
v 1.5 4.7 -2.2
v 1.5 4.7 -3
v 1.5 4.8 -2.1
v 1.5 4.8 -2.2
v 1.5 4.8 -3
v 1.5 4.8 -3.1
v 1.5 5.4 -2.1
v 1.5 5.4 -2.2
v 1.5 5.4 -3
v 1.5 5.4 -3.1
v 1.6 4.7 -2.1
v 1.6 4.7 -2.2
v 1.6 4.7 -3
v 1.6 4.7 -3.1
v 1.6 4.8 -2
v 1.6 4.8 -2.1
v 1.6 4.8 -2.2
v 1.6 4.8 -3
v 1.6 4.8 -3.1
v 1.6 4.8 -3.2
v 1.6 5.4 -2
v 1.6 5.4 -2.1
v 1.6 5.4 -3.1
v 1.6 5.4 -3.2
v 3.1 5.2 -2.1
v 3.1 5.2 -2.2
v 3.1 5.2 -3
v 3.1 5.2 -3.1
v 3.1 5.4 -2.1
v 3.1 5.4 -2.2
v 3.1 5.4 -3
v 3.1 5.4 -3.1
v 3.2 5.2 -2.2
v 3.2 5.2 -3
v 3.2 5.4 -2.2
v 3.2 5.4 -3
v 1.5 5.2 -2.2
v 1.5 5.2 -3
v 1.5 5.4 -2.2
v 1.5 5.4 -3
v 1.6 5.2 -2.1
v 1.6 5.2 -2.2
v 1.6 5.2 -3
v 1.6 5.2 -3.1
v 1.6 5.4 -2.1
v 1.6 5.4 -2.2
v 1.6 5.4 -3
v 1.6 5.4 -3.1
v 3.1 4.7 -2.1
v 3.1 4.7 -2.2
v 3.1 4.7 -3
v 3.1 4.7 -3.1
v 3.1 4.8 -2
v 3.1 4.8 -2.1
v 3.1 4.8 -2.2
v 3.1 4.8 -3
v 3.1 4.8 -3.1
v 3.1 4.8 -3.2
v 3.1 5.4 -2
v 3.1 5.4 -2.1
v 3.1 5.4 -3.1
v 3.1 5.4 -3.2
v 3.2 4.7 -2.2
v 3.2 4.7 -3
v 3.2 4.8 -2.1
v 3.2 4.8 -2.2
v 3.2 4.8 -3
v 3.2 4.8 -3.1
v 3.2 5.4 -2.1
v 3.2 5.4 -2.2
v 3.2 5.4 -3
v 3.2 5.4 -3.1
v 3.3 4.8 -2.2
v 3.3 4.8 -3
v 3.3 5.4 -2.2
v 3.3 5.4 -3
v 1.6 4.8 -2
v 1.6 5.4 -2
v 3.1 4.8 -2
v 3.1 5.4 -2
v 1.5 4.8 -2.1
v 1.5 5.4 -2.1
v 1.6 4.7 -2.1
v 1.6 4.8 -2.1
v 1.6 5.4 -2.1
v 3.1 4.7 -2.1
v 3.1 4.8 -2.1
v 3.1 5.4 -2.1
v 3.2 4.8 -2.1
v 3.2 5.4 -2.1
v 1.4 4.8 -2.2
v 1.4 5.4 -2.2
v 1.5 4.7 -2.2
v 1.5 4.8 -2.2
v 1.5 5.4 -2.2
v 1.6 4.7 -2.2
v 1.6 4.8 -2.2
v 3.1 4.7 -2.2
v 3.1 4.8 -2.2
v 3.2 4.7 -2.2
v 3.2 4.8 -2.2
v 3.2 5.4 -2.2
v 3.3 4.8 -2.2
v 3.3 5.4 -2.2
v 1.5 5.2 -3
v 1.5 5.4 -3
v 1.6 5.2 -3
v 1.6 5.4 -3
v 3.1 5.2 -3
v 3.1 5.4 -3
v 3.2 5.2 -3
v 3.2 5.4 -3
v 1.6 5.2 -3.1
v 1.6 5.4 -3.1
v 3.1 5.2 -3.1
v 3.1 5.4 -3.1
v 1.6 5.2 -2.1
v 1.6 5.4 -2.1
v 3.1 5.2 -2.1
v 3.1 5.4 -2.1
v 1.5 5.2 -2.2
v 1.5 5.4 -2.2
v 1.6 5.2 -2.2
v 1.6 5.4 -2.2
v 3.1 5.2 -2.2
v 3.1 5.4 -2.2
v 3.2 5.2 -2.2
v 3.2 5.4 -2.2
v 1.4 4.8 -3
v 1.4 5.4 -3
v 1.5 4.7 -3
v 1.5 4.8 -3
v 1.5 5.4 -3
v 1.6 4.7 -3
v 1.6 4.8 -3
v 3.1 4.7 -3
v 3.1 4.8 -3
v 3.2 4.7 -3
v 3.2 4.8 -3
v 3.2 5.4 -3
v 3.3 4.8 -3
v 3.3 5.4 -3
v 1.5 4.8 -3.1
v 1.5 5.4 -3.1
v 1.6 4.7 -3.1
v 1.6 4.8 -3.1
v 1.6 5.4 -3.1
v 3.1 4.7 -3.1
v 3.1 4.8 -3.1
v 3.1 5.4 -3.1
v 3.2 4.8 -3.1
v 3.2 5.4 -3.1
v 1.6 4.8 -3.2
v 1.6 5.4 -3.2
v 3.1 4.8 -3.2
v 3.1 5.4 -3.2
v 1.6 4.7 -2.1
v 3.1 4.7 -2.1
v 1.5 4.7 -2.2
v 1.6 4.7 -2.2
v 3.1 4.7 -2.2
v 3.2 4.7 -2.2
v 1.5 4.7 -3
v 1.6 4.7 -3
v 3.1 4.7 -3
v 3.2 4.7 -3
v 1.6 4.7 -3.1
v 3.1 4.7 -3.1
v 1.6 4.8 -2
v 3.1 4.8 -2
v 1.5 4.8 -2.1
v 1.6 4.8 -2.1
v 3.1 4.8 -2.1
v 3.2 4.8 -2.1
v 1.4 4.8 -2.2
v 1.5 4.8 -2.2
v 1.6 4.8 -2.2
v 3.1 4.8 -2.2
v 3.2 4.8 -2.2
v 3.3 4.8 -2.2
v 1.4 4.8 -3
v 1.5 4.8 -3
v 1.6 4.8 -3
v 3.1 4.8 -3
v 3.2 4.8 -3
v 3.3 4.8 -3
v 1.5 4.8 -3.1
v 1.6 4.8 -3.1
v 3.1 4.8 -3.1
v 3.2 4.8 -3.1
v 1.6 4.8 -3.2
v 3.1 4.8 -3.2
v 1.6 5.2 -2.1
v 3.1 5.2 -2.1
v 1.5 5.2 -2.2
v 1.6 5.2 -2.2
v 1.7 5.2 -2.2
v 3 5.2 -2.2
v 3.1 5.2 -2.2
v 3.2 5.2 -2.2
v 1.6 5.2 -2.3
v 1.7 5.2 -2.3
v 3 5.2 -2.3
v 3.1 5.2 -2.3
v 1.8 5.2 -2.4
v 2.9 5.2 -2.4
v 1.8 5.2 -2.8
v 2.9 5.2 -2.8
v 1.6 5.2 -2.9
v 1.7 5.2 -2.9
v 3 5.2 -2.9
v 3.1 5.2 -2.9
v 1.5 5.2 -3
v 1.6 5.2 -3
v 1.7 5.2 -3
v 3 5.2 -3
v 3.1 5.2 -3
v 3.2 5.2 -3
v 1.6 5.2 -3.1
v 3.1 5.2 -3.1
v 1.6 5.4 -2
v 3.1 5.4 -2
v 1.5 5.4 -2.1
v 1.6 5.4 -2.1
v 3.1 5.4 -2.1
v 3.2 5.4 -2.1
v 1.4 5.4 -2.2
v 1.5 5.4 -2.2
v 1.6 5.4 -2.2
v 3.1 5.4 -2.2
v 3.2 5.4 -2.2
v 3.3 5.4 -2.2
v 1.4 5.4 -3
v 1.5 5.4 -3
v 1.6 5.4 -3
v 3.1 5.4 -3
v 3.2 5.4 -3
v 3.3 5.4 -3
v 1.5 5.4 -3.1
v 1.6 5.4 -3.1
v 3.1 5.4 -3.1
v 3.2 5.4 -3.1
v 1.6 5.4 -3.2
v 3.1 5.4 -3.2

# faces
f 3/1/1 2/1/1 1/1/1
f 4/1/1 2/1/1 3/1/1
f 8/1/1 6/1/1 5/1/1
f 9/1/1 6/1/1 8/1/1
f 11/1/1 8/1/1 7/1/1
f 12/1/1 8/1/1 11/1/1
f 13/1/1 10/1/1 9/1/1
f 14/1/1 10/1/1 13/1/1
f 20/1/1 16/1/1 15/1/1
f 21/1/1 16/1/1 20/1/1
f 22/1/1 18/1/1 17/1/1
f 23/1/1 18/1/1 22/1/1
f 25/1/1 20/1/1 19/1/1
f 26/1/1 20/1/1 25/1/1
f 27/1/1 24/1/1 23/1/1
f 28/1/1 24/1/1 27/1/1
f 33/1/1 30/1/1 29/1/1
f 34/1/1 30/1/1 33/1/1
f 35/1/1 32/1/1 31/1/1
f 36/1/1 32/1/1 35/1/1
f 39/1/1 38/1/1 37/1/1
f 40/1/1 38/1/1 39/1/1
f 41/1/2 42/1/2 43/1/2
f 43/1/2 42/1/2 44/1/2
f 45/1/2 46/1/2 49/1/2
f 49/1/2 46/1/2 50/1/2
f 47/1/2 48/1/2 51/1/2
f 51/1/2 48/1/2 52/1/2
f 53/1/2 54/1/2 58/1/2
f 58/1/2 54/1/2 59/1/2
f 55/1/2 56/1/2 60/1/2
f 60/1/2 56/1/2 61/1/2
f 57/1/2 58/1/2 63/1/2
f 63/1/2 58/1/2 64/1/2
f 61/1/2 62/1/2 65/1/2
f 65/1/2 62/1/2 66/1/2
f 67/1/2 68/1/2 70/1/2
f 70/1/2 68/1/2 71/1/2
f 69/1/2 70/1/2 73/1/2
f 73/1/2 70/1/2 74/1/2
f 71/1/2 72/1/2 75/1/2
f 75/1/2 72/1/2 76/1/2
f 77/1/2 78/1/2 79/1/2
f 79/1/2 78/1/2 80/1/2
f 83/1/3 82/1/3 81/1/3
f 84/1/3 82/1/3 83/1/3
f 88/1/3 86/1/3 85/1/3
f 89/1/3 86/1/3 88/1/3
f 90/1/3 88/1/3 87/1/3
f 91/1/3 88/1/3 90/1/3
f 93/1/3 92/1/3 91/1/3
f 94/1/3 92/1/3 93/1/3
f 98/1/3 96/1/3 95/1/3
f 99/1/3 96/1/3 98/1/3
f 100/1/3 98/1/3 97/1/3
f 101/1/3 98/1/3 100/1/3
f 104/1/3 103/1/3 102/1/3
f 105/1/3 103/1/3 104/1/3
f 107/1/3 106/1/3 105/1/3
f 108/1/3 106/1/3 107/1/3
f 111/1/3 110/1/3 109/1/3
f 112/1/3 110/1/3 111/1/3
f 115/1/3 114/1/3 113/1/3
f 116/1/3 114/1/3 115/1/3
f 119/1/3 118/1/3 117/1/3
f 120/1/3 118/1/3 119/1/3
f 121/1/4 122/1/4 123/1/4
f 123/1/4 122/1/4 124/1/4
f 125/1/4 126/1/4 127/1/4
f 127/1/4 126/1/4 128/1/4
f 129/1/4 130/1/4 131/1/4
f 131/1/4 130/1/4 132/1/4
f 133/1/4 134/1/4 136/1/4
f 136/1/4 134/1/4 137/1/4
f 135/1/4 136/1/4 138/1/4
f 138/1/4 136/1/4 139/1/4
f 140/1/4 141/1/4 142/1/4
f 142/1/4 141/1/4 143/1/4
f 143/1/4 144/1/4 145/1/4
f 145/1/4 144/1/4 146/1/4
f 147/1/4 148/1/4 150/1/4
f 150/1/4 148/1/4 151/1/4
f 149/1/4 150/1/4 152/1/4
f 152/1/4 150/1/4 153/1/4
f 153/1/4 154/1/4 155/1/4
f 155/1/4 154/1/4 156/1/4
f 157/1/4 158/1/4 159/1/4
f 159/1/4 158/1/4 160/1/4
f 164/1/5 162/1/5 161/1/5
f 165/1/5 162/1/5 164/1/5
f 167/1/5 164/1/5 163/1/5
f 167/1/5 166/1/5 165/1/5
f 167/1/5 165/1/5 164/1/5
f 168/1/5 166/1/5 167/1/5
f 169/1/5 166/1/5 168/1/5
f 170/1/5 166/1/5 169/1/5
f 171/1/5 169/1/5 168/1/5
f 172/1/5 169/1/5 171/1/5
f 176/1/5 174/1/5 173/1/5
f 177/1/5 174/1/5 176/1/5
f 180/1/5 176/1/5 175/1/5
f 181/1/5 176/1/5 180/1/5
f 182/1/5 178/1/5 177/1/5
f 183/1/5 178/1/5 182/1/5
f 185/1/5 180/1/5 179/1/5
f 186/1/5 180/1/5 185/1/5
f 189/1/5 184/1/5 183/1/5
f 190/1/5 184/1/5 189/1/5
f 191/1/5 187/1/5 186/1/5
f 192/1/5 187/1/5 191/1/5
f 193/1/5 189/1/5 188/1/5
f 194/1/5 189/1/5 193/1/5
f 195/1/5 193/1/5 192/1/5
f 196/1/5 193/1/5 195/1/5
f 197/4/6 198/4/6 200/4/6
f 200/4/6 198/4/6 201/4/6
f 201/4/6 198/4/6 202/4/6
f 202/4/6 198/4/6 203/4/6
f 199/4/6 200/4/6 205/4/6
f 200/4/6 201/4/6 205/4/6
f 201/3/6 202/3/6 206/3/6
f 205/4/6 201/4/6 206/4/6
f 203/4/6 204/4/6 207/4/6
f 206/3/6 202/3/6 207/3/6
f 202/4/6 203/4/6 207/4/6
f 207/4/6 204/4/6 208/4/6
f 206/2/6 207/2/6 209/2/6
f 209/2/6 207/2/6 210/2/6
f 206/2/6 209/2/6 211/2/6
f 209/3/6 210/3/6 211/3/6
f 210/2/6 207/2/6 212/2/6
f 211/3/6 210/3/6 212/3/6
f 205/3/6 206/3/6 213/3/6
f 199/4/6 205/4/6 213/4/6
f 211/2/6 212/2/6 214/2/6
f 213/3/6 206/3/6 214/3/6
f 206/2/6 211/2/6 214/2/6
f 212/2/6 207/2/6 215/2/6
f 214/2/6 212/2/6 215/2/6
f 207/3/6 208/3/6 215/3/6
f 208/4/6 204/4/6 216/4/6
f 215/3/6 208/3/6 216/3/6
f 213/4/6 214/4/6 217/4/6
f 199/4/6 213/4/6 217/4/6
f 217/4/6 214/4/6 218/4/6
f 214/3/6 215/3/6 219/3/6
f 218/4/6 214/4/6 219/4/6
f 215/4/6 216/4/6 220/4/6
f 219/3/6 215/3/6 220/3/6
f 216/4/6 204/4/6 221/4/6
f 220/4/6 216/4/6 221/4/6
f 221/4/6 204/4/6 222/4/6
f 219/4/6 220/4/6 223/4/6
f 218/4/6 219/4/6 223/4/6
f 220/4/6 221/4/6 223/4/6
f 223/4/6 221/4/6 224/4/6
f 225/1/6 226/1/6 228/1/6
f 228/1/6 226/1/6 229/1/6
f 227/1/6 228/1/6 232/1/6
f 232/1/6 228/1/6 233/1/6
f 229/1/6 230/1/6 234/1/6
f 234/1/6 230/1/6 235/1/6
f 231/1/6 232/1/6 237/1/6
f 237/1/6 232/1/6 238/1/6
f 235/1/6 236/1/6 241/1/6
f 241/1/6 236/1/6 242/1/6
f 238/1/6 239/1/6 243/1/6
f 243/1/6 239/1/6 244/1/6
f 240/1/6 241/1/6 245/1/6
f 245/1/6 241/1/6 246/1/6
f 244/1/6 245/1/6 247/1/6
f 247/1/6 245/1/6 248/1/6
