# MagicaVoxel @ Ephtracy

# group
o 

# material
mtllib sakana.koromo.mtl
usemtl palette

# normals
vn -1 0 0
vn 1 0 0
vn 0 0 1
vn 0 0 -1
vn 0 -1 0
vn 0 1 0

# texcoords
vt 0.283203 0.5
vt 0.388672 0.5
vt 0.416016 0.5
vt 0.419922 0.5
vt 0.482422 0.5

# verts
v 0 2.9 -1.1
v 0 2.9 -2.3
v 0 3.1 -1.3
v 0 3.1 -1.5
v 0 3.1 -2.3
v 0 3.1 -2.5
v 0 3.3 -1.3
v 0 3.3 -1.5
v 0 3.3 -2.5
v 0 3.3 -2.7
v 0 3.5 -1.1
v 0 3.5 -1.3
v 0 3.5 -2.7
v 0 3.5 -2.9
v 0 3.8 -1.3
v 0 3.8 -1.4
v 0 3.8 -1.5
v 0 3.9 -2.9
v 0 3.9 -3.1
v 0 4.3 -1.5
v 0 4.3 -1.7
v 0 4.5 -1.3
v 0 4.5 -1.4
v 0 4.5 -1.5
v 0 4.5 -1.7
v 0 4.5 -1.9
v 0 4.7 -1.5
v 0 4.7 -1.7
v 0 4.7 -1.9
v 0 4.7 -2.3
v 0 4.7 -3.1
v 0 4.7 -3.7
v 0 4.8 -3
v 0 4.8 -3.1
v 0 4.9 -1.7
v 0 4.9 -1.9
v 0 4.9 -2.1
v 0 4.9 -2.3
v 0 4.9 -2.9
v 0 4.9 -3
v 0 5.2 -1.9
v 0 5.2 -2.1
v 0 5.2 -3.5
v 0 5.2 -3.7
v 0 5.4 -3.3
v 0 5.4 -3.5
v 0 5.6 -2.9
v 0 5.6 -3.3
v 0.2 2.9 -1.1
v 0.2 2.9 -2.3
v 0.2 3.1 -1.3
v 0.2 3.1 -1.5
v 0.2 3.1 -2.3
v 0.2 3.1 -2.5
v 0.2 3.3 -1.3
v 0.2 3.3 -1.5
v 0.2 3.3 -2.5
v 0.2 3.3 -2.7
v 0.2 3.5 -1.1
v 0.2 3.5 -1.3
v 0.2 3.5 -2.7
v 0.2 3.5 -2.9
v 0.2 3.8 -1.3
v 0.2 3.8 -1.5
v 0.2 3.9 -2.9
v 0.2 3.9 -3.1
v 0.2 4.3 -1.5
v 0.2 4.3 -1.7
v 0.2 4.5 -1.3
v 0.2 4.5 -1.5
v 0.2 4.5 -1.7
v 0.2 4.5 -1.9
v 0.2 4.7 -1.5
v 0.2 4.7 -1.7
v 0.2 4.7 -1.9
v 0.2 4.7 -2.3
v 0.2 4.7 -3.1
v 0.2 4.7 -3.7
v 0.2 4.8 -3
v 0.2 4.8 -3.1
v 0.2 4.9 -1.7
v 0.2 4.9 -1.9
v 0.2 4.9 -2.1
v 0.2 4.9 -2.3
v 0.2 4.9 -2.9
v 0.2 4.9 -3
v 0.2 5.2 -1.9
v 0.2 5.2 -2.1
v 0.2 5.2 -3.5
v 0.2 5.2 -3.7
v 0.2 5.4 -3.3
v 0.2 5.4 -3.5
v 0.2 5.6 -2.9
v 0.2 5.6 -3.3
v 0 2.9 -1.1
v 0 3.5 -1.1
v 0.2 2.9 -1.1
v 0.2 3.5 -1.1
v 0 3.5 -1.3
v 0 3.8 -1.3
v 0 4.5 -1.3
v 0.2 3.5 -1.3
v 0.2 3.8 -1.3
v 0.2 4.5 -1.3
v 0 4.5 -1.5
v 0 4.7 -1.5
v 0.1 4.5 -1.5
v 0.2 4.5 -1.5
v 0.2 4.7 -1.5
v 0 4.7 -1.7
v 0 4.9 -1.7
v 0.2 4.7 -1.7
v 0.2 4.9 -1.7
v 0 4.9 -1.9
v 0 5.2 -1.9
v 0.2 4.9 -1.9
v 0.2 5.2 -1.9
v 0 4.9 -2.9
v 0 5.6 -2.9
v 0.2 4.9 -2.9
v 0.2 5.6 -2.9
v 0 4.9 -2.1
v 0 5.2 -2.1
v 0.2 4.9 -2.1
v 0.2 5.2 -2.1
v 0 2.9 -2.3
v 0 3.1 -2.3
v 0.2 2.9 -2.3
v 0.2 3.1 -2.3
v 0 3.1 -2.5
v 0 3.3 -2.5
v 0.2 3.1 -2.5
v 0.2 3.3 -2.5
v 0 3.3 -2.7
v 0 3.5 -2.7
v 0.2 3.3 -2.7
v 0.2 3.5 -2.7
v 0 3.5 -2.9
v 0 3.9 -2.9
v 0.2 3.5 -2.9
v 0.2 3.9 -2.9
v 0 3.9 -3.1
v 0 4.7 -3.1
v 0.2 3.9 -3.1
v 0.2 4.7 -3.1
v 0 5.4 -3.3
v 0 5.6 -3.3
v 0.2 5.4 -3.3
v 0.2 5.6 -3.3
v 0 5.2 -3.5
v 0 5.4 -3.5
v 0.2 5.2 -3.5
v 0.2 5.4 -3.5
v 0 4.7 -3.7
v 0 5.2 -3.7
v 0.2 4.7 -3.7
v 0.2 5.2 -3.7
v 0 2.9 -1.1
v 0.2 2.9 -1.1
v 0 2.9 -2.3
v 0.2 2.9 -2.3
v 0 3.1 -2.3
v 0.2 3.1 -2.3
v 0 3.1 -2.5
v 0.2 3.1 -2.5
v 0 3.3 -2.5
v 0.2 3.3 -2.5
v 0 3.3 -2.7
v 0.2 3.3 -2.7
v 0 3.5 -2.7
v 0.2 3.5 -2.7
v 0 3.5 -2.9
v 0.2 3.5 -2.9
v 0 3.9 -2.9
v 0.2 3.9 -2.9
v 0 3.9 -3.1
v 0.2 3.9 -3.1
v 0 4.7 -3.1
v 0.2 4.7 -3.1
v 0 4.7 -3.7
v 0.2 4.7 -3.7
v 0 3.5 -1.1
v 0.2 3.5 -1.1
v 0 3.5 -1.3
v 0.2 3.5 -1.3
v 0 4.5 -1.3
v 0.2 4.5 -1.3
v 0 4.5 -1.4
v 0.1 4.5 -1.4
v 0 4.5 -1.5
v 0.1 4.5 -1.5
v 0.2 4.5 -1.5
v 0 4.7 -1.5
v 0.2 4.7 -1.5
v 0 4.7 -1.7
v 0.2 4.7 -1.7
v 0 4.9 -1.7
v 0.2 4.9 -1.7
v 0 4.9 -1.9
v 0.2 4.9 -1.9
v 0 4.9 -2.1
v 0.2 4.9 -2.1
v 0 4.9 -2.3
v 0.2 4.9 -2.3
v 0 4.9 -2.9
v 0.2 4.9 -2.9
v 0 5.2 -1.9
v 0.2 5.2 -1.9
v 0 5.2 -2.1
v 0.2 5.2 -2.1
v 0 5.2 -3.5
v 0.2 5.2 -3.5
v 0 5.2 -3.7
v 0.2 5.2 -3.7
v 0 5.4 -3.3
v 0.2 5.4 -3.3
v 0 5.4 -3.5
v 0.2 5.4 -3.5
v 0 5.6 -2.9
v 0.2 5.6 -2.9
v 0 5.6 -3.3
v 0.2 5.6 -3.3

# faces
f 3/2/1 2/2/1 1/2/1
f 4/2/1 2/2/1 3/2/1
f 5/2/1 2/2/1 4/2/1
f 7/2/1 3/2/1 1/2/1
f 7/4/1 4/4/1 3/4/1
f 8/2/1 6/2/1 5/2/1
f 8/4/1 4/4/1 7/4/1
f 8/2/1 5/2/1 4/2/1
f 9/2/1 6/2/1 8/2/1
f 11/2/1 7/2/1 1/2/1
f 11/2/1 10/2/1 9/2/1
f 11/2/1 9/2/1 8/2/1
f 11/2/1 8/2/1 7/2/1
f 12/2/1 10/2/1 11/2/1
f 13/2/1 10/2/1 12/2/1
f 15/2/1 14/2/1 13/2/1
f 15/2/1 13/2/1 12/2/1
f 16/2/1 14/2/1 15/2/1
f 17/2/1 14/2/1 16/2/1
f 18/2/1 14/2/1 17/2/1
f 20/5/1 17/5/1 16/5/1
f 20/2/1 19/2/1 18/2/1
f 20/2/1 18/2/1 17/2/1
f 21/2/1 19/2/1 20/2/1
f 22/3/1 16/3/1 15/3/1
f 23/5/1 20/5/1 16/5/1
f 23/3/1 16/3/1 22/3/1
f 24/3/1 21/3/1 20/3/1
f 24/5/1 20/5/1 23/5/1
f 25/2/1 19/2/1 21/2/1
f 25/3/1 21/3/1 24/3/1
f 26/2/1 19/2/1 25/2/1
f 27/3/1 26/3/1 25/3/1
f 27/3/1 25/3/1 24/3/1
f 28/3/1 26/3/1 27/3/1
f 29/2/1 19/2/1 26/2/1
f 29/3/1 26/3/1 28/3/1
f 30/2/1 19/2/1 29/2/1
f 31/2/1 19/2/1 30/2/1
f 33/2/1 31/2/1 30/2/1
f 34/1/1 32/1/1 31/1/1
f 34/2/1 31/2/1 33/2/1
f 35/3/1 29/3/1 28/3/1
f 35/3/1 30/3/1 29/3/1
f 36/3/1 30/3/1 35/3/1
f 37/3/1 30/3/1 36/3/1
f 38/2/1 33/2/1 30/2/1
f 38/3/1 30/3/1 37/3/1
f 39/2/1 33/2/1 38/2/1
f 40/1/1 34/1/1 33/1/1
f 40/2/1 33/2/1 39/2/1
f 41/3/1 37/3/1 36/3/1
f 42/3/1 37/3/1 41/3/1
f 43/1/1 34/1/1 40/1/1
f 43/1/1 32/1/1 34/1/1
f 43/1/1 40/1/1 39/1/1
f 44/1/1 32/1/1 43/1/1
f 45/1/1 43/1/1 39/1/1
f 46/1/1 43/1/1 45/1/1
f 47/1/1 45/1/1 39/1/1
f 48/1/1 45/1/1 47/1/1
f 49/2/2 50/2/2 51/2/2
f 51/2/2 50/2/2 52/2/2
f 52/2/2 50/2/2 53/2/2
f 49/2/2 51/2/2 55/2/2
f 51/4/2 52/4/2 55/4/2
f 53/2/2 54/2/2 56/2/2
f 55/4/2 52/4/2 56/4/2
f 52/2/2 53/2/2 56/2/2
f 56/2/2 54/2/2 57/2/2
f 49/2/2 55/2/2 59/2/2
f 57/2/2 58/2/2 59/2/2
f 56/2/2 57/2/2 59/2/2
f 55/2/2 56/2/2 59/2/2
f 59/2/2 58/2/2 60/2/2
f 60/2/2 58/2/2 61/2/2
f 61/2/2 62/2/2 63/2/2
f 60/2/2 61/2/2 63/2/2
f 63/2/2 62/2/2 64/2/2
f 64/2/2 62/2/2 65/2/2
f 63/3/2 64/3/2 67/3/2
f 65/2/2 66/2/2 67/2/2
f 64/2/2 65/2/2 67/2/2
f 67/2/2 66/2/2 68/2/2
f 63/3/2 67/3/2 69/3/2
f 67/3/2 68/3/2 69/3/2
f 69/3/2 68/3/2 70/3/2
f 68/2/2 66/2/2 71/2/2
f 70/3/2 68/3/2 71/3/2
f 71/2/2 66/2/2 72/2/2
f 70/3/2 71/3/2 73/3/2
f 71/3/2 72/3/2 73/3/2
f 73/3/2 72/3/2 74/3/2
f 72/2/2 66/2/2 75/2/2
f 74/3/2 72/3/2 75/3/2
f 75/2/2 66/2/2 76/2/2
f 76/2/2 66/2/2 77/2/2
f 76/2/2 77/2/2 79/2/2
f 77/1/2 78/1/2 80/1/2
f 79/2/2 77/2/2 80/2/2
f 74/3/2 75/3/2 81/3/2
f 75/3/2 76/3/2 81/3/2
f 81/3/2 76/3/2 82/3/2
f 82/3/2 76/3/2 83/3/2
f 76/2/2 79/2/2 84/2/2
f 83/3/2 76/3/2 84/3/2
f 84/2/2 79/2/2 85/2/2
f 79/1/2 80/1/2 86/1/2
f 85/2/2 79/2/2 86/2/2
f 82/3/2 83/3/2 87/3/2
f 87/3/2 83/3/2 88/3/2
f 86/1/2 80/1/2 89/1/2
f 80/1/2 78/1/2 89/1/2
f 85/1/2 86/1/2 89/1/2
f 89/1/2 78/1/2 90/1/2
f 85/1/2 89/1/2 91/1/2
f 91/1/2 89/1/2 92/1/2
f 85/1/2 91/1/2 93/1/2
f 93/1/2 91/1/2 94/1/2
f 97/2/3 96/2/3 95/2/3
f 98/2/3 96/2/3 97/2/3
f 102/2/3 100/2/3 99/2/3
f 103/3/3 101/3/3 100/3/3
f 103/2/3 100/2/3 102/2/3
f 104/3/3 101/3/3 103/3/3
f 107/3/3 106/3/3 105/3/3
f 108/3/3 106/3/3 107/3/3
f 109/3/3 106/3/3 108/3/3
f 112/3/3 111/3/3 110/3/3
f 113/3/3 111/3/3 112/3/3
f 116/3/3 115/3/3 114/3/3
f 117/3/3 115/3/3 116/3/3
f 120/1/3 119/1/3 118/1/3
f 121/1/3 119/1/3 120/1/3
f 122/3/4 123/3/4 124/3/4
f 124/3/4 123/3/4 125/3/4
f 126/2/4 127/2/4 128/2/4
f 128/2/4 127/2/4 129/2/4
f 130/2/4 131/2/4 132/2/4
f 132/2/4 131/2/4 133/2/4
f 134/2/4 135/2/4 136/2/4
f 136/2/4 135/2/4 137/2/4
f 138/2/4 139/2/4 140/2/4
f 140/2/4 139/2/4 141/2/4
f 142/2/4 143/2/4 144/2/4
f 144/2/4 143/2/4 145/2/4
f 146/1/4 147/1/4 148/1/4
f 148/1/4 147/1/4 149/1/4
f 150/1/4 151/1/4 152/1/4
f 152/1/4 151/1/4 153/1/4
f 154/1/4 155/1/4 156/1/4
f 156/1/4 155/1/4 157/1/4
f 160/2/5 159/2/5 158/2/5
f 161/2/5 159/2/5 160/2/5
f 164/2/5 163/2/5 162/2/5
f 165/2/5 163/2/5 164/2/5
f 168/2/5 167/2/5 166/2/5
f 169/2/5 167/2/5 168/2/5
f 172/2/5 171/2/5 170/2/5
f 173/2/5 171/2/5 172/2/5
f 176/2/5 175/2/5 174/2/5
f 177/2/5 175/2/5 176/2/5
f 180/1/5 179/1/5 178/1/5
f 181/1/5 179/1/5 180/1/5
f 182/2/6 183/2/6 184/2/6
f 184/2/6 183/2/6 185/2/6
f 186/3/6 187/3/6 188/3/6
f 188/3/6 187/3/6 189/3/6
f 188/5/6 189/5/6 190/5/6
f 189/3/6 187/3/6 191/3/6
f 190/5/6 189/5/6 191/5/6
f 191/3/6 187/3/6 192/3/6
f 193/3/6 194/3/6 195/3/6
f 195/3/6 194/3/6 196/3/6
f 197/3/6 198/3/6 199/3/6
f 199/3/6 198/3/6 200/3/6
f 201/3/6 202/3/6 203/3/6
f 203/3/6 202/3/6 204/3/6
f 203/2/6 204/2/6 205/2/6
f 205/2/6 204/2/6 206/2/6
f 207/3/6 208/3/6 209/3/6
f 209/3/6 208/3/6 210/3/6
f 211/1/6 212/1/6 213/1/6
f 213/1/6 212/1/6 214/1/6
f 215/1/6 216/1/6 217/1/6
f 217/1/6 216/1/6 218/1/6
f 219/1/6 220/1/6 221/1/6
f 221/1/6 220/1/6 222/1/6
